  0
SECTION
  2
HEADER
  9
$ANGBASE
  50
0.0
  9
$ANGDIR
  70
1
  9
$MEASUREMENT
  70
1
  0
ENDSEC
  0
SECTION
  2
TABLES
  0
TABLE
  2
LTYPE
  70
4
  0
LTYPE
  5
40F
  2
CONTINUOUS
  70
0
  3
Solid line
  72
65
  73
0
  40
0.0
  0
LTYPE
  5
410
  2
DASHDOT
 70
0
  3
Dash Dot ____ _ ____ _
 72
65
 73
4
 40
2.0
 49
1.25
 49
-0.25
 49
0.25
 49
-0.25
  0
LTYPE
  5
411
  2
DASHED
 70
0
  3
Dashed __ __ __ __ __
 72
65
 73
2
 40
0.75
 49
0.5
 49
-0.25
  0
LTYPE
  5
43B
  2
DOTTED
 70
0
  3
Dotted .  .  .  .
 72
65
 73
2
 40
0.2
 49
0.0
 49
-0.2
  0
ENDTAB
  0
TABLE
  2
STYLE
  70
4
  0
STYLE
  2
KICAD
  70
0
  40
0
  41
1
  42
1
  50
0
  71
0
  3
isocp.shx
  0
STYLE
  2
KICADB
  70
0
  40
0
  41
1
  42
1
  50
0
  71
0
  3
isocp.shx
  0
STYLE
  2
KICADI
  70
0
  40
0
  41
1
  42
1
  50
15
  71
0
  3
isocp.shx
  0
STYLE
  2
KICADBI
  70
0
  40
0
  41
1
  42
1
  50
15
  71
0
  3
isocp.shx
  0
ENDTAB
  0
TABLE
  2
LAYER
  70
1
  0
LAYER
  2
BLACK
  70
0
  62
7
  6
CONTINUOUS
  0
ENDTAB
  0
ENDSEC
  0
SECTION
  2
ENTITIES
0
LINE
8
BLACK
6
CONTINUOUS
10
40
20
-30
11
122
21
-30
0
LINE
8
BLACK
6
CONTINUOUS
10
122
20
-30
11
122
21
-114
0
LINE
8
BLACK
6
CONTINUOUS
10
122
20
-114
11
40
21
-114
0
LINE
8
BLACK
6
CONTINUOUS
10
40
20
-114
11
40
21
-30
0
LINE
8
BLACK
6
CONTINUOUS
10
93.1
20
-52.6
11
93.9
21
-53.4
0
LINE
8
BLACK
6
CONTINUOUS
10
93.9
20
-52.6
11
93.1
21
-53.4
0
LINE
8
BLACK
6
CONTINUOUS
10
98.1
20
-52.6
11
98.9
21
-53.4
0
LINE
8
BLACK
6
CONTINUOUS
10
98.9
20
-52.6
11
98.1
21
-53.4
0
LINE
8
BLACK
6
CONTINUOUS
10
117.6
20
-59.1
11
118.4
21
-59.9
0
LINE
8
BLACK
6
CONTINUOUS
10
118.4
20
-59.1
11
117.6
21
-59.9
0
LINE
8
BLACK
6
CONTINUOUS
10
117.6
20
-64.1
11
118.4
21
-64.9
0
LINE
8
BLACK
6
CONTINUOUS
10
118.4
20
-64.1
11
117.6
21
-64.9
0
CIRCLE
8
BLACK
10
46
20
-89.085
40
0.5
0
CIRCLE
8
BLACK
10
46
20
-92.085
40
0.5
0
CIRCLE
8
BLACK
10
49
20
-89.085
40
0.5
0
CIRCLE
8
BLACK
10
49
20
-92.085
40
0.5
0
CIRCLE
8
BLACK
10
52
20
-89.085
40
0.5
0
CIRCLE
8
BLACK
10
52
20
-92.085
40
0.5
0
CIRCLE
8
BLACK
10
73
20
-74
40
0.5
0
CIRCLE
8
BLACK
10
75.54
20
-74
40
0.5
0
CIRCLE
8
BLACK
10
78.08
20
-74
40
0.5
0
CIRCLE
8
BLACK
10
83.16
20
-74
40
0.5
0
CIRCLE
8
BLACK
10
85.7
20
-74
40
0.5
0
CIRCLE
8
BLACK
10
88.24
20
-74
40
0.5
0
CIRCLE
8
BLACK
10
90.78
20
-74
40
0.5
0
LINE
8
BLACK
6
CONTINUOUS
10
43.065
20
-46.14
11
43.065
21
-47.99
0
LINE
8
BLACK
6
CONTINUOUS
10
42.14
20
-47.065
11
43.99
21
-47.065
0
LINE
8
BLACK
6
CONTINUOUS
10
43.065
20
-52.01
11
43.065
21
-53.86
0
LINE
8
BLACK
6
CONTINUOUS
10
42.14
20
-52.935
11
43.99
21
-52.935
0
LINE
8
BLACK
6
CONTINUOUS
10
48.935
20
-46.14
11
48.935
21
-47.99
0
LINE
8
BLACK
6
CONTINUOUS
10
48.01
20
-47.065
11
49.86
21
-47.065
0
LINE
8
BLACK
6
CONTINUOUS
10
48.935
20
-52.01
11
48.935
21
-53.86
0
LINE
8
BLACK
6
CONTINUOUS
10
48.01
20
-52.935
11
49.86
21
-52.935
0
LINE
8
BLACK
6
CONTINUOUS
10
56.065
20
-46.14
11
56.065
21
-47.99
0
LINE
8
BLACK
6
CONTINUOUS
10
55.14
20
-47.065
11
56.99
21
-47.065
0
LINE
8
BLACK
6
CONTINUOUS
10
56.065
20
-52.01
11
56.065
21
-53.86
0
LINE
8
BLACK
6
CONTINUOUS
10
55.14
20
-52.935
11
56.99
21
-52.935
0
LINE
8
BLACK
6
CONTINUOUS
10
61.935
20
-46.14
11
61.935
21
-47.99
0
LINE
8
BLACK
6
CONTINUOUS
10
61.01
20
-47.065
11
62.86
21
-47.065
0
LINE
8
BLACK
6
CONTINUOUS
10
61.935
20
-52.01
11
61.935
21
-53.86
0
LINE
8
BLACK
6
CONTINUOUS
10
61.01
20
-52.935
11
62.86
21
-52.935
0
LINE
8
BLACK
6
CONTINUOUS
10
92.065
20
-32.14
11
92.065
21
-33.99
0
LINE
8
BLACK
6
CONTINUOUS
10
91.14
20
-33.065
11
92.99
21
-33.065
0
LINE
8
BLACK
6
CONTINUOUS
10
92.065
20
-38.01
11
92.065
21
-39.86
0
LINE
8
BLACK
6
CONTINUOUS
10
91.14
20
-38.935
11
92.99
21
-38.935
0
LINE
8
BLACK
6
CONTINUOUS
10
97.935
20
-32.14
11
97.935
21
-33.99
0
LINE
8
BLACK
6
CONTINUOUS
10
97.01
20
-33.065
11
98.86
21
-33.065
0
LINE
8
BLACK
6
CONTINUOUS
10
97.935
20
-38.01
11
97.935
21
-39.86
0
LINE
8
BLACK
6
CONTINUOUS
10
97.01
20
-38.935
11
98.86
21
-38.935
0
LINE
8
BLACK
6
CONTINUOUS
10
106.065
20
-32.14
11
106.065
21
-33.99
0
LINE
8
BLACK
6
CONTINUOUS
10
105.14
20
-33.065
11
106.99
21
-33.065
0
LINE
8
BLACK
6
CONTINUOUS
10
106.065
20
-38.01
11
106.065
21
-39.86
0
LINE
8
BLACK
6
CONTINUOUS
10
105.14
20
-38.935
11
106.99
21
-38.935
0
LINE
8
BLACK
6
CONTINUOUS
10
111.935
20
-32.14
11
111.935
21
-33.99
0
LINE
8
BLACK
6
CONTINUOUS
10
111.01
20
-33.065
11
112.86
21
-33.065
0
LINE
8
BLACK
6
CONTINUOUS
10
111.935
20
-38.01
11
111.935
21
-39.86
0
LINE
8
BLACK
6
CONTINUOUS
10
111.01
20
-38.935
11
112.86
21
-38.935
0
LINE
8
BLACK
6
CONTINUOUS
10
43.3536
20
-93.3786
11
43.3536
21
-92.6714
0
LINE
8
BLACK
6
CONTINUOUS
10
43.3536
20
-92.6714
11
42.6464
21
-92.6714
0
LINE
8
BLACK
6
CONTINUOUS
10
42.6464
20
-92.6714
11
42.6464
21
-93.3786
0
LINE
8
BLACK
6
CONTINUOUS
10
42.6464
20
-93.3786
11
43.3536
21
-93.3786
0
LINE
8
BLACK
6
CONTINUOUS
10
55.3536
20
-93.3786
11
55.3536
21
-92.6714
0
LINE
8
BLACK
6
CONTINUOUS
10
55.3536
20
-92.6714
11
54.6464
21
-92.6714
0
LINE
8
BLACK
6
CONTINUOUS
10
54.6464
20
-92.6714
11
54.6464
21
-93.3786
0
LINE
8
BLACK
6
CONTINUOUS
10
54.6464
20
-93.3786
11
55.3536
21
-93.3786
0
LINE
8
BLACK
6
CONTINUOUS
10
44
20
-35.6
11
45.6
21
-34
0
LINE
8
BLACK
6
CONTINUOUS
10
45.6
20
-34
11
44
21
-32.4
0
LINE
8
BLACK
6
CONTINUOUS
10
44
20
-32.4
11
42.4
21
-34
0
LINE
8
BLACK
6
CONTINUOUS
10
42.4
20
-34
11
44
21
-35.6
0
LINE
8
BLACK
6
CONTINUOUS
10
44
20
-111.6
11
45.6
21
-110
0
LINE
8
BLACK
6
CONTINUOUS
10
45.6
20
-110
11
44
21
-108.4
0
LINE
8
BLACK
6
CONTINUOUS
10
44
20
-108.4
11
42.4
21
-110
0
LINE
8
BLACK
6
CONTINUOUS
10
42.4
20
-110
11
44
21
-111.6
0
LINE
8
BLACK
6
CONTINUOUS
10
46
20
-51.6
11
47.6
21
-50
0
LINE
8
BLACK
6
CONTINUOUS
10
47.6
20
-50
11
46
21
-48.4
0
LINE
8
BLACK
6
CONTINUOUS
10
46
20
-48.4
11
44.4
21
-50
0
LINE
8
BLACK
6
CONTINUOUS
10
44.4
20
-50
11
46
21
-51.6
0
LINE
8
BLACK
6
CONTINUOUS
10
59
20
-51.6
11
60.6
21
-50
0
LINE
8
BLACK
6
CONTINUOUS
10
60.6
20
-50
11
59
21
-48.4
0
LINE
8
BLACK
6
CONTINUOUS
10
59
20
-48.4
11
57.4
21
-50
0
LINE
8
BLACK
6
CONTINUOUS
10
57.4
20
-50
11
59
21
-51.6
0
LINE
8
BLACK
6
CONTINUOUS
10
95
20
-37.6
11
96.6
21
-36
0
LINE
8
BLACK
6
CONTINUOUS
10
96.6
20
-36
11
95
21
-34.4
0
LINE
8
BLACK
6
CONTINUOUS
10
95
20
-34.4
11
93.4
21
-36
0
LINE
8
BLACK
6
CONTINUOUS
10
93.4
20
-36
11
95
21
-37.6
0
LINE
8
BLACK
6
CONTINUOUS
10
109
20
-37.6
11
110.6
21
-36
0
LINE
8
BLACK
6
CONTINUOUS
10
110.6
20
-36
11
109
21
-34.4
0
LINE
8
BLACK
6
CONTINUOUS
10
109
20
-34.4
11
107.4
21
-36
0
LINE
8
BLACK
6
CONTINUOUS
10
107.4
20
-36
11
109
21
-37.6
0
LINE
8
BLACK
6
CONTINUOUS
10
118
20
-35.6
11
119.6
21
-34
0
LINE
8
BLACK
6
CONTINUOUS
10
119.6
20
-34
11
118
21
-32.4
0
LINE
8
BLACK
6
CONTINUOUS
10
118
20
-32.4
11
116.4
21
-34
0
LINE
8
BLACK
6
CONTINUOUS
10
116.4
20
-34
11
118
21
-35.6
0
LINE
8
BLACK
6
CONTINUOUS
10
118
20
-111.6
11
119.6
21
-110
0
LINE
8
BLACK
6
CONTINUOUS
10
119.6
20
-110
11
118
21
-108.4
0
LINE
8
BLACK
6
CONTINUOUS
10
118
20
-108.4
11
116.4
21
-110
0
LINE
8
BLACK
6
CONTINUOUS
10
116.4
20
-110
11
118
21
-111.6
0
LINE
8
BLACK
6
CONTINUOUS
10
42.5262
20
-117.155
11
42.5262
21
-115.155
0
LINE
8
BLACK
6
CONTINUOUS
10
42.5262
20
-115.155
11
43.0024
21
-115.155
0
LINE
8
BLACK
6
CONTINUOUS
10
43.0024
20
-115.155
11
43.2881
21
-115.25
0
LINE
8
BLACK
6
CONTINUOUS
10
43.2881
20
-115.25
11
43.4786
21
-115.44
0
LINE
8
BLACK
6
CONTINUOUS
10
43.4786
20
-115.44
11
43.5738
21
-115.631
0
LINE
8
BLACK
6
CONTINUOUS
10
43.5738
20
-115.631
11
43.669
21
-116.012
0
LINE
8
BLACK
6
CONTINUOUS
10
43.669
20
-116.012
11
43.669
21
-116.298
0
LINE
8
BLACK
6
CONTINUOUS
10
43.669
20
-116.298
11
43.5738
21
-116.679
0
LINE
8
BLACK
6
CONTINUOUS
10
43.5738
20
-116.679
11
43.4786
21
-116.869
0
LINE
8
BLACK
6
CONTINUOUS
10
43.4786
20
-116.869
11
43.2881
21
-117.06
0
LINE
8
BLACK
6
CONTINUOUS
10
43.2881
20
-117.06
11
43.0024
21
-117.155
0
LINE
8
BLACK
6
CONTINUOUS
10
43.0024
20
-117.155
11
42.5262
21
-117.155
0
LINE
8
BLACK
6
CONTINUOUS
10
44.5262
20
-117.155
11
44.5262
21
-115.821
0
LINE
8
BLACK
6
CONTINUOUS
10
44.5262
20
-116.202
11
44.6214
21
-116.012
0
LINE
8
BLACK
6
CONTINUOUS
10
44.6214
20
-116.012
11
44.7167
21
-115.917
0
LINE
8
BLACK
6
CONTINUOUS
10
44.7167
20
-115.917
11
44.9071
21
-115.821
0
LINE
8
BLACK
6
CONTINUOUS
10
44.9071
20
-115.821
11
45.0976
21
-115.821
0
LINE
8
BLACK
6
CONTINUOUS
10
45.7643
20
-117.155
11
45.7643
21
-115.821
0
LINE
8
BLACK
6
CONTINUOUS
10
45.7643
20
-115.155
11
45.669
21
-115.25
0
LINE
8
BLACK
6
CONTINUOUS
10
45.669
20
-115.25
11
45.7643
21
-115.345
0
LINE
8
BLACK
6
CONTINUOUS
10
45.7643
20
-115.345
11
45.8595
21
-115.25
0
LINE
8
BLACK
6
CONTINUOUS
10
45.8595
20
-115.25
11
45.7643
21
-115.155
0
LINE
8
BLACK
6
CONTINUOUS
10
45.7643
20
-115.155
11
45.7643
21
-115.345
0
LINE
8
BLACK
6
CONTINUOUS
10
47.0024
20
-117.155
11
46.8119
21
-117.06
0
LINE
8
BLACK
6
CONTINUOUS
10
46.8119
20
-117.06
11
46.7167
21
-116.869
0
LINE
8
BLACK
6
CONTINUOUS
10
46.7167
20
-116.869
11
46.7167
21
-115.155
0
LINE
8
BLACK
6
CONTINUOUS
10
48.05
20
-117.155
11
47.8595
21
-117.06
0
LINE
8
BLACK
6
CONTINUOUS
10
47.8595
20
-117.06
11
47.7643
21
-116.869
0
LINE
8
BLACK
6
CONTINUOUS
10
47.7643
20
-116.869
11
47.7643
21
-115.155
0
LINE
8
BLACK
6
CONTINUOUS
10
50.3357
20
-117.155
11
50.3357
21
-115.155
0
LINE
8
BLACK
6
CONTINUOUS
10
50.3357
20
-115.155
11
51.0024
21
-116.583
0
LINE
8
BLACK
6
CONTINUOUS
10
51.0024
20
-116.583
11
51.669
21
-115.155
0
LINE
8
BLACK
6
CONTINUOUS
10
51.669
20
-115.155
11
51.669
21
-117.155
0
LINE
8
BLACK
6
CONTINUOUS
10
53.4786
20
-117.155
11
53.4786
21
-116.107
0
LINE
8
BLACK
6
CONTINUOUS
10
53.4786
20
-116.107
11
53.3833
21
-115.917
0
LINE
8
BLACK
6
CONTINUOUS
10
53.3833
20
-115.917
11
53.1929
21
-115.821
0
LINE
8
BLACK
6
CONTINUOUS
10
53.1929
20
-115.821
11
52.8119
21
-115.821
0
LINE
8
BLACK
6
CONTINUOUS
10
52.8119
20
-115.821
11
52.6214
21
-115.917
0
LINE
8
BLACK
6
CONTINUOUS
10
53.4786
20
-117.06
11
53.2881
21
-117.155
0
LINE
8
BLACK
6
CONTINUOUS
10
53.2881
20
-117.155
11
52.8119
21
-117.155
0
LINE
8
BLACK
6
CONTINUOUS
10
52.8119
20
-117.155
11
52.6214
21
-117.06
0
LINE
8
BLACK
6
CONTINUOUS
10
52.6214
20
-117.06
11
52.5262
21
-116.869
0
LINE
8
BLACK
6
CONTINUOUS
10
52.5262
20
-116.869
11
52.5262
21
-116.679
0
LINE
8
BLACK
6
CONTINUOUS
10
52.5262
20
-116.679
11
52.6214
21
-116.488
0
LINE
8
BLACK
6
CONTINUOUS
10
52.6214
20
-116.488
11
52.8119
21
-116.393
0
LINE
8
BLACK
6
CONTINUOUS
10
52.8119
20
-116.393
11
53.2881
21
-116.393
0
LINE
8
BLACK
6
CONTINUOUS
10
53.2881
20
-116.393
11
53.4786
21
-116.298
0
LINE
8
BLACK
6
CONTINUOUS
10
54.431
20
-115.821
11
54.431
21
-117.821
0
LINE
8
BLACK
6
CONTINUOUS
10
54.431
20
-115.917
11
54.6214
21
-115.821
0
LINE
8
BLACK
6
CONTINUOUS
10
54.6214
20
-115.821
11
55.0024
21
-115.821
0
LINE
8
BLACK
6
CONTINUOUS
10
55.0024
20
-115.821
11
55.1929
21
-115.917
0
LINE
8
BLACK
6
CONTINUOUS
10
55.1929
20
-115.917
11
55.2881
21
-116.012
0
LINE
8
BLACK
6
CONTINUOUS
10
55.2881
20
-116.012
11
55.3833
21
-116.202
0
LINE
8
BLACK
6
CONTINUOUS
10
55.3833
20
-116.202
11
55.3833
21
-116.774
0
LINE
8
BLACK
6
CONTINUOUS
10
55.3833
20
-116.774
11
55.2881
21
-116.964
0
LINE
8
BLACK
6
CONTINUOUS
10
55.2881
20
-116.964
11
55.1929
21
-117.06
0
LINE
8
BLACK
6
CONTINUOUS
10
55.1929
20
-117.06
11
55.0024
21
-117.155
0
LINE
8
BLACK
6
CONTINUOUS
10
55.0024
20
-117.155
11
54.6214
21
-117.155
0
LINE
8
BLACK
6
CONTINUOUS
10
54.6214
20
-117.155
11
54.431
21
-117.06
0
LINE
8
BLACK
6
CONTINUOUS
10
56.2405
20
-116.964
11
56.3357
21
-117.06
0
LINE
8
BLACK
6
CONTINUOUS
10
56.3357
20
-117.06
11
56.2405
21
-117.155
0
LINE
8
BLACK
6
CONTINUOUS
10
56.2405
20
-117.155
11
56.1452
21
-117.06
0
LINE
8
BLACK
6
CONTINUOUS
10
56.1452
20
-117.06
11
56.2405
21
-116.964
0
LINE
8
BLACK
6
CONTINUOUS
10
56.2405
20
-116.964
11
56.2405
21
-117.155
0
LINE
8
BLACK
6
CONTINUOUS
10
56.2405
20
-115.917
11
56.3357
21
-116.012
0
LINE
8
BLACK
6
CONTINUOUS
10
56.3357
20
-116.012
11
56.2405
21
-116.107
0
LINE
8
BLACK
6
CONTINUOUS
10
56.2405
20
-116.107
11
56.1452
21
-116.012
0
LINE
8
BLACK
6
CONTINUOUS
10
56.1452
20
-116.012
11
56.2405
21
-115.917
0
LINE
8
BLACK
6
CONTINUOUS
10
56.2405
20
-115.917
11
56.2405
21
-116.107
0
LINE
8
BLACK
6
CONTINUOUS
10
39.15
20
-120.05
11
39.95
21
-120.85
0
LINE
8
BLACK
6
CONTINUOUS
10
39.95
20
-120.05
11
39.15
21
-120.85
0
LINE
8
BLACK
6
CONTINUOUS
10
42.9071
20
-119.355
11
43.0976
21
-119.355
0
LINE
8
BLACK
6
CONTINUOUS
10
43.0976
20
-119.355
11
43.2881
21
-119.45
0
LINE
8
BLACK
6
CONTINUOUS
10
43.2881
20
-119.45
11
43.3833
21
-119.545
0
LINE
8
BLACK
6
CONTINUOUS
10
43.3833
20
-119.545
11
43.4786
21
-119.736
0
LINE
8
BLACK
6
CONTINUOUS
10
43.4786
20
-119.736
11
43.5738
21
-120.117
0
LINE
8
BLACK
6
CONTINUOUS
10
43.5738
20
-120.117
11
43.5738
21
-120.593
0
LINE
8
BLACK
6
CONTINUOUS
10
43.5738
20
-120.593
11
43.4786
21
-120.974
0
LINE
8
BLACK
6
CONTINUOUS
10
43.4786
20
-120.974
11
43.3833
21
-121.164
0
LINE
8
BLACK
6
CONTINUOUS
10
43.3833
20
-121.164
11
43.2881
21
-121.26
0
LINE
8
BLACK
6
CONTINUOUS
10
43.2881
20
-121.26
11
43.0976
21
-121.355
0
LINE
8
BLACK
6
CONTINUOUS
10
43.0976
20
-121.355
11
42.9071
21
-121.355
0
LINE
8
BLACK
6
CONTINUOUS
10
42.9071
20
-121.355
11
42.7167
21
-121.26
0
LINE
8
BLACK
6
CONTINUOUS
10
42.7167
20
-121.26
11
42.6214
21
-121.164
0
LINE
8
BLACK
6
CONTINUOUS
10
42.6214
20
-121.164
11
42.5262
21
-120.974
0
LINE
8
BLACK
6
CONTINUOUS
10
42.5262
20
-120.974
11
42.431
21
-120.593
0
LINE
8
BLACK
6
CONTINUOUS
10
42.431
20
-120.593
11
42.431
21
-120.117
0
LINE
8
BLACK
6
CONTINUOUS
10
42.431
20
-120.117
11
42.5262
21
-119.736
0
LINE
8
BLACK
6
CONTINUOUS
10
42.5262
20
-119.736
11
42.6214
21
-119.545
0
LINE
8
BLACK
6
CONTINUOUS
10
42.6214
20
-119.545
11
42.7167
21
-119.45
0
LINE
8
BLACK
6
CONTINUOUS
10
42.7167
20
-119.45
11
42.9071
21
-119.355
0
LINE
8
BLACK
6
CONTINUOUS
10
44.431
20
-121.164
11
44.5262
21
-121.26
0
LINE
8
BLACK
6
CONTINUOUS
10
44.5262
20
-121.26
11
44.431
21
-121.355
0
LINE
8
BLACK
6
CONTINUOUS
10
44.431
20
-121.355
11
44.3357
21
-121.26
0
LINE
8
BLACK
6
CONTINUOUS
10
44.3357
20
-121.26
11
44.431
21
-121.164
0
LINE
8
BLACK
6
CONTINUOUS
10
44.431
20
-121.164
11
44.431
21
-121.355
0
LINE
8
BLACK
6
CONTINUOUS
10
45.669
20
-120.212
11
45.4786
21
-120.117
0
LINE
8
BLACK
6
CONTINUOUS
10
45.4786
20
-120.117
11
45.3833
21
-120.021
0
LINE
8
BLACK
6
CONTINUOUS
10
45.3833
20
-120.021
11
45.2881
21
-119.831
0
LINE
8
BLACK
6
CONTINUOUS
10
45.2881
20
-119.831
11
45.2881
21
-119.736
0
LINE
8
BLACK
6
CONTINUOUS
10
45.2881
20
-119.736
11
45.3833
21
-119.545
0
LINE
8
BLACK
6
CONTINUOUS
10
45.3833
20
-119.545
11
45.4786
21
-119.45
0
LINE
8
BLACK
6
CONTINUOUS
10
45.4786
20
-119.45
11
45.669
21
-119.355
0
LINE
8
BLACK
6
CONTINUOUS
10
45.669
20
-119.355
11
46.05
21
-119.355
0
LINE
8
BLACK
6
CONTINUOUS
10
46.05
20
-119.355
11
46.2405
21
-119.45
0
LINE
8
BLACK
6
CONTINUOUS
10
46.2405
20
-119.45
11
46.3357
21
-119.545
0
LINE
8
BLACK
6
CONTINUOUS
10
46.3357
20
-119.545
11
46.431
21
-119.736
0
LINE
8
BLACK
6
CONTINUOUS
10
46.431
20
-119.736
11
46.431
21
-119.831
0
LINE
8
BLACK
6
CONTINUOUS
10
46.431
20
-119.831
11
46.3357
21
-120.021
0
LINE
8
BLACK
6
CONTINUOUS
10
46.3357
20
-120.021
11
46.2405
21
-120.117
0
LINE
8
BLACK
6
CONTINUOUS
10
46.2405
20
-120.117
11
46.05
21
-120.212
0
LINE
8
BLACK
6
CONTINUOUS
10
46.05
20
-120.212
11
45.669
21
-120.212
0
LINE
8
BLACK
6
CONTINUOUS
10
45.669
20
-120.212
11
45.4786
21
-120.307
0
LINE
8
BLACK
6
CONTINUOUS
10
45.4786
20
-120.307
11
45.3833
21
-120.402
0
LINE
8
BLACK
6
CONTINUOUS
10
45.3833
20
-120.402
11
45.2881
21
-120.593
0
LINE
8
BLACK
6
CONTINUOUS
10
45.2881
20
-120.593
11
45.2881
21
-120.974
0
LINE
8
BLACK
6
CONTINUOUS
10
45.2881
20
-120.974
11
45.3833
21
-121.164
0
LINE
8
BLACK
6
CONTINUOUS
10
45.3833
20
-121.164
11
45.4786
21
-121.26
0
LINE
8
BLACK
6
CONTINUOUS
10
45.4786
20
-121.26
11
45.669
21
-121.355
0
LINE
8
BLACK
6
CONTINUOUS
10
45.669
20
-121.355
11
46.05
21
-121.355
0
LINE
8
BLACK
6
CONTINUOUS
10
46.05
20
-121.355
11
46.2405
21
-121.26
0
LINE
8
BLACK
6
CONTINUOUS
10
46.2405
20
-121.26
11
46.3357
21
-121.164
0
LINE
8
BLACK
6
CONTINUOUS
10
46.3357
20
-121.164
11
46.431
21
-120.974
0
LINE
8
BLACK
6
CONTINUOUS
10
46.431
20
-120.974
11
46.431
21
-120.593
0
LINE
8
BLACK
6
CONTINUOUS
10
46.431
20
-120.593
11
46.3357
21
-120.402
0
LINE
8
BLACK
6
CONTINUOUS
10
46.3357
20
-120.402
11
46.2405
21
-120.307
0
LINE
8
BLACK
6
CONTINUOUS
10
46.2405
20
-120.307
11
46.05
21
-120.212
0
LINE
8
BLACK
6
CONTINUOUS
10
47.669
20
-119.355
11
47.8595
21
-119.355
0
LINE
8
BLACK
6
CONTINUOUS
10
47.8595
20
-119.355
11
48.05
21
-119.45
0
LINE
8
BLACK
6
CONTINUOUS
10
48.05
20
-119.45
11
48.1452
21
-119.545
0
LINE
8
BLACK
6
CONTINUOUS
10
48.1452
20
-119.545
11
48.2405
21
-119.736
0
LINE
8
BLACK
6
CONTINUOUS
10
48.2405
20
-119.736
11
48.3357
21
-120.117
0
LINE
8
BLACK
6
CONTINUOUS
10
48.3357
20
-120.117
11
48.3357
21
-120.593
0
LINE
8
BLACK
6
CONTINUOUS
10
48.3357
20
-120.593
11
48.2405
21
-120.974
0
LINE
8
BLACK
6
CONTINUOUS
10
48.2405
20
-120.974
11
48.1452
21
-121.164
0
LINE
8
BLACK
6
CONTINUOUS
10
48.1452
20
-121.164
11
48.05
21
-121.26
0
LINE
8
BLACK
6
CONTINUOUS
10
48.05
20
-121.26
11
47.8595
21
-121.355
0
LINE
8
BLACK
6
CONTINUOUS
10
47.8595
20
-121.355
11
47.669
21
-121.355
0
LINE
8
BLACK
6
CONTINUOUS
10
47.669
20
-121.355
11
47.4786
21
-121.26
0
LINE
8
BLACK
6
CONTINUOUS
10
47.4786
20
-121.26
11
47.3833
21
-121.164
0
LINE
8
BLACK
6
CONTINUOUS
10
47.3833
20
-121.164
11
47.2881
21
-120.974
0
LINE
8
BLACK
6
CONTINUOUS
10
47.2881
20
-120.974
11
47.1929
21
-120.593
0
LINE
8
BLACK
6
CONTINUOUS
10
47.1929
20
-120.593
11
47.1929
21
-120.117
0
LINE
8
BLACK
6
CONTINUOUS
10
47.1929
20
-120.117
11
47.2881
21
-119.736
0
LINE
8
BLACK
6
CONTINUOUS
10
47.2881
20
-119.736
11
47.3833
21
-119.545
0
LINE
8
BLACK
6
CONTINUOUS
10
47.3833
20
-119.545
11
47.4786
21
-119.45
0
LINE
8
BLACK
6
CONTINUOUS
10
47.4786
20
-119.45
11
47.669
21
-119.355
0
LINE
8
BLACK
6
CONTINUOUS
10
49.5738
20
-119.355
11
49.7643
21
-119.355
0
LINE
8
BLACK
6
CONTINUOUS
10
49.7643
20
-119.355
11
49.9548
21
-119.45
0
LINE
8
BLACK
6
CONTINUOUS
10
49.9548
20
-119.45
11
50.05
21
-119.545
0
LINE
8
BLACK
6
CONTINUOUS
10
50.05
20
-119.545
11
50.1452
21
-119.736
0
LINE
8
BLACK
6
CONTINUOUS
10
50.1452
20
-119.736
11
50.2405
21
-120.117
0
LINE
8
BLACK
6
CONTINUOUS
10
50.2405
20
-120.117
11
50.2405
21
-120.593
0
LINE
8
BLACK
6
CONTINUOUS
10
50.2405
20
-120.593
11
50.1452
21
-120.974
0
LINE
8
BLACK
6
CONTINUOUS
10
50.1452
20
-120.974
11
50.05
21
-121.164
0
LINE
8
BLACK
6
CONTINUOUS
10
50.05
20
-121.164
11
49.9548
21
-121.26
0
LINE
8
BLACK
6
CONTINUOUS
10
49.9548
20
-121.26
11
49.7643
21
-121.355
0
LINE
8
BLACK
6
CONTINUOUS
10
49.7643
20
-121.355
11
49.5738
21
-121.355
0
LINE
8
BLACK
6
CONTINUOUS
10
49.5738
20
-121.355
11
49.3833
21
-121.26
0
LINE
8
BLACK
6
CONTINUOUS
10
49.3833
20
-121.26
11
49.2881
21
-121.164
0
LINE
8
BLACK
6
CONTINUOUS
10
49.2881
20
-121.164
11
49.1929
21
-120.974
0
LINE
8
BLACK
6
CONTINUOUS
10
49.1929
20
-120.974
11
49.0976
21
-120.593
0
LINE
8
BLACK
6
CONTINUOUS
10
49.0976
20
-120.593
11
49.0976
21
-120.117
0
LINE
8
BLACK
6
CONTINUOUS
10
49.0976
20
-120.117
11
49.1929
21
-119.736
0
LINE
8
BLACK
6
CONTINUOUS
10
49.1929
20
-119.736
11
49.2881
21
-119.545
0
LINE
8
BLACK
6
CONTINUOUS
10
49.2881
20
-119.545
11
49.3833
21
-119.45
0
LINE
8
BLACK
6
CONTINUOUS
10
49.3833
20
-119.45
11
49.5738
21
-119.355
0
LINE
8
BLACK
6
CONTINUOUS
10
51.0976
20
-121.355
11
51.0976
21
-120.021
0
LINE
8
BLACK
6
CONTINUOUS
10
51.0976
20
-120.212
11
51.1929
21
-120.117
0
LINE
8
BLACK
6
CONTINUOUS
10
51.1929
20
-120.117
11
51.3833
21
-120.021
0
LINE
8
BLACK
6
CONTINUOUS
10
51.3833
20
-120.021
11
51.669
21
-120.021
0
LINE
8
BLACK
6
CONTINUOUS
10
51.669
20
-120.021
11
51.8595
21
-120.117
0
LINE
8
BLACK
6
CONTINUOUS
10
51.8595
20
-120.117
11
51.9548
21
-120.307
0
LINE
8
BLACK
6
CONTINUOUS
10
51.9548
20
-120.307
11
51.9548
21
-121.355
0
LINE
8
BLACK
6
CONTINUOUS
10
51.9548
20
-120.307
11
52.05
21
-120.117
0
LINE
8
BLACK
6
CONTINUOUS
10
52.05
20
-120.117
11
52.2405
21
-120.021
0
LINE
8
BLACK
6
CONTINUOUS
10
52.2405
20
-120.021
11
52.5262
21
-120.021
0
LINE
8
BLACK
6
CONTINUOUS
10
52.5262
20
-120.021
11
52.7167
21
-120.117
0
LINE
8
BLACK
6
CONTINUOUS
10
52.7167
20
-120.117
11
52.8119
21
-120.307
0
LINE
8
BLACK
6
CONTINUOUS
10
52.8119
20
-120.307
11
52.8119
21
-121.355
0
LINE
8
BLACK
6
CONTINUOUS
10
53.7643
20
-121.355
11
53.7643
21
-120.021
0
LINE
8
BLACK
6
CONTINUOUS
10
53.7643
20
-120.212
11
53.8595
21
-120.117
0
LINE
8
BLACK
6
CONTINUOUS
10
53.8595
20
-120.117
11
54.05
21
-120.021
0
LINE
8
BLACK
6
CONTINUOUS
10
54.05
20
-120.021
11
54.3357
21
-120.021
0
LINE
8
BLACK
6
CONTINUOUS
10
54.3357
20
-120.021
11
54.5262
21
-120.117
0
LINE
8
BLACK
6
CONTINUOUS
10
54.5262
20
-120.117
11
54.6214
21
-120.307
0
LINE
8
BLACK
6
CONTINUOUS
10
54.6214
20
-120.307
11
54.6214
21
-121.355
0
LINE
8
BLACK
6
CONTINUOUS
10
54.6214
20
-120.307
11
54.7167
21
-120.117
0
LINE
8
BLACK
6
CONTINUOUS
10
54.7167
20
-120.117
11
54.9071
21
-120.021
0
LINE
8
BLACK
6
CONTINUOUS
10
54.9071
20
-120.021
11
55.1929
21
-120.021
0
LINE
8
BLACK
6
CONTINUOUS
10
55.1929
20
-120.021
11
55.3833
21
-120.117
0
LINE
8
BLACK
6
CONTINUOUS
10
55.3833
20
-120.117
11
55.4786
21
-120.307
0
LINE
8
BLACK
6
CONTINUOUS
10
55.4786
20
-120.307
11
55.4786
21
-121.355
0
LINE
8
BLACK
6
CONTINUOUS
10
59.3833
20
-119.26
11
57.669
21
-121.831
0
LINE
8
BLACK
6
CONTINUOUS
10
61.9548
20
-119.355
11
62.1452
21
-119.355
0
LINE
8
BLACK
6
CONTINUOUS
10
62.1452
20
-119.355
11
62.3357
21
-119.45
0
LINE
8
BLACK
6
CONTINUOUS
10
62.3357
20
-119.45
11
62.431
21
-119.545
0
LINE
8
BLACK
6
CONTINUOUS
10
62.431
20
-119.545
11
62.5262
21
-119.736
0
LINE
8
BLACK
6
CONTINUOUS
10
62.5262
20
-119.736
11
62.6214
21
-120.117
0
LINE
8
BLACK
6
CONTINUOUS
10
62.6214
20
-120.117
11
62.6214
21
-120.593
0
LINE
8
BLACK
6
CONTINUOUS
10
62.6214
20
-120.593
11
62.5262
21
-120.974
0
LINE
8
BLACK
6
CONTINUOUS
10
62.5262
20
-120.974
11
62.431
21
-121.164
0
LINE
8
BLACK
6
CONTINUOUS
10
62.431
20
-121.164
11
62.3357
21
-121.26
0
LINE
8
BLACK
6
CONTINUOUS
10
62.3357
20
-121.26
11
62.1452
21
-121.355
0
LINE
8
BLACK
6
CONTINUOUS
10
62.1452
20
-121.355
11
61.9548
21
-121.355
0
LINE
8
BLACK
6
CONTINUOUS
10
61.9548
20
-121.355
11
61.7643
21
-121.26
0
LINE
8
BLACK
6
CONTINUOUS
10
61.7643
20
-121.26
11
61.669
21
-121.164
0
LINE
8
BLACK
6
CONTINUOUS
10
61.669
20
-121.164
11
61.5738
21
-120.974
0
LINE
8
BLACK
6
CONTINUOUS
10
61.5738
20
-120.974
11
61.4786
21
-120.593
0
LINE
8
BLACK
6
CONTINUOUS
10
61.4786
20
-120.593
11
61.4786
21
-120.117
0
LINE
8
BLACK
6
CONTINUOUS
10
61.4786
20
-120.117
11
61.5738
21
-119.736
0
LINE
8
BLACK
6
CONTINUOUS
10
61.5738
20
-119.736
11
61.669
21
-119.545
0
LINE
8
BLACK
6
CONTINUOUS
10
61.669
20
-119.545
11
61.7643
21
-119.45
0
LINE
8
BLACK
6
CONTINUOUS
10
61.7643
20
-119.45
11
61.9548
21
-119.355
0
LINE
8
BLACK
6
CONTINUOUS
10
63.4786
20
-121.164
11
63.5738
21
-121.26
0
LINE
8
BLACK
6
CONTINUOUS
10
63.5738
20
-121.26
11
63.4786
21
-121.355
0
LINE
8
BLACK
6
CONTINUOUS
10
63.4786
20
-121.355
11
63.3833
21
-121.26
0
LINE
8
BLACK
6
CONTINUOUS
10
63.3833
20
-121.26
11
63.4786
21
-121.164
0
LINE
8
BLACK
6
CONTINUOUS
10
63.4786
20
-121.164
11
63.4786
21
-121.355
0
LINE
8
BLACK
6
CONTINUOUS
10
64.8119
20
-119.355
11
65.0024
21
-119.355
0
LINE
8
BLACK
6
CONTINUOUS
10
65.0024
20
-119.355
11
65.1929
21
-119.45
0
LINE
8
BLACK
6
CONTINUOUS
10
65.1929
20
-119.45
11
65.2881
21
-119.545
0
LINE
8
BLACK
6
CONTINUOUS
10
65.2881
20
-119.545
11
65.3833
21
-119.736
0
LINE
8
BLACK
6
CONTINUOUS
10
65.3833
20
-119.736
11
65.4786
21
-120.117
0
LINE
8
BLACK
6
CONTINUOUS
10
65.4786
20
-120.117
11
65.4786
21
-120.593
0
LINE
8
BLACK
6
CONTINUOUS
10
65.4786
20
-120.593
11
65.3833
21
-120.974
0
LINE
8
BLACK
6
CONTINUOUS
10
65.3833
20
-120.974
11
65.2881
21
-121.164
0
LINE
8
BLACK
6
CONTINUOUS
10
65.2881
20
-121.164
11
65.1929
21
-121.26
0
LINE
8
BLACK
6
CONTINUOUS
10
65.1929
20
-121.26
11
65.0024
21
-121.355
0
LINE
8
BLACK
6
CONTINUOUS
10
65.0024
20
-121.355
11
64.8119
21
-121.355
0
LINE
8
BLACK
6
CONTINUOUS
10
64.8119
20
-121.355
11
64.6214
21
-121.26
0
LINE
8
BLACK
6
CONTINUOUS
10
64.6214
20
-121.26
11
64.5262
21
-121.164
0
LINE
8
BLACK
6
CONTINUOUS
10
64.5262
20
-121.164
11
64.431
21
-120.974
0
LINE
8
BLACK
6
CONTINUOUS
10
64.431
20
-120.974
11
64.3357
21
-120.593
0
LINE
8
BLACK
6
CONTINUOUS
10
64.3357
20
-120.593
11
64.3357
21
-120.117
0
LINE
8
BLACK
6
CONTINUOUS
10
64.3357
20
-120.117
11
64.431
21
-119.736
0
LINE
8
BLACK
6
CONTINUOUS
10
64.431
20
-119.736
11
64.5262
21
-119.545
0
LINE
8
BLACK
6
CONTINUOUS
10
64.5262
20
-119.545
11
64.6214
21
-119.45
0
LINE
8
BLACK
6
CONTINUOUS
10
64.6214
20
-119.45
11
64.8119
21
-119.355
0
LINE
8
BLACK
6
CONTINUOUS
10
66.1452
20
-119.355
11
67.3833
21
-119.355
0
LINE
8
BLACK
6
CONTINUOUS
10
67.3833
20
-119.355
11
66.7167
21
-120.117
0
LINE
8
BLACK
6
CONTINUOUS
10
66.7167
20
-120.117
11
67.0024
21
-120.117
0
LINE
8
BLACK
6
CONTINUOUS
10
67.0024
20
-120.117
11
67.1929
21
-120.212
0
LINE
8
BLACK
6
CONTINUOUS
10
67.1929
20
-120.212
11
67.2881
21
-120.307
0
LINE
8
BLACK
6
CONTINUOUS
10
67.2881
20
-120.307
11
67.3833
21
-120.498
0
LINE
8
BLACK
6
CONTINUOUS
10
67.3833
20
-120.498
11
67.3833
21
-120.974
0
LINE
8
BLACK
6
CONTINUOUS
10
67.3833
20
-120.974
11
67.2881
21
-121.164
0
LINE
8
BLACK
6
CONTINUOUS
10
67.2881
20
-121.164
11
67.1929
21
-121.26
0
LINE
8
BLACK
6
CONTINUOUS
10
67.1929
20
-121.26
11
67.0024
21
-121.355
0
LINE
8
BLACK
6
CONTINUOUS
10
67.0024
20
-121.355
11
66.431
21
-121.355
0
LINE
8
BLACK
6
CONTINUOUS
10
66.431
20
-121.355
11
66.2405
21
-121.26
0
LINE
8
BLACK
6
CONTINUOUS
10
66.2405
20
-121.26
11
66.1452
21
-121.164
0
LINE
8
BLACK
6
CONTINUOUS
10
69.2881
20
-121.355
11
68.1452
21
-121.355
0
LINE
8
BLACK
6
CONTINUOUS
10
68.7167
20
-121.355
11
68.7167
21
-119.355
0
LINE
8
BLACK
6
CONTINUOUS
10
68.7167
20
-119.355
11
68.5262
21
-119.64
0
LINE
8
BLACK
6
CONTINUOUS
10
68.5262
20
-119.64
11
68.3357
21
-119.831
0
LINE
8
BLACK
6
CONTINUOUS
10
68.3357
20
-119.831
11
68.1452
21
-119.926
0
LINE
8
BLACK
6
CONTINUOUS
10
71.0976
20
-119.355
11
70.1452
21
-119.355
0
LINE
8
BLACK
6
CONTINUOUS
10
70.1452
20
-119.355
11
70.05
21
-120.307
0
LINE
8
BLACK
6
CONTINUOUS
10
70.05
20
-120.307
11
70.1452
21
-120.212
0
LINE
8
BLACK
6
CONTINUOUS
10
70.1452
20
-120.212
11
70.3357
21
-120.117
0
LINE
8
BLACK
6
CONTINUOUS
10
70.3357
20
-120.117
11
70.8119
21
-120.117
0
LINE
8
BLACK
6
CONTINUOUS
10
70.8119
20
-120.117
11
71.0024
21
-120.212
0
LINE
8
BLACK
6
CONTINUOUS
10
71.0024
20
-120.212
11
71.0976
21
-120.307
0
LINE
8
BLACK
6
CONTINUOUS
10
71.0976
20
-120.307
11
71.1929
21
-120.498
0
LINE
8
BLACK
6
CONTINUOUS
10
71.1929
20
-120.498
11
71.1929
21
-120.974
0
LINE
8
BLACK
6
CONTINUOUS
10
71.1929
20
-120.974
11
71.0976
21
-121.164
0
LINE
8
BLACK
6
CONTINUOUS
10
71.0976
20
-121.164
11
71.0024
21
-121.26
0
LINE
8
BLACK
6
CONTINUOUS
10
71.0024
20
-121.26
11
70.8119
21
-121.355
0
LINE
8
BLACK
6
CONTINUOUS
10
70.8119
20
-121.355
11
70.3357
21
-121.355
0
LINE
8
BLACK
6
CONTINUOUS
10
70.3357
20
-121.355
11
70.1452
21
-121.26
0
LINE
8
BLACK
6
CONTINUOUS
10
70.1452
20
-121.26
11
70.05
21
-121.164
0
LINE
8
BLACK
6
CONTINUOUS
10
71.9548
20
-119.355
11
71.9548
21
-119.736
0
LINE
8
BLACK
6
CONTINUOUS
10
72.7167
20
-119.355
11
72.7167
21
-119.736
0
LINE
8
BLACK
6
CONTINUOUS
10
75.669
20
-122.117
11
75.5738
21
-122.021
0
LINE
8
BLACK
6
CONTINUOUS
10
75.5738
20
-122.021
11
75.3833
21
-121.736
0
LINE
8
BLACK
6
CONTINUOUS
10
75.3833
20
-121.736
11
75.2881
21
-121.545
0
LINE
8
BLACK
6
CONTINUOUS
10
75.2881
20
-121.545
11
75.1929
21
-121.26
0
LINE
8
BLACK
6
CONTINUOUS
10
75.1929
20
-121.26
11
75.0976
21
-120.783
0
LINE
8
BLACK
6
CONTINUOUS
10
75.0976
20
-120.783
11
75.0976
21
-120.402
0
LINE
8
BLACK
6
CONTINUOUS
10
75.0976
20
-120.402
11
75.1929
21
-119.926
0
LINE
8
BLACK
6
CONTINUOUS
10
75.1929
20
-119.926
11
75.2881
21
-119.64
0
LINE
8
BLACK
6
CONTINUOUS
10
75.2881
20
-119.64
11
75.3833
21
-119.45
0
LINE
8
BLACK
6
CONTINUOUS
10
75.3833
20
-119.45
11
75.5738
21
-119.164
0
LINE
8
BLACK
6
CONTINUOUS
10
75.5738
20
-119.164
11
75.669
21
-119.069
0
LINE
8
BLACK
6
CONTINUOUS
10
77.2881
20
-120.021
11
77.2881
21
-121.355
0
LINE
8
BLACK
6
CONTINUOUS
10
76.8119
20
-119.26
11
76.3357
21
-120.688
0
LINE
8
BLACK
6
CONTINUOUS
10
76.3357
20
-120.688
11
77.5738
21
-120.688
0
LINE
8
BLACK
6
CONTINUOUS
10
79.8595
20
-121.355
11
79.8595
21
-119.355
0
LINE
8
BLACK
6
CONTINUOUS
10
80.7167
20
-121.355
11
80.7167
21
-120.307
0
LINE
8
BLACK
6
CONTINUOUS
10
80.7167
20
-120.307
11
80.6214
21
-120.117
0
LINE
8
BLACK
6
CONTINUOUS
10
80.6214
20
-120.117
11
80.431
21
-120.021
0
LINE
8
BLACK
6
CONTINUOUS
10
80.431
20
-120.021
11
80.1452
21
-120.021
0
LINE
8
BLACK
6
CONTINUOUS
10
80.1452
20
-120.021
11
79.9548
21
-120.117
0
LINE
8
BLACK
6
CONTINUOUS
10
79.9548
20
-120.117
11
79.8595
21
-120.212
0
LINE
8
BLACK
6
CONTINUOUS
10
81.9548
20
-121.355
11
81.7643
21
-121.26
0
LINE
8
BLACK
6
CONTINUOUS
10
81.7643
20
-121.26
11
81.669
21
-121.164
0
LINE
8
BLACK
6
CONTINUOUS
10
81.669
20
-121.164
11
81.5738
21
-120.974
0
LINE
8
BLACK
6
CONTINUOUS
10
81.5738
20
-120.974
11
81.5738
21
-120.402
0
LINE
8
BLACK
6
CONTINUOUS
10
81.5738
20
-120.402
11
81.669
21
-120.212
0
LINE
8
BLACK
6
CONTINUOUS
10
81.669
20
-120.212
11
81.7643
21
-120.117
0
LINE
8
BLACK
6
CONTINUOUS
10
81.7643
20
-120.117
11
81.9548
21
-120.021
0
LINE
8
BLACK
6
CONTINUOUS
10
81.9548
20
-120.021
11
82.2405
21
-120.021
0
LINE
8
BLACK
6
CONTINUOUS
10
82.2405
20
-120.021
11
82.431
21
-120.117
0
LINE
8
BLACK
6
CONTINUOUS
10
82.431
20
-120.117
11
82.5262
21
-120.212
0
LINE
8
BLACK
6
CONTINUOUS
10
82.5262
20
-120.212
11
82.6214
21
-120.402
0
LINE
8
BLACK
6
CONTINUOUS
10
82.6214
20
-120.402
11
82.6214
21
-120.974
0
LINE
8
BLACK
6
CONTINUOUS
10
82.6214
20
-120.974
11
82.5262
21
-121.164
0
LINE
8
BLACK
6
CONTINUOUS
10
82.5262
20
-121.164
11
82.431
21
-121.26
0
LINE
8
BLACK
6
CONTINUOUS
10
82.431
20
-121.26
11
82.2405
21
-121.355
0
LINE
8
BLACK
6
CONTINUOUS
10
82.2405
20
-121.355
11
81.9548
21
-121.355
0
LINE
8
BLACK
6
CONTINUOUS
10
83.7643
20
-121.355
11
83.5738
21
-121.26
0
LINE
8
BLACK
6
CONTINUOUS
10
83.5738
20
-121.26
11
83.4786
21
-121.069
0
LINE
8
BLACK
6
CONTINUOUS
10
83.4786
20
-121.069
11
83.4786
21
-119.355
0
LINE
8
BLACK
6
CONTINUOUS
10
85.2881
20
-121.26
11
85.0976
21
-121.355
0
LINE
8
BLACK
6
CONTINUOUS
10
85.0976
20
-121.355
11
84.7167
21
-121.355
0
LINE
8
BLACK
6
CONTINUOUS
10
84.7167
20
-121.355
11
84.5262
21
-121.26
0
LINE
8
BLACK
6
CONTINUOUS
10
84.5262
20
-121.26
11
84.431
21
-121.069
0
LINE
8
BLACK
6
CONTINUOUS
10
84.431
20
-121.069
11
84.431
21
-120.307
0
LINE
8
BLACK
6
CONTINUOUS
10
84.431
20
-120.307
11
84.5262
21
-120.117
0
LINE
8
BLACK
6
CONTINUOUS
10
84.5262
20
-120.117
11
84.7167
21
-120.021
0
LINE
8
BLACK
6
CONTINUOUS
10
84.7167
20
-120.021
11
85.0976
21
-120.021
0
LINE
8
BLACK
6
CONTINUOUS
10
85.0976
20
-120.021
11
85.2881
21
-120.117
0
LINE
8
BLACK
6
CONTINUOUS
10
85.2881
20
-120.117
11
85.3833
21
-120.307
0
LINE
8
BLACK
6
CONTINUOUS
10
85.3833
20
-120.307
11
85.3833
21
-120.498
0
LINE
8
BLACK
6
CONTINUOUS
10
85.3833
20
-120.498
11
84.431
21
-120.688
0
LINE
8
BLACK
6
CONTINUOUS
10
86.1452
20
-121.26
11
86.3357
21
-121.355
0
LINE
8
BLACK
6
CONTINUOUS
10
86.3357
20
-121.355
11
86.7167
21
-121.355
0
LINE
8
BLACK
6
CONTINUOUS
10
86.7167
20
-121.355
11
86.9071
21
-121.26
0
LINE
8
BLACK
6
CONTINUOUS
10
86.9071
20
-121.26
11
87.0024
21
-121.069
0
LINE
8
BLACK
6
CONTINUOUS
10
87.0024
20
-121.069
11
87.0024
21
-120.974
0
LINE
8
BLACK
6
CONTINUOUS
10
87.0024
20
-120.974
11
86.9071
21
-120.783
0
LINE
8
BLACK
6
CONTINUOUS
10
86.9071
20
-120.783
11
86.7167
21
-120.688
0
LINE
8
BLACK
6
CONTINUOUS
10
86.7167
20
-120.688
11
86.431
21
-120.688
0
LINE
8
BLACK
6
CONTINUOUS
10
86.431
20
-120.688
11
86.2405
21
-120.593
0
LINE
8
BLACK
6
CONTINUOUS
10
86.2405
20
-120.593
11
86.1452
21
-120.402
0
LINE
8
BLACK
6
CONTINUOUS
10
86.1452
20
-120.402
11
86.1452
21
-120.307
0
LINE
8
BLACK
6
CONTINUOUS
10
86.1452
20
-120.307
11
86.2405
21
-120.117
0
LINE
8
BLACK
6
CONTINUOUS
10
86.2405
20
-120.117
11
86.431
21
-120.021
0
LINE
8
BLACK
6
CONTINUOUS
10
86.431
20
-120.021
11
86.7167
21
-120.021
0
LINE
8
BLACK
6
CONTINUOUS
10
86.7167
20
-120.021
11
86.9071
21
-120.117
0
LINE
8
BLACK
6
CONTINUOUS
10
87.669
20
-122.117
11
87.7643
21
-122.021
0
LINE
8
BLACK
6
CONTINUOUS
10
87.7643
20
-122.021
11
87.9548
21
-121.736
0
LINE
8
BLACK
6
CONTINUOUS
10
87.9548
20
-121.736
11
88.05
21
-121.545
0
LINE
8
BLACK
6
CONTINUOUS
10
88.05
20
-121.545
11
88.1452
21
-121.26
0
LINE
8
BLACK
6
CONTINUOUS
10
88.1452
20
-121.26
11
88.2405
21
-120.783
0
LINE
8
BLACK
6
CONTINUOUS
10
88.2405
20
-120.783
11
88.2405
21
-120.402
0
LINE
8
BLACK
6
CONTINUOUS
10
88.2405
20
-120.402
11
88.1452
21
-119.926
0
LINE
8
BLACK
6
CONTINUOUS
10
88.1452
20
-119.926
11
88.05
21
-119.64
0
LINE
8
BLACK
6
CONTINUOUS
10
88.05
20
-119.64
11
87.9548
21
-119.45
0
LINE
8
BLACK
6
CONTINUOUS
10
87.9548
20
-119.45
11
87.7643
21
-119.164
0
LINE
8
BLACK
6
CONTINUOUS
10
87.7643
20
-119.164
11
87.669
21
-119.069
0
CIRCLE
8
BLACK
10
39.45
20
-123.09
40
0.5
0
LINE
8
BLACK
6
CONTINUOUS
10
43.5738
20
-123.995
11
42.431
21
-123.995
0
LINE
8
BLACK
6
CONTINUOUS
10
43.0024
20
-123.995
11
43.0024
21
-121.995
0
LINE
8
BLACK
6
CONTINUOUS
10
43.0024
20
-121.995
11
42.8119
21
-122.28
0
LINE
8
BLACK
6
CONTINUOUS
10
42.8119
20
-122.28
11
42.6214
21
-122.471
0
LINE
8
BLACK
6
CONTINUOUS
10
42.6214
20
-122.471
11
42.431
21
-122.566
0
LINE
8
BLACK
6
CONTINUOUS
10
44.431
20
-123.804
11
44.5262
21
-123.9
0
LINE
8
BLACK
6
CONTINUOUS
10
44.5262
20
-123.9
11
44.431
21
-123.995
0
LINE
8
BLACK
6
CONTINUOUS
10
44.431
20
-123.995
11
44.3357
21
-123.9
0
LINE
8
BLACK
6
CONTINUOUS
10
44.3357
20
-123.9
11
44.431
21
-123.804
0
LINE
8
BLACK
6
CONTINUOUS
10
44.431
20
-123.804
11
44.431
21
-123.995
0
LINE
8
BLACK
6
CONTINUOUS
10
45.7643
20
-121.995
11
45.9548
21
-121.995
0
LINE
8
BLACK
6
CONTINUOUS
10
45.9548
20
-121.995
11
46.1452
21
-122.09
0
LINE
8
BLACK
6
CONTINUOUS
10
46.1452
20
-122.09
11
46.2405
21
-122.185
0
LINE
8
BLACK
6
CONTINUOUS
10
46.2405
20
-122.185
11
46.3357
21
-122.376
0
LINE
8
BLACK
6
CONTINUOUS
10
46.3357
20
-122.376
11
46.431
21
-122.757
0
LINE
8
BLACK
6
CONTINUOUS
10
46.431
20
-122.757
11
46.431
21
-123.233
0
LINE
8
BLACK
6
CONTINUOUS
10
46.431
20
-123.233
11
46.3357
21
-123.614
0
LINE
8
BLACK
6
CONTINUOUS
10
46.3357
20
-123.614
11
46.2405
21
-123.804
0
LINE
8
BLACK
6
CONTINUOUS
10
46.2405
20
-123.804
11
46.1452
21
-123.9
0
LINE
8
BLACK
6
CONTINUOUS
10
46.1452
20
-123.9
11
45.9548
21
-123.995
0
LINE
8
BLACK
6
CONTINUOUS
10
45.9548
20
-123.995
11
45.7643
21
-123.995
0
LINE
8
BLACK
6
CONTINUOUS
10
45.7643
20
-123.995
11
45.5738
21
-123.9
0
LINE
8
BLACK
6
CONTINUOUS
10
45.5738
20
-123.9
11
45.4786
21
-123.804
0
LINE
8
BLACK
6
CONTINUOUS
10
45.4786
20
-123.804
11
45.3833
21
-123.614
0
LINE
8
BLACK
6
CONTINUOUS
10
45.3833
20
-123.614
11
45.2881
21
-123.233
0
LINE
8
BLACK
6
CONTINUOUS
10
45.2881
20
-123.233
11
45.2881
21
-122.757
0
LINE
8
BLACK
6
CONTINUOUS
10
45.2881
20
-122.757
11
45.3833
21
-122.376
0
LINE
8
BLACK
6
CONTINUOUS
10
45.3833
20
-122.376
11
45.4786
21
-122.185
0
LINE
8
BLACK
6
CONTINUOUS
10
45.4786
20
-122.185
11
45.5738
21
-122.09
0
LINE
8
BLACK
6
CONTINUOUS
10
45.5738
20
-122.09
11
45.7643
21
-121.995
0
LINE
8
BLACK
6
CONTINUOUS
10
47.669
20
-121.995
11
47.8595
21
-121.995
0
LINE
8
BLACK
6
CONTINUOUS
10
47.8595
20
-121.995
11
48.05
21
-122.09
0
LINE
8
BLACK
6
CONTINUOUS
10
48.05
20
-122.09
11
48.1452
21
-122.185
0
LINE
8
BLACK
6
CONTINUOUS
10
48.1452
20
-122.185
11
48.2405
21
-122.376
0
LINE
8
BLACK
6
CONTINUOUS
10
48.2405
20
-122.376
11
48.3357
21
-122.757
0
LINE
8
BLACK
6
CONTINUOUS
10
48.3357
20
-122.757
11
48.3357
21
-123.233
0
LINE
8
BLACK
6
CONTINUOUS
10
48.3357
20
-123.233
11
48.2405
21
-123.614
0
LINE
8
BLACK
6
CONTINUOUS
10
48.2405
20
-123.614
11
48.1452
21
-123.804
0
LINE
8
BLACK
6
CONTINUOUS
10
48.1452
20
-123.804
11
48.05
21
-123.9
0
LINE
8
BLACK
6
CONTINUOUS
10
48.05
20
-123.9
11
47.8595
21
-123.995
0
LINE
8
BLACK
6
CONTINUOUS
10
47.8595
20
-123.995
11
47.669
21
-123.995
0
LINE
8
BLACK
6
CONTINUOUS
10
47.669
20
-123.995
11
47.4786
21
-123.9
0
LINE
8
BLACK
6
CONTINUOUS
10
47.4786
20
-123.9
11
47.3833
21
-123.804
0
LINE
8
BLACK
6
CONTINUOUS
10
47.3833
20
-123.804
11
47.2881
21
-123.614
0
LINE
8
BLACK
6
CONTINUOUS
10
47.2881
20
-123.614
11
47.1929
21
-123.233
0
LINE
8
BLACK
6
CONTINUOUS
10
47.1929
20
-123.233
11
47.1929
21
-122.757
0
LINE
8
BLACK
6
CONTINUOUS
10
47.1929
20
-122.757
11
47.2881
21
-122.376
0
LINE
8
BLACK
6
CONTINUOUS
10
47.2881
20
-122.376
11
47.3833
21
-122.185
0
LINE
8
BLACK
6
CONTINUOUS
10
47.3833
20
-122.185
11
47.4786
21
-122.09
0
LINE
8
BLACK
6
CONTINUOUS
10
47.4786
20
-122.09
11
47.669
21
-121.995
0
LINE
8
BLACK
6
CONTINUOUS
10
49.5738
20
-121.995
11
49.7643
21
-121.995
0
LINE
8
BLACK
6
CONTINUOUS
10
49.7643
20
-121.995
11
49.9548
21
-122.09
0
LINE
8
BLACK
6
CONTINUOUS
10
49.9548
20
-122.09
11
50.05
21
-122.185
0
LINE
8
BLACK
6
CONTINUOUS
10
50.05
20
-122.185
11
50.1452
21
-122.376
0
LINE
8
BLACK
6
CONTINUOUS
10
50.1452
20
-122.376
11
50.2405
21
-122.757
0
LINE
8
BLACK
6
CONTINUOUS
10
50.2405
20
-122.757
11
50.2405
21
-123.233
0
LINE
8
BLACK
6
CONTINUOUS
10
50.2405
20
-123.233
11
50.1452
21
-123.614
0
LINE
8
BLACK
6
CONTINUOUS
10
50.1452
20
-123.614
11
50.05
21
-123.804
0
LINE
8
BLACK
6
CONTINUOUS
10
50.05
20
-123.804
11
49.9548
21
-123.9
0
LINE
8
BLACK
6
CONTINUOUS
10
49.9548
20
-123.9
11
49.7643
21
-123.995
0
LINE
8
BLACK
6
CONTINUOUS
10
49.7643
20
-123.995
11
49.5738
21
-123.995
0
LINE
8
BLACK
6
CONTINUOUS
10
49.5738
20
-123.995
11
49.3833
21
-123.9
0
LINE
8
BLACK
6
CONTINUOUS
10
49.3833
20
-123.9
11
49.2881
21
-123.804
0
LINE
8
BLACK
6
CONTINUOUS
10
49.2881
20
-123.804
11
49.1929
21
-123.614
0
LINE
8
BLACK
6
CONTINUOUS
10
49.1929
20
-123.614
11
49.0976
21
-123.233
0
LINE
8
BLACK
6
CONTINUOUS
10
49.0976
20
-123.233
11
49.0976
21
-122.757
0
LINE
8
BLACK
6
CONTINUOUS
10
49.0976
20
-122.757
11
49.1929
21
-122.376
0
LINE
8
BLACK
6
CONTINUOUS
10
49.1929
20
-122.376
11
49.2881
21
-122.185
0
LINE
8
BLACK
6
CONTINUOUS
10
49.2881
20
-122.185
11
49.3833
21
-122.09
0
LINE
8
BLACK
6
CONTINUOUS
10
49.3833
20
-122.09
11
49.5738
21
-121.995
0
LINE
8
BLACK
6
CONTINUOUS
10
51.0976
20
-123.995
11
51.0976
21
-122.661
0
LINE
8
BLACK
6
CONTINUOUS
10
51.0976
20
-122.852
11
51.1929
21
-122.757
0
LINE
8
BLACK
6
CONTINUOUS
10
51.1929
20
-122.757
11
51.3833
21
-122.661
0
LINE
8
BLACK
6
CONTINUOUS
10
51.3833
20
-122.661
11
51.669
21
-122.661
0
LINE
8
BLACK
6
CONTINUOUS
10
51.669
20
-122.661
11
51.8595
21
-122.757
0
LINE
8
BLACK
6
CONTINUOUS
10
51.8595
20
-122.757
11
51.9548
21
-122.947
0
LINE
8
BLACK
6
CONTINUOUS
10
51.9548
20
-122.947
11
51.9548
21
-123.995
0
LINE
8
BLACK
6
CONTINUOUS
10
51.9548
20
-122.947
11
52.05
21
-122.757
0
LINE
8
BLACK
6
CONTINUOUS
10
52.05
20
-122.757
11
52.2405
21
-122.661
0
LINE
8
BLACK
6
CONTINUOUS
10
52.2405
20
-122.661
11
52.5262
21
-122.661
0
LINE
8
BLACK
6
CONTINUOUS
10
52.5262
20
-122.661
11
52.7167
21
-122.757
0
LINE
8
BLACK
6
CONTINUOUS
10
52.7167
20
-122.757
11
52.8119
21
-122.947
0
LINE
8
BLACK
6
CONTINUOUS
10
52.8119
20
-122.947
11
52.8119
21
-123.995
0
LINE
8
BLACK
6
CONTINUOUS
10
53.7643
20
-123.995
11
53.7643
21
-122.661
0
LINE
8
BLACK
6
CONTINUOUS
10
53.7643
20
-122.852
11
53.8595
21
-122.757
0
LINE
8
BLACK
6
CONTINUOUS
10
53.8595
20
-122.757
11
54.05
21
-122.661
0
LINE
8
BLACK
6
CONTINUOUS
10
54.05
20
-122.661
11
54.3357
21
-122.661
0
LINE
8
BLACK
6
CONTINUOUS
10
54.3357
20
-122.661
11
54.5262
21
-122.757
0
LINE
8
BLACK
6
CONTINUOUS
10
54.5262
20
-122.757
11
54.6214
21
-122.947
0
LINE
8
BLACK
6
CONTINUOUS
10
54.6214
20
-122.947
11
54.6214
21
-123.995
0
LINE
8
BLACK
6
CONTINUOUS
10
54.6214
20
-122.947
11
54.7167
21
-122.757
0
LINE
8
BLACK
6
CONTINUOUS
10
54.7167
20
-122.757
11
54.9071
21
-122.661
0
LINE
8
BLACK
6
CONTINUOUS
10
54.9071
20
-122.661
11
55.1929
21
-122.661
0
LINE
8
BLACK
6
CONTINUOUS
10
55.1929
20
-122.661
11
55.3833
21
-122.757
0
LINE
8
BLACK
6
CONTINUOUS
10
55.3833
20
-122.757
11
55.4786
21
-122.947
0
LINE
8
BLACK
6
CONTINUOUS
10
55.4786
20
-122.947
11
55.4786
21
-123.995
0
LINE
8
BLACK
6
CONTINUOUS
10
59.3833
20
-121.9
11
57.669
21
-124.471
0
LINE
8
BLACK
6
CONTINUOUS
10
61.9548
20
-121.995
11
62.1452
21
-121.995
0
LINE
8
BLACK
6
CONTINUOUS
10
62.1452
20
-121.995
11
62.3357
21
-122.09
0
LINE
8
BLACK
6
CONTINUOUS
10
62.3357
20
-122.09
11
62.431
21
-122.185
0
LINE
8
BLACK
6
CONTINUOUS
10
62.431
20
-122.185
11
62.5262
21
-122.376
0
LINE
8
BLACK
6
CONTINUOUS
10
62.5262
20
-122.376
11
62.6214
21
-122.757
0
LINE
8
BLACK
6
CONTINUOUS
10
62.6214
20
-122.757
11
62.6214
21
-123.233
0
LINE
8
BLACK
6
CONTINUOUS
10
62.6214
20
-123.233
11
62.5262
21
-123.614
0
LINE
8
BLACK
6
CONTINUOUS
10
62.5262
20
-123.614
11
62.431
21
-123.804
0
LINE
8
BLACK
6
CONTINUOUS
10
62.431
20
-123.804
11
62.3357
21
-123.9
0
LINE
8
BLACK
6
CONTINUOUS
10
62.3357
20
-123.9
11
62.1452
21
-123.995
0
LINE
8
BLACK
6
CONTINUOUS
10
62.1452
20
-123.995
11
61.9548
21
-123.995
0
LINE
8
BLACK
6
CONTINUOUS
10
61.9548
20
-123.995
11
61.7643
21
-123.9
0
LINE
8
BLACK
6
CONTINUOUS
10
61.7643
20
-123.9
11
61.669
21
-123.804
0
LINE
8
BLACK
6
CONTINUOUS
10
61.669
20
-123.804
11
61.5738
21
-123.614
0
LINE
8
BLACK
6
CONTINUOUS
10
61.5738
20
-123.614
11
61.4786
21
-123.233
0
LINE
8
BLACK
6
CONTINUOUS
10
61.4786
20
-123.233
11
61.4786
21
-122.757
0
LINE
8
BLACK
6
CONTINUOUS
10
61.4786
20
-122.757
11
61.5738
21
-122.376
0
LINE
8
BLACK
6
CONTINUOUS
10
61.5738
20
-122.376
11
61.669
21
-122.185
0
LINE
8
BLACK
6
CONTINUOUS
10
61.669
20
-122.185
11
61.7643
21
-122.09
0
LINE
8
BLACK
6
CONTINUOUS
10
61.7643
20
-122.09
11
61.9548
21
-121.995
0
LINE
8
BLACK
6
CONTINUOUS
10
63.4786
20
-123.804
11
63.5738
21
-123.9
0
LINE
8
BLACK
6
CONTINUOUS
10
63.5738
20
-123.9
11
63.4786
21
-123.995
0
LINE
8
BLACK
6
CONTINUOUS
10
63.4786
20
-123.995
11
63.3833
21
-123.9
0
LINE
8
BLACK
6
CONTINUOUS
10
63.3833
20
-123.9
11
63.4786
21
-123.804
0
LINE
8
BLACK
6
CONTINUOUS
10
63.4786
20
-123.804
11
63.4786
21
-123.995
0
LINE
8
BLACK
6
CONTINUOUS
10
64.8119
20
-121.995
11
65.0024
21
-121.995
0
LINE
8
BLACK
6
CONTINUOUS
10
65.0024
20
-121.995
11
65.1929
21
-122.09
0
LINE
8
BLACK
6
CONTINUOUS
10
65.1929
20
-122.09
11
65.2881
21
-122.185
0
LINE
8
BLACK
6
CONTINUOUS
10
65.2881
20
-122.185
11
65.3833
21
-122.376
0
LINE
8
BLACK
6
CONTINUOUS
10
65.3833
20
-122.376
11
65.4786
21
-122.757
0
LINE
8
BLACK
6
CONTINUOUS
10
65.4786
20
-122.757
11
65.4786
21
-123.233
0
LINE
8
BLACK
6
CONTINUOUS
10
65.4786
20
-123.233
11
65.3833
21
-123.614
0
LINE
8
BLACK
6
CONTINUOUS
10
65.3833
20
-123.614
11
65.2881
21
-123.804
0
LINE
8
BLACK
6
CONTINUOUS
10
65.2881
20
-123.804
11
65.1929
21
-123.9
0
LINE
8
BLACK
6
CONTINUOUS
10
65.1929
20
-123.9
11
65.0024
21
-123.995
0
LINE
8
BLACK
6
CONTINUOUS
10
65.0024
20
-123.995
11
64.8119
21
-123.995
0
LINE
8
BLACK
6
CONTINUOUS
10
64.8119
20
-123.995
11
64.6214
21
-123.9
0
LINE
8
BLACK
6
CONTINUOUS
10
64.6214
20
-123.9
11
64.5262
21
-123.804
0
LINE
8
BLACK
6
CONTINUOUS
10
64.5262
20
-123.804
11
64.431
21
-123.614
0
LINE
8
BLACK
6
CONTINUOUS
10
64.431
20
-123.614
11
64.3357
21
-123.233
0
LINE
8
BLACK
6
CONTINUOUS
10
64.3357
20
-123.233
11
64.3357
21
-122.757
0
LINE
8
BLACK
6
CONTINUOUS
10
64.3357
20
-122.757
11
64.431
21
-122.376
0
LINE
8
BLACK
6
CONTINUOUS
10
64.431
20
-122.376
11
64.5262
21
-122.185
0
LINE
8
BLACK
6
CONTINUOUS
10
64.5262
20
-122.185
11
64.6214
21
-122.09
0
LINE
8
BLACK
6
CONTINUOUS
10
64.6214
20
-122.09
11
64.8119
21
-121.995
0
LINE
8
BLACK
6
CONTINUOUS
10
66.1452
20
-121.995
11
67.3833
21
-121.995
0
LINE
8
BLACK
6
CONTINUOUS
10
67.3833
20
-121.995
11
66.7167
21
-122.757
0
LINE
8
BLACK
6
CONTINUOUS
10
66.7167
20
-122.757
11
67.0024
21
-122.757
0
LINE
8
BLACK
6
CONTINUOUS
10
67.0024
20
-122.757
11
67.1929
21
-122.852
0
LINE
8
BLACK
6
CONTINUOUS
10
67.1929
20
-122.852
11
67.2881
21
-122.947
0
LINE
8
BLACK
6
CONTINUOUS
10
67.2881
20
-122.947
11
67.3833
21
-123.138
0
LINE
8
BLACK
6
CONTINUOUS
10
67.3833
20
-123.138
11
67.3833
21
-123.614
0
LINE
8
BLACK
6
CONTINUOUS
10
67.3833
20
-123.614
11
67.2881
21
-123.804
0
LINE
8
BLACK
6
CONTINUOUS
10
67.2881
20
-123.804
11
67.1929
21
-123.9
0
LINE
8
BLACK
6
CONTINUOUS
10
67.1929
20
-123.9
11
67.0024
21
-123.995
0
LINE
8
BLACK
6
CONTINUOUS
10
67.0024
20
-123.995
11
66.431
21
-123.995
0
LINE
8
BLACK
6
CONTINUOUS
10
66.431
20
-123.995
11
66.2405
21
-123.9
0
LINE
8
BLACK
6
CONTINUOUS
10
66.2405
20
-123.9
11
66.1452
21
-123.804
0
LINE
8
BLACK
6
CONTINUOUS
10
68.3357
20
-123.995
11
68.7167
21
-123.995
0
LINE
8
BLACK
6
CONTINUOUS
10
68.7167
20
-123.995
11
68.9071
21
-123.9
0
LINE
8
BLACK
6
CONTINUOUS
10
68.9071
20
-123.9
11
69.0024
21
-123.804
0
LINE
8
BLACK
6
CONTINUOUS
10
69.0024
20
-123.804
11
69.1929
21
-123.519
0
LINE
8
BLACK
6
CONTINUOUS
10
69.1929
20
-123.519
11
69.2881
21
-123.138
0
LINE
8
BLACK
6
CONTINUOUS
10
69.2881
20
-123.138
11
69.2881
21
-122.376
0
LINE
8
BLACK
6
CONTINUOUS
10
69.2881
20
-122.376
11
69.1929
21
-122.185
0
LINE
8
BLACK
6
CONTINUOUS
10
69.1929
20
-122.185
11
69.0976
21
-122.09
0
LINE
8
BLACK
6
CONTINUOUS
10
69.0976
20
-122.09
11
68.9071
21
-121.995
0
LINE
8
BLACK
6
CONTINUOUS
10
68.9071
20
-121.995
11
68.5262
21
-121.995
0
LINE
8
BLACK
6
CONTINUOUS
10
68.5262
20
-121.995
11
68.3357
21
-122.09
0
LINE
8
BLACK
6
CONTINUOUS
10
68.3357
20
-122.09
11
68.2405
21
-122.185
0
LINE
8
BLACK
6
CONTINUOUS
10
68.2405
20
-122.185
11
68.1452
21
-122.376
0
LINE
8
BLACK
6
CONTINUOUS
10
68.1452
20
-122.376
11
68.1452
21
-122.852
0
LINE
8
BLACK
6
CONTINUOUS
10
68.1452
20
-122.852
11
68.2405
21
-123.042
0
LINE
8
BLACK
6
CONTINUOUS
10
68.2405
20
-123.042
11
68.3357
21
-123.138
0
LINE
8
BLACK
6
CONTINUOUS
10
68.3357
20
-123.138
11
68.5262
21
-123.233
0
LINE
8
BLACK
6
CONTINUOUS
10
68.5262
20
-123.233
11
68.9071
21
-123.233
0
LINE
8
BLACK
6
CONTINUOUS
10
68.9071
20
-123.233
11
69.0976
21
-123.138
0
LINE
8
BLACK
6
CONTINUOUS
10
69.0976
20
-123.138
11
69.1929
21
-123.042
0
LINE
8
BLACK
6
CONTINUOUS
10
69.1929
20
-123.042
11
69.2881
21
-122.852
0
LINE
8
BLACK
6
CONTINUOUS
10
71.0024
20
-122.661
11
71.0024
21
-123.995
0
LINE
8
BLACK
6
CONTINUOUS
10
70.5262
20
-121.9
11
70.05
21
-123.328
0
LINE
8
BLACK
6
CONTINUOUS
10
70.05
20
-123.328
11
71.2881
21
-123.328
0
LINE
8
BLACK
6
CONTINUOUS
10
71.9548
20
-121.995
11
71.9548
21
-122.376
0
LINE
8
BLACK
6
CONTINUOUS
10
72.7167
20
-121.995
11
72.7167
21
-122.376
0
LINE
8
BLACK
6
CONTINUOUS
10
75.669
20
-124.757
11
75.5738
21
-124.661
0
LINE
8
BLACK
6
CONTINUOUS
10
75.5738
20
-124.661
11
75.3833
21
-124.376
0
LINE
8
BLACK
6
CONTINUOUS
10
75.3833
20
-124.376
11
75.2881
21
-124.185
0
LINE
8
BLACK
6
CONTINUOUS
10
75.2881
20
-124.185
11
75.1929
21
-123.9
0
LINE
8
BLACK
6
CONTINUOUS
10
75.1929
20
-123.9
11
75.0976
21
-123.423
0
LINE
8
BLACK
6
CONTINUOUS
10
75.0976
20
-123.423
11
75.0976
21
-123.042
0
LINE
8
BLACK
6
CONTINUOUS
10
75.0976
20
-123.042
11
75.1929
21
-122.566
0
LINE
8
BLACK
6
CONTINUOUS
10
75.1929
20
-122.566
11
75.2881
21
-122.28
0
LINE
8
BLACK
6
CONTINUOUS
10
75.2881
20
-122.28
11
75.3833
21
-122.09
0
LINE
8
BLACK
6
CONTINUOUS
10
75.3833
20
-122.09
11
75.5738
21
-121.804
0
LINE
8
BLACK
6
CONTINUOUS
10
75.5738
20
-121.804
11
75.669
21
-121.709
0
LINE
8
BLACK
6
CONTINUOUS
10
77.4786
20
-123.995
11
76.3357
21
-123.995
0
LINE
8
BLACK
6
CONTINUOUS
10
76.9071
20
-123.995
11
76.9071
21
-121.995
0
LINE
8
BLACK
6
CONTINUOUS
10
76.9071
20
-121.995
11
76.7167
21
-122.28
0
LINE
8
BLACK
6
CONTINUOUS
10
76.7167
20
-122.28
11
76.5262
21
-122.471
0
LINE
8
BLACK
6
CONTINUOUS
10
76.5262
20
-122.471
11
76.3357
21
-122.566
0
LINE
8
BLACK
6
CONTINUOUS
10
78.1452
20
-121.995
11
79.3833
21
-121.995
0
LINE
8
BLACK
6
CONTINUOUS
10
79.3833
20
-121.995
11
78.7167
21
-122.757
0
LINE
8
BLACK
6
CONTINUOUS
10
78.7167
20
-122.757
11
79.0024
21
-122.757
0
LINE
8
BLACK
6
CONTINUOUS
10
79.0024
20
-122.757
11
79.1929
21
-122.852
0
LINE
8
BLACK
6
CONTINUOUS
10
79.1929
20
-122.852
11
79.2881
21
-122.947
0
LINE
8
BLACK
6
CONTINUOUS
10
79.2881
20
-122.947
11
79.3833
21
-123.138
0
LINE
8
BLACK
6
CONTINUOUS
10
79.3833
20
-123.138
11
79.3833
21
-123.614
0
LINE
8
BLACK
6
CONTINUOUS
10
79.3833
20
-123.614
11
79.2881
21
-123.804
0
LINE
8
BLACK
6
CONTINUOUS
10
79.2881
20
-123.804
11
79.1929
21
-123.9
0
LINE
8
BLACK
6
CONTINUOUS
10
79.1929
20
-123.9
11
79.0024
21
-123.995
0
LINE
8
BLACK
6
CONTINUOUS
10
79.0024
20
-123.995
11
78.431
21
-123.995
0
LINE
8
BLACK
6
CONTINUOUS
10
78.431
20
-123.995
11
78.2405
21
-123.9
0
LINE
8
BLACK
6
CONTINUOUS
10
78.2405
20
-123.9
11
78.1452
21
-123.804
0
LINE
8
BLACK
6
CONTINUOUS
10
81.7643
20
-123.995
11
81.7643
21
-121.995
0
LINE
8
BLACK
6
CONTINUOUS
10
82.6214
20
-123.995
11
82.6214
21
-122.947
0
LINE
8
BLACK
6
CONTINUOUS
10
82.6214
20
-122.947
11
82.5262
21
-122.757
0
LINE
8
BLACK
6
CONTINUOUS
10
82.5262
20
-122.757
11
82.3357
21
-122.661
0
LINE
8
BLACK
6
CONTINUOUS
10
82.3357
20
-122.661
11
82.05
21
-122.661
0
LINE
8
BLACK
6
CONTINUOUS
10
82.05
20
-122.661
11
81.8595
21
-122.757
0
LINE
8
BLACK
6
CONTINUOUS
10
81.8595
20
-122.757
11
81.7643
21
-122.852
0
LINE
8
BLACK
6
CONTINUOUS
10
83.8595
20
-123.995
11
83.669
21
-123.9
0
LINE
8
BLACK
6
CONTINUOUS
10
83.669
20
-123.9
11
83.5738
21
-123.804
0
LINE
8
BLACK
6
CONTINUOUS
10
83.5738
20
-123.804
11
83.4786
21
-123.614
0
LINE
8
BLACK
6
CONTINUOUS
10
83.4786
20
-123.614
11
83.4786
21
-123.042
0
LINE
8
BLACK
6
CONTINUOUS
10
83.4786
20
-123.042
11
83.5738
21
-122.852
0
LINE
8
BLACK
6
CONTINUOUS
10
83.5738
20
-122.852
11
83.669
21
-122.757
0
LINE
8
BLACK
6
CONTINUOUS
10
83.669
20
-122.757
11
83.8595
21
-122.661
0
LINE
8
BLACK
6
CONTINUOUS
10
83.8595
20
-122.661
11
84.1452
21
-122.661
0
LINE
8
BLACK
6
CONTINUOUS
10
84.1452
20
-122.661
11
84.3357
21
-122.757
0
LINE
8
BLACK
6
CONTINUOUS
10
84.3357
20
-122.757
11
84.431
21
-122.852
0
LINE
8
BLACK
6
CONTINUOUS
10
84.431
20
-122.852
11
84.5262
21
-123.042
0
LINE
8
BLACK
6
CONTINUOUS
10
84.5262
20
-123.042
11
84.5262
21
-123.614
0
LINE
8
BLACK
6
CONTINUOUS
10
84.5262
20
-123.614
11
84.431
21
-123.804
0
LINE
8
BLACK
6
CONTINUOUS
10
84.431
20
-123.804
11
84.3357
21
-123.9
0
LINE
8
BLACK
6
CONTINUOUS
10
84.3357
20
-123.9
11
84.1452
21
-123.995
0
LINE
8
BLACK
6
CONTINUOUS
10
84.1452
20
-123.995
11
83.8595
21
-123.995
0
LINE
8
BLACK
6
CONTINUOUS
10
85.669
20
-123.995
11
85.4786
21
-123.9
0
LINE
8
BLACK
6
CONTINUOUS
10
85.4786
20
-123.9
11
85.3833
21
-123.709
0
LINE
8
BLACK
6
CONTINUOUS
10
85.3833
20
-123.709
11
85.3833
21
-121.995
0
LINE
8
BLACK
6
CONTINUOUS
10
87.1929
20
-123.9
11
87.0024
21
-123.995
0
LINE
8
BLACK
6
CONTINUOUS
10
87.0024
20
-123.995
11
86.6214
21
-123.995
0
LINE
8
BLACK
6
CONTINUOUS
10
86.6214
20
-123.995
11
86.431
21
-123.9
0
LINE
8
BLACK
6
CONTINUOUS
10
86.431
20
-123.9
11
86.3357
21
-123.709
0
LINE
8
BLACK
6
CONTINUOUS
10
86.3357
20
-123.709
11
86.3357
21
-122.947
0
LINE
8
BLACK
6
CONTINUOUS
10
86.3357
20
-122.947
11
86.431
21
-122.757
0
LINE
8
BLACK
6
CONTINUOUS
10
86.431
20
-122.757
11
86.6214
21
-122.661
0
LINE
8
BLACK
6
CONTINUOUS
10
86.6214
20
-122.661
11
87.0024
21
-122.661
0
LINE
8
BLACK
6
CONTINUOUS
10
87.0024
20
-122.661
11
87.1929
21
-122.757
0
LINE
8
BLACK
6
CONTINUOUS
10
87.1929
20
-122.757
11
87.2881
21
-122.947
0
LINE
8
BLACK
6
CONTINUOUS
10
87.2881
20
-122.947
11
87.2881
21
-123.138
0
LINE
8
BLACK
6
CONTINUOUS
10
87.2881
20
-123.138
11
86.3357
21
-123.328
0
LINE
8
BLACK
6
CONTINUOUS
10
88.05
20
-123.9
11
88.2405
21
-123.995
0
LINE
8
BLACK
6
CONTINUOUS
10
88.2405
20
-123.995
11
88.6214
21
-123.995
0
LINE
8
BLACK
6
CONTINUOUS
10
88.6214
20
-123.995
11
88.8119
21
-123.9
0
LINE
8
BLACK
6
CONTINUOUS
10
88.8119
20
-123.9
11
88.9071
21
-123.709
0
LINE
8
BLACK
6
CONTINUOUS
10
88.9071
20
-123.709
11
88.9071
21
-123.614
0
LINE
8
BLACK
6
CONTINUOUS
10
88.9071
20
-123.614
11
88.8119
21
-123.423
0
LINE
8
BLACK
6
CONTINUOUS
10
88.8119
20
-123.423
11
88.6214
21
-123.328
0
LINE
8
BLACK
6
CONTINUOUS
10
88.6214
20
-123.328
11
88.3357
21
-123.328
0
LINE
8
BLACK
6
CONTINUOUS
10
88.3357
20
-123.328
11
88.1452
21
-123.233
0
LINE
8
BLACK
6
CONTINUOUS
10
88.1452
20
-123.233
11
88.05
21
-123.042
0
LINE
8
BLACK
6
CONTINUOUS
10
88.05
20
-123.042
11
88.05
21
-122.947
0
LINE
8
BLACK
6
CONTINUOUS
10
88.05
20
-122.947
11
88.1452
21
-122.757
0
LINE
8
BLACK
6
CONTINUOUS
10
88.1452
20
-122.757
11
88.3357
21
-122.661
0
LINE
8
BLACK
6
CONTINUOUS
10
88.3357
20
-122.661
11
88.6214
21
-122.661
0
LINE
8
BLACK
6
CONTINUOUS
10
88.6214
20
-122.661
11
88.8119
21
-122.757
0
LINE
8
BLACK
6
CONTINUOUS
10
89.5738
20
-124.757
11
89.669
21
-124.661
0
LINE
8
BLACK
6
CONTINUOUS
10
89.669
20
-124.661
11
89.8595
21
-124.376
0
LINE
8
BLACK
6
CONTINUOUS
10
89.8595
20
-124.376
11
89.9548
21
-124.185
0
LINE
8
BLACK
6
CONTINUOUS
10
89.9548
20
-124.185
11
90.05
21
-123.9
0
LINE
8
BLACK
6
CONTINUOUS
10
90.05
20
-123.9
11
90.1452
21
-123.423
0
LINE
8
BLACK
6
CONTINUOUS
10
90.1452
20
-123.423
11
90.1452
21
-123.042
0
LINE
8
BLACK
6
CONTINUOUS
10
90.1452
20
-123.042
11
90.05
21
-122.566
0
LINE
8
BLACK
6
CONTINUOUS
10
90.05
20
-122.566
11
89.9548
21
-122.28
0
LINE
8
BLACK
6
CONTINUOUS
10
89.9548
20
-122.28
11
89.8595
21
-122.09
0
LINE
8
BLACK
6
CONTINUOUS
10
89.8595
20
-122.09
11
89.669
21
-121.804
0
LINE
8
BLACK
6
CONTINUOUS
10
89.669
20
-121.804
11
89.5738
21
-121.709
0
LINE
8
BLACK
6
CONTINUOUS
10
39.025
20
-124.805
11
39.025
21
-126.655
0
LINE
8
BLACK
6
CONTINUOUS
10
38.1
20
-125.73
11
39.95
21
-125.73
0
LINE
8
BLACK
6
CONTINUOUS
10
43.5738
20
-126.635
11
42.431
21
-126.635
0
LINE
8
BLACK
6
CONTINUOUS
10
43.0024
20
-126.635
11
43.0024
21
-124.635
0
LINE
8
BLACK
6
CONTINUOUS
10
43.0024
20
-124.635
11
42.8119
21
-124.92
0
LINE
8
BLACK
6
CONTINUOUS
10
42.8119
20
-124.92
11
42.6214
21
-125.111
0
LINE
8
BLACK
6
CONTINUOUS
10
42.6214
20
-125.111
11
42.431
21
-125.206
0
LINE
8
BLACK
6
CONTINUOUS
10
44.431
20
-126.444
11
44.5262
21
-126.54
0
LINE
8
BLACK
6
CONTINUOUS
10
44.5262
20
-126.54
11
44.431
21
-126.635
0
LINE
8
BLACK
6
CONTINUOUS
10
44.431
20
-126.635
11
44.3357
21
-126.54
0
LINE
8
BLACK
6
CONTINUOUS
10
44.3357
20
-126.54
11
44.431
21
-126.444
0
LINE
8
BLACK
6
CONTINUOUS
10
44.431
20
-126.444
11
44.431
21
-126.635
0
LINE
8
BLACK
6
CONTINUOUS
10
45.669
20
-125.492
11
45.4786
21
-125.397
0
LINE
8
BLACK
6
CONTINUOUS
10
45.4786
20
-125.397
11
45.3833
21
-125.301
0
LINE
8
BLACK
6
CONTINUOUS
10
45.3833
20
-125.301
11
45.2881
21
-125.111
0
LINE
8
BLACK
6
CONTINUOUS
10
45.2881
20
-125.111
11
45.2881
21
-125.016
0
LINE
8
BLACK
6
CONTINUOUS
10
45.2881
20
-125.016
11
45.3833
21
-124.825
0
LINE
8
BLACK
6
CONTINUOUS
10
45.3833
20
-124.825
11
45.4786
21
-124.73
0
LINE
8
BLACK
6
CONTINUOUS
10
45.4786
20
-124.73
11
45.669
21
-124.635
0
LINE
8
BLACK
6
CONTINUOUS
10
45.669
20
-124.635
11
46.05
21
-124.635
0
LINE
8
BLACK
6
CONTINUOUS
10
46.05
20
-124.635
11
46.2405
21
-124.73
0
LINE
8
BLACK
6
CONTINUOUS
10
46.2405
20
-124.73
11
46.3357
21
-124.825
0
LINE
8
BLACK
6
CONTINUOUS
10
46.3357
20
-124.825
11
46.431
21
-125.016
0
LINE
8
BLACK
6
CONTINUOUS
10
46.431
20
-125.016
11
46.431
21
-125.111
0
LINE
8
BLACK
6
CONTINUOUS
10
46.431
20
-125.111
11
46.3357
21
-125.301
0
LINE
8
BLACK
6
CONTINUOUS
10
46.3357
20
-125.301
11
46.2405
21
-125.397
0
LINE
8
BLACK
6
CONTINUOUS
10
46.2405
20
-125.397
11
46.05
21
-125.492
0
LINE
8
BLACK
6
CONTINUOUS
10
46.05
20
-125.492
11
45.669
21
-125.492
0
LINE
8
BLACK
6
CONTINUOUS
10
45.669
20
-125.492
11
45.4786
21
-125.587
0
LINE
8
BLACK
6
CONTINUOUS
10
45.4786
20
-125.587
11
45.3833
21
-125.682
0
LINE
8
BLACK
6
CONTINUOUS
10
45.3833
20
-125.682
11
45.2881
21
-125.873
0
LINE
8
BLACK
6
CONTINUOUS
10
45.2881
20
-125.873
11
45.2881
21
-126.254
0
LINE
8
BLACK
6
CONTINUOUS
10
45.2881
20
-126.254
11
45.3833
21
-126.444
0
LINE
8
BLACK
6
CONTINUOUS
10
45.3833
20
-126.444
11
45.4786
21
-126.54
0
LINE
8
BLACK
6
CONTINUOUS
10
45.4786
20
-126.54
11
45.669
21
-126.635
0
LINE
8
BLACK
6
CONTINUOUS
10
45.669
20
-126.635
11
46.05
21
-126.635
0
LINE
8
BLACK
6
CONTINUOUS
10
46.05
20
-126.635
11
46.2405
21
-126.54
0
LINE
8
BLACK
6
CONTINUOUS
10
46.2405
20
-126.54
11
46.3357
21
-126.444
0
LINE
8
BLACK
6
CONTINUOUS
10
46.3357
20
-126.444
11
46.431
21
-126.254
0
LINE
8
BLACK
6
CONTINUOUS
10
46.431
20
-126.254
11
46.431
21
-125.873
0
LINE
8
BLACK
6
CONTINUOUS
10
46.431
20
-125.873
11
46.3357
21
-125.682
0
LINE
8
BLACK
6
CONTINUOUS
10
46.3357
20
-125.682
11
46.2405
21
-125.587
0
LINE
8
BLACK
6
CONTINUOUS
10
46.2405
20
-125.587
11
46.05
21
-125.492
0
LINE
8
BLACK
6
CONTINUOUS
10
48.2405
20
-124.635
11
47.2881
21
-124.635
0
LINE
8
BLACK
6
CONTINUOUS
10
47.2881
20
-124.635
11
47.1929
21
-125.587
0
LINE
8
BLACK
6
CONTINUOUS
10
47.1929
20
-125.587
11
47.2881
21
-125.492
0
LINE
8
BLACK
6
CONTINUOUS
10
47.2881
20
-125.492
11
47.4786
21
-125.397
0
LINE
8
BLACK
6
CONTINUOUS
10
47.4786
20
-125.397
11
47.9548
21
-125.397
0
LINE
8
BLACK
6
CONTINUOUS
10
47.9548
20
-125.397
11
48.1452
21
-125.492
0
LINE
8
BLACK
6
CONTINUOUS
10
48.1452
20
-125.492
11
48.2405
21
-125.587
0
LINE
8
BLACK
6
CONTINUOUS
10
48.2405
20
-125.587
11
48.3357
21
-125.778
0
LINE
8
BLACK
6
CONTINUOUS
10
48.3357
20
-125.778
11
48.3357
21
-126.254
0
LINE
8
BLACK
6
CONTINUOUS
10
48.3357
20
-126.254
11
48.2405
21
-126.444
0
LINE
8
BLACK
6
CONTINUOUS
10
48.2405
20
-126.444
11
48.1452
21
-126.54
0
LINE
8
BLACK
6
CONTINUOUS
10
48.1452
20
-126.54
11
47.9548
21
-126.635
0
LINE
8
BLACK
6
CONTINUOUS
10
47.9548
20
-126.635
11
47.4786
21
-126.635
0
LINE
8
BLACK
6
CONTINUOUS
10
47.4786
20
-126.635
11
47.2881
21
-126.54
0
LINE
8
BLACK
6
CONTINUOUS
10
47.2881
20
-126.54
11
47.1929
21
-126.444
0
LINE
8
BLACK
6
CONTINUOUS
10
49.5738
20
-124.635
11
49.7643
21
-124.635
0
LINE
8
BLACK
6
CONTINUOUS
10
49.7643
20
-124.635
11
49.9548
21
-124.73
0
LINE
8
BLACK
6
CONTINUOUS
10
49.9548
20
-124.73
11
50.05
21
-124.825
0
LINE
8
BLACK
6
CONTINUOUS
10
50.05
20
-124.825
11
50.1452
21
-125.016
0
LINE
8
BLACK
6
CONTINUOUS
10
50.1452
20
-125.016
11
50.2405
21
-125.397
0
LINE
8
BLACK
6
CONTINUOUS
10
50.2405
20
-125.397
11
50.2405
21
-125.873
0
LINE
8
BLACK
6
CONTINUOUS
10
50.2405
20
-125.873
11
50.1452
21
-126.254
0
LINE
8
BLACK
6
CONTINUOUS
10
50.1452
20
-126.254
11
50.05
21
-126.444
0
LINE
8
BLACK
6
CONTINUOUS
10
50.05
20
-126.444
11
49.9548
21
-126.54
0
LINE
8
BLACK
6
CONTINUOUS
10
49.9548
20
-126.54
11
49.7643
21
-126.635
0
LINE
8
BLACK
6
CONTINUOUS
10
49.7643
20
-126.635
11
49.5738
21
-126.635
0
LINE
8
BLACK
6
CONTINUOUS
10
49.5738
20
-126.635
11
49.3833
21
-126.54
0
LINE
8
BLACK
6
CONTINUOUS
10
49.3833
20
-126.54
11
49.2881
21
-126.444
0
LINE
8
BLACK
6
CONTINUOUS
10
49.2881
20
-126.444
11
49.1929
21
-126.254
0
LINE
8
BLACK
6
CONTINUOUS
10
49.1929
20
-126.254
11
49.0976
21
-125.873
0
LINE
8
BLACK
6
CONTINUOUS
10
49.0976
20
-125.873
11
49.0976
21
-125.397
0
LINE
8
BLACK
6
CONTINUOUS
10
49.0976
20
-125.397
11
49.1929
21
-125.016
0
LINE
8
BLACK
6
CONTINUOUS
10
49.1929
20
-125.016
11
49.2881
21
-124.825
0
LINE
8
BLACK
6
CONTINUOUS
10
49.2881
20
-124.825
11
49.3833
21
-124.73
0
LINE
8
BLACK
6
CONTINUOUS
10
49.3833
20
-124.73
11
49.5738
21
-124.635
0
LINE
8
BLACK
6
CONTINUOUS
10
51.0976
20
-126.635
11
51.0976
21
-125.301
0
LINE
8
BLACK
6
CONTINUOUS
10
51.0976
20
-125.492
11
51.1929
21
-125.397
0
LINE
8
BLACK
6
CONTINUOUS
10
51.1929
20
-125.397
11
51.3833
21
-125.301
0
LINE
8
BLACK
6
CONTINUOUS
10
51.3833
20
-125.301
11
51.669
21
-125.301
0
LINE
8
BLACK
6
CONTINUOUS
10
51.669
20
-125.301
11
51.8595
21
-125.397
0
LINE
8
BLACK
6
CONTINUOUS
10
51.8595
20
-125.397
11
51.9548
21
-125.587
0
LINE
8
BLACK
6
CONTINUOUS
10
51.9548
20
-125.587
11
51.9548
21
-126.635
0
LINE
8
BLACK
6
CONTINUOUS
10
51.9548
20
-125.587
11
52.05
21
-125.397
0
LINE
8
BLACK
6
CONTINUOUS
10
52.05
20
-125.397
11
52.2405
21
-125.301
0
LINE
8
BLACK
6
CONTINUOUS
10
52.2405
20
-125.301
11
52.5262
21
-125.301
0
LINE
8
BLACK
6
CONTINUOUS
10
52.5262
20
-125.301
11
52.7167
21
-125.397
0
LINE
8
BLACK
6
CONTINUOUS
10
52.7167
20
-125.397
11
52.8119
21
-125.587
0
LINE
8
BLACK
6
CONTINUOUS
10
52.8119
20
-125.587
11
52.8119
21
-126.635
0
LINE
8
BLACK
6
CONTINUOUS
10
53.7643
20
-126.635
11
53.7643
21
-125.301
0
LINE
8
BLACK
6
CONTINUOUS
10
53.7643
20
-125.492
11
53.8595
21
-125.397
0
LINE
8
BLACK
6
CONTINUOUS
10
53.8595
20
-125.397
11
54.05
21
-125.301
0
LINE
8
BLACK
6
CONTINUOUS
10
54.05
20
-125.301
11
54.3357
21
-125.301
0
LINE
8
BLACK
6
CONTINUOUS
10
54.3357
20
-125.301
11
54.5262
21
-125.397
0
LINE
8
BLACK
6
CONTINUOUS
10
54.5262
20
-125.397
11
54.6214
21
-125.587
0
LINE
8
BLACK
6
CONTINUOUS
10
54.6214
20
-125.587
11
54.6214
21
-126.635
0
LINE
8
BLACK
6
CONTINUOUS
10
54.6214
20
-125.587
11
54.7167
21
-125.397
0
LINE
8
BLACK
6
CONTINUOUS
10
54.7167
20
-125.397
11
54.9071
21
-125.301
0
LINE
8
BLACK
6
CONTINUOUS
10
54.9071
20
-125.301
11
55.1929
21
-125.301
0
LINE
8
BLACK
6
CONTINUOUS
10
55.1929
20
-125.301
11
55.3833
21
-125.397
0
LINE
8
BLACK
6
CONTINUOUS
10
55.3833
20
-125.397
11
55.4786
21
-125.587
0
LINE
8
BLACK
6
CONTINUOUS
10
55.4786
20
-125.587
11
55.4786
21
-126.635
0
LINE
8
BLACK
6
CONTINUOUS
10
59.3833
20
-124.54
11
57.669
21
-127.111
0
LINE
8
BLACK
6
CONTINUOUS
10
61.9548
20
-124.635
11
62.1452
21
-124.635
0
LINE
8
BLACK
6
CONTINUOUS
10
62.1452
20
-124.635
11
62.3357
21
-124.73
0
LINE
8
BLACK
6
CONTINUOUS
10
62.3357
20
-124.73
11
62.431
21
-124.825
0
LINE
8
BLACK
6
CONTINUOUS
10
62.431
20
-124.825
11
62.5262
21
-125.016
0
LINE
8
BLACK
6
CONTINUOUS
10
62.5262
20
-125.016
11
62.6214
21
-125.397
0
LINE
8
BLACK
6
CONTINUOUS
10
62.6214
20
-125.397
11
62.6214
21
-125.873
0
LINE
8
BLACK
6
CONTINUOUS
10
62.6214
20
-125.873
11
62.5262
21
-126.254
0
LINE
8
BLACK
6
CONTINUOUS
10
62.5262
20
-126.254
11
62.431
21
-126.444
0
LINE
8
BLACK
6
CONTINUOUS
10
62.431
20
-126.444
11
62.3357
21
-126.54
0
LINE
8
BLACK
6
CONTINUOUS
10
62.3357
20
-126.54
11
62.1452
21
-126.635
0
LINE
8
BLACK
6
CONTINUOUS
10
62.1452
20
-126.635
11
61.9548
21
-126.635
0
LINE
8
BLACK
6
CONTINUOUS
10
61.9548
20
-126.635
11
61.7643
21
-126.54
0
LINE
8
BLACK
6
CONTINUOUS
10
61.7643
20
-126.54
11
61.669
21
-126.444
0
LINE
8
BLACK
6
CONTINUOUS
10
61.669
20
-126.444
11
61.5738
21
-126.254
0
LINE
8
BLACK
6
CONTINUOUS
10
61.5738
20
-126.254
11
61.4786
21
-125.873
0
LINE
8
BLACK
6
CONTINUOUS
10
61.4786
20
-125.873
11
61.4786
21
-125.397
0
LINE
8
BLACK
6
CONTINUOUS
10
61.4786
20
-125.397
11
61.5738
21
-125.016
0
LINE
8
BLACK
6
CONTINUOUS
10
61.5738
20
-125.016
11
61.669
21
-124.825
0
LINE
8
BLACK
6
CONTINUOUS
10
61.669
20
-124.825
11
61.7643
21
-124.73
0
LINE
8
BLACK
6
CONTINUOUS
10
61.7643
20
-124.73
11
61.9548
21
-124.635
0
LINE
8
BLACK
6
CONTINUOUS
10
63.4786
20
-126.444
11
63.5738
21
-126.54
0
LINE
8
BLACK
6
CONTINUOUS
10
63.5738
20
-126.54
11
63.4786
21
-126.635
0
LINE
8
BLACK
6
CONTINUOUS
10
63.4786
20
-126.635
11
63.3833
21
-126.54
0
LINE
8
BLACK
6
CONTINUOUS
10
63.3833
20
-126.54
11
63.4786
21
-126.444
0
LINE
8
BLACK
6
CONTINUOUS
10
63.4786
20
-126.444
11
63.4786
21
-126.635
0
LINE
8
BLACK
6
CONTINUOUS
10
64.8119
20
-124.635
11
65.0024
21
-124.635
0
LINE
8
BLACK
6
CONTINUOUS
10
65.0024
20
-124.635
11
65.1929
21
-124.73
0
LINE
8
BLACK
6
CONTINUOUS
10
65.1929
20
-124.73
11
65.2881
21
-124.825
0
LINE
8
BLACK
6
CONTINUOUS
10
65.2881
20
-124.825
11
65.3833
21
-125.016
0
LINE
8
BLACK
6
CONTINUOUS
10
65.3833
20
-125.016
11
65.4786
21
-125.397
0
LINE
8
BLACK
6
CONTINUOUS
10
65.4786
20
-125.397
11
65.4786
21
-125.873
0
LINE
8
BLACK
6
CONTINUOUS
10
65.4786
20
-125.873
11
65.3833
21
-126.254
0
LINE
8
BLACK
6
CONTINUOUS
10
65.3833
20
-126.254
11
65.2881
21
-126.444
0
LINE
8
BLACK
6
CONTINUOUS
10
65.2881
20
-126.444
11
65.1929
21
-126.54
0
LINE
8
BLACK
6
CONTINUOUS
10
65.1929
20
-126.54
11
65.0024
21
-126.635
0
LINE
8
BLACK
6
CONTINUOUS
10
65.0024
20
-126.635
11
64.8119
21
-126.635
0
LINE
8
BLACK
6
CONTINUOUS
10
64.8119
20
-126.635
11
64.6214
21
-126.54
0
LINE
8
BLACK
6
CONTINUOUS
10
64.6214
20
-126.54
11
64.5262
21
-126.444
0
LINE
8
BLACK
6
CONTINUOUS
10
64.5262
20
-126.444
11
64.431
21
-126.254
0
LINE
8
BLACK
6
CONTINUOUS
10
64.431
20
-126.254
11
64.3357
21
-125.873
0
LINE
8
BLACK
6
CONTINUOUS
10
64.3357
20
-125.873
11
64.3357
21
-125.397
0
LINE
8
BLACK
6
CONTINUOUS
10
64.3357
20
-125.397
11
64.431
21
-125.016
0
LINE
8
BLACK
6
CONTINUOUS
10
64.431
20
-125.016
11
64.5262
21
-124.825
0
LINE
8
BLACK
6
CONTINUOUS
10
64.5262
20
-124.825
11
64.6214
21
-124.73
0
LINE
8
BLACK
6
CONTINUOUS
10
64.6214
20
-124.73
11
64.8119
21
-124.635
0
LINE
8
BLACK
6
CONTINUOUS
10
66.1452
20
-124.635
11
67.4786
21
-124.635
0
LINE
8
BLACK
6
CONTINUOUS
10
67.4786
20
-124.635
11
66.6214
21
-126.635
0
LINE
8
BLACK
6
CONTINUOUS
10
68.1452
20
-124.825
11
68.2405
21
-124.73
0
LINE
8
BLACK
6
CONTINUOUS
10
68.2405
20
-124.73
11
68.431
21
-124.635
0
LINE
8
BLACK
6
CONTINUOUS
10
68.431
20
-124.635
11
68.9071
21
-124.635
0
LINE
8
BLACK
6
CONTINUOUS
10
68.9071
20
-124.635
11
69.0976
21
-124.73
0
LINE
8
BLACK
6
CONTINUOUS
10
69.0976
20
-124.73
11
69.1929
21
-124.825
0
LINE
8
BLACK
6
CONTINUOUS
10
69.1929
20
-124.825
11
69.2881
21
-125.016
0
LINE
8
BLACK
6
CONTINUOUS
10
69.2881
20
-125.016
11
69.2881
21
-125.206
0
LINE
8
BLACK
6
CONTINUOUS
10
69.2881
20
-125.206
11
69.1929
21
-125.492
0
LINE
8
BLACK
6
CONTINUOUS
10
69.1929
20
-125.492
11
68.05
21
-126.635
0
LINE
8
BLACK
6
CONTINUOUS
10
68.05
20
-126.635
11
69.2881
21
-126.635
0
LINE
8
BLACK
6
CONTINUOUS
10
70.431
20
-125.492
11
70.2405
21
-125.397
0
LINE
8
BLACK
6
CONTINUOUS
10
70.2405
20
-125.397
11
70.1452
21
-125.301
0
LINE
8
BLACK
6
CONTINUOUS
10
70.1452
20
-125.301
11
70.05
21
-125.111
0
LINE
8
BLACK
6
CONTINUOUS
10
70.05
20
-125.111
11
70.05
21
-125.016
0
LINE
8
BLACK
6
CONTINUOUS
10
70.05
20
-125.016
11
70.1452
21
-124.825
0
LINE
8
BLACK
6
CONTINUOUS
10
70.1452
20
-124.825
11
70.2405
21
-124.73
0
LINE
8
BLACK
6
CONTINUOUS
10
70.2405
20
-124.73
11
70.431
21
-124.635
0
LINE
8
BLACK
6
CONTINUOUS
10
70.431
20
-124.635
11
70.8119
21
-124.635
0
LINE
8
BLACK
6
CONTINUOUS
10
70.8119
20
-124.635
11
71.0024
21
-124.73
0
LINE
8
BLACK
6
CONTINUOUS
10
71.0024
20
-124.73
11
71.0976
21
-124.825
0
LINE
8
BLACK
6
CONTINUOUS
10
71.0976
20
-124.825
11
71.1929
21
-125.016
0
LINE
8
BLACK
6
CONTINUOUS
10
71.1929
20
-125.016
11
71.1929
21
-125.111
0
LINE
8
BLACK
6
CONTINUOUS
10
71.1929
20
-125.111
11
71.0976
21
-125.301
0
LINE
8
BLACK
6
CONTINUOUS
10
71.0976
20
-125.301
11
71.0024
21
-125.397
0
LINE
8
BLACK
6
CONTINUOUS
10
71.0024
20
-125.397
11
70.8119
21
-125.492
0
LINE
8
BLACK
6
CONTINUOUS
10
70.8119
20
-125.492
11
70.431
21
-125.492
0
LINE
8
BLACK
6
CONTINUOUS
10
70.431
20
-125.492
11
70.2405
21
-125.587
0
LINE
8
BLACK
6
CONTINUOUS
10
70.2405
20
-125.587
11
70.1452
21
-125.682
0
LINE
8
BLACK
6
CONTINUOUS
10
70.1452
20
-125.682
11
70.05
21
-125.873
0
LINE
8
BLACK
6
CONTINUOUS
10
70.05
20
-125.873
11
70.05
21
-126.254
0
LINE
8
BLACK
6
CONTINUOUS
10
70.05
20
-126.254
11
70.1452
21
-126.444
0
LINE
8
BLACK
6
CONTINUOUS
10
70.1452
20
-126.444
11
70.2405
21
-126.54
0
LINE
8
BLACK
6
CONTINUOUS
10
70.2405
20
-126.54
11
70.431
21
-126.635
0
LINE
8
BLACK
6
CONTINUOUS
10
70.431
20
-126.635
11
70.8119
21
-126.635
0
LINE
8
BLACK
6
CONTINUOUS
10
70.8119
20
-126.635
11
71.0024
21
-126.54
0
LINE
8
BLACK
6
CONTINUOUS
10
71.0024
20
-126.54
11
71.0976
21
-126.444
0
LINE
8
BLACK
6
CONTINUOUS
10
71.0976
20
-126.444
11
71.1929
21
-126.254
0
LINE
8
BLACK
6
CONTINUOUS
10
71.1929
20
-126.254
11
71.1929
21
-125.873
0
LINE
8
BLACK
6
CONTINUOUS
10
71.1929
20
-125.873
11
71.0976
21
-125.682
0
LINE
8
BLACK
6
CONTINUOUS
10
71.0976
20
-125.682
11
71.0024
21
-125.587
0
LINE
8
BLACK
6
CONTINUOUS
10
71.0024
20
-125.587
11
70.8119
21
-125.492
0
LINE
8
BLACK
6
CONTINUOUS
10
71.9548
20
-124.635
11
71.9548
21
-125.016
0
LINE
8
BLACK
6
CONTINUOUS
10
72.7167
20
-124.635
11
72.7167
21
-125.016
0
LINE
8
BLACK
6
CONTINUOUS
10
75.669
20
-127.397
11
75.5738
21
-127.301
0
LINE
8
BLACK
6
CONTINUOUS
10
75.5738
20
-127.301
11
75.3833
21
-127.016
0
LINE
8
BLACK
6
CONTINUOUS
10
75.3833
20
-127.016
11
75.2881
21
-126.825
0
LINE
8
BLACK
6
CONTINUOUS
10
75.2881
20
-126.825
11
75.1929
21
-126.54
0
LINE
8
BLACK
6
CONTINUOUS
10
75.1929
20
-126.54
11
75.0976
21
-126.063
0
LINE
8
BLACK
6
CONTINUOUS
10
75.0976
20
-126.063
11
75.0976
21
-125.682
0
LINE
8
BLACK
6
CONTINUOUS
10
75.0976
20
-125.682
11
75.1929
21
-125.206
0
LINE
8
BLACK
6
CONTINUOUS
10
75.1929
20
-125.206
11
75.2881
21
-124.92
0
LINE
8
BLACK
6
CONTINUOUS
10
75.2881
20
-124.92
11
75.3833
21
-124.73
0
LINE
8
BLACK
6
CONTINUOUS
10
75.3833
20
-124.73
11
75.5738
21
-124.444
0
LINE
8
BLACK
6
CONTINUOUS
10
75.5738
20
-124.444
11
75.669
21
-124.349
0
LINE
8
BLACK
6
CONTINUOUS
10
77.4786
20
-126.635
11
76.3357
21
-126.635
0
LINE
8
BLACK
6
CONTINUOUS
10
76.9071
20
-126.635
11
76.9071
21
-124.635
0
LINE
8
BLACK
6
CONTINUOUS
10
76.9071
20
-124.635
11
76.7167
21
-124.92
0
LINE
8
BLACK
6
CONTINUOUS
10
76.7167
20
-124.92
11
76.5262
21
-125.111
0
LINE
8
BLACK
6
CONTINUOUS
10
76.5262
20
-125.111
11
76.3357
21
-125.206
0
LINE
8
BLACK
6
CONTINUOUS
10
79.1929
20
-124.635
11
78.8119
21
-124.635
0
LINE
8
BLACK
6
CONTINUOUS
10
78.8119
20
-124.635
11
78.6214
21
-124.73
0
LINE
8
BLACK
6
CONTINUOUS
10
78.6214
20
-124.73
11
78.5262
21
-124.825
0
LINE
8
BLACK
6
CONTINUOUS
10
78.5262
20
-124.825
11
78.3357
21
-125.111
0
LINE
8
BLACK
6
CONTINUOUS
10
78.3357
20
-125.111
11
78.2405
21
-125.492
0
LINE
8
BLACK
6
CONTINUOUS
10
78.2405
20
-125.492
11
78.2405
21
-126.254
0
LINE
8
BLACK
6
CONTINUOUS
10
78.2405
20
-126.254
11
78.3357
21
-126.444
0
LINE
8
BLACK
6
CONTINUOUS
10
78.3357
20
-126.444
11
78.431
21
-126.54
0
LINE
8
BLACK
6
CONTINUOUS
10
78.431
20
-126.54
11
78.6214
21
-126.635
0
LINE
8
BLACK
6
CONTINUOUS
10
78.6214
20
-126.635
11
79.0024
21
-126.635
0
LINE
8
BLACK
6
CONTINUOUS
10
79.0024
20
-126.635
11
79.1929
21
-126.54
0
LINE
8
BLACK
6
CONTINUOUS
10
79.1929
20
-126.54
11
79.2881
21
-126.444
0
LINE
8
BLACK
6
CONTINUOUS
10
79.2881
20
-126.444
11
79.3833
21
-126.254
0
LINE
8
BLACK
6
CONTINUOUS
10
79.3833
20
-126.254
11
79.3833
21
-125.778
0
LINE
8
BLACK
6
CONTINUOUS
10
79.3833
20
-125.778
11
79.2881
21
-125.587
0
LINE
8
BLACK
6
CONTINUOUS
10
79.2881
20
-125.587
11
79.1929
21
-125.492
0
LINE
8
BLACK
6
CONTINUOUS
10
79.1929
20
-125.492
11
79.0024
21
-125.397
0
LINE
8
BLACK
6
CONTINUOUS
10
79.0024
20
-125.397
11
78.6214
21
-125.397
0
LINE
8
BLACK
6
CONTINUOUS
10
78.6214
20
-125.397
11
78.431
21
-125.492
0
LINE
8
BLACK
6
CONTINUOUS
10
78.431
20
-125.492
11
78.3357
21
-125.587
0
LINE
8
BLACK
6
CONTINUOUS
10
78.3357
20
-125.587
11
78.2405
21
-125.778
0
LINE
8
BLACK
6
CONTINUOUS
10
81.7643
20
-126.635
11
81.7643
21
-124.635
0
LINE
8
BLACK
6
CONTINUOUS
10
82.6214
20
-126.635
11
82.6214
21
-125.587
0
LINE
8
BLACK
6
CONTINUOUS
10
82.6214
20
-125.587
11
82.5262
21
-125.397
0
LINE
8
BLACK
6
CONTINUOUS
10
82.5262
20
-125.397
11
82.3357
21
-125.301
0
LINE
8
BLACK
6
CONTINUOUS
10
82.3357
20
-125.301
11
82.05
21
-125.301
0
LINE
8
BLACK
6
CONTINUOUS
10
82.05
20
-125.301
11
81.8595
21
-125.397
0
LINE
8
BLACK
6
CONTINUOUS
10
81.8595
20
-125.397
11
81.7643
21
-125.492
0
LINE
8
BLACK
6
CONTINUOUS
10
83.8595
20
-126.635
11
83.669
21
-126.54
0
LINE
8
BLACK
6
CONTINUOUS
10
83.669
20
-126.54
11
83.5738
21
-126.444
0
LINE
8
BLACK
6
CONTINUOUS
10
83.5738
20
-126.444
11
83.4786
21
-126.254
0
LINE
8
BLACK
6
CONTINUOUS
10
83.4786
20
-126.254
11
83.4786
21
-125.682
0
LINE
8
BLACK
6
CONTINUOUS
10
83.4786
20
-125.682
11
83.5738
21
-125.492
0
LINE
8
BLACK
6
CONTINUOUS
10
83.5738
20
-125.492
11
83.669
21
-125.397
0
LINE
8
BLACK
6
CONTINUOUS
10
83.669
20
-125.397
11
83.8595
21
-125.301
0
LINE
8
BLACK
6
CONTINUOUS
10
83.8595
20
-125.301
11
84.1452
21
-125.301
0
LINE
8
BLACK
6
CONTINUOUS
10
84.1452
20
-125.301
11
84.3357
21
-125.397
0
LINE
8
BLACK
6
CONTINUOUS
10
84.3357
20
-125.397
11
84.431
21
-125.492
0
LINE
8
BLACK
6
CONTINUOUS
10
84.431
20
-125.492
11
84.5262
21
-125.682
0
LINE
8
BLACK
6
CONTINUOUS
10
84.5262
20
-125.682
11
84.5262
21
-126.254
0
LINE
8
BLACK
6
CONTINUOUS
10
84.5262
20
-126.254
11
84.431
21
-126.444
0
LINE
8
BLACK
6
CONTINUOUS
10
84.431
20
-126.444
11
84.3357
21
-126.54
0
LINE
8
BLACK
6
CONTINUOUS
10
84.3357
20
-126.54
11
84.1452
21
-126.635
0
LINE
8
BLACK
6
CONTINUOUS
10
84.1452
20
-126.635
11
83.8595
21
-126.635
0
LINE
8
BLACK
6
CONTINUOUS
10
85.669
20
-126.635
11
85.4786
21
-126.54
0
LINE
8
BLACK
6
CONTINUOUS
10
85.4786
20
-126.54
11
85.3833
21
-126.349
0
LINE
8
BLACK
6
CONTINUOUS
10
85.3833
20
-126.349
11
85.3833
21
-124.635
0
LINE
8
BLACK
6
CONTINUOUS
10
87.1929
20
-126.54
11
87.0024
21
-126.635
0
LINE
8
BLACK
6
CONTINUOUS
10
87.0024
20
-126.635
11
86.6214
21
-126.635
0
LINE
8
BLACK
6
CONTINUOUS
10
86.6214
20
-126.635
11
86.431
21
-126.54
0
LINE
8
BLACK
6
CONTINUOUS
10
86.431
20
-126.54
11
86.3357
21
-126.349
0
LINE
8
BLACK
6
CONTINUOUS
10
86.3357
20
-126.349
11
86.3357
21
-125.587
0
LINE
8
BLACK
6
CONTINUOUS
10
86.3357
20
-125.587
11
86.431
21
-125.397
0
LINE
8
BLACK
6
CONTINUOUS
10
86.431
20
-125.397
11
86.6214
21
-125.301
0
LINE
8
BLACK
6
CONTINUOUS
10
86.6214
20
-125.301
11
87.0024
21
-125.301
0
LINE
8
BLACK
6
CONTINUOUS
10
87.0024
20
-125.301
11
87.1929
21
-125.397
0
LINE
8
BLACK
6
CONTINUOUS
10
87.1929
20
-125.397
11
87.2881
21
-125.587
0
LINE
8
BLACK
6
CONTINUOUS
10
87.2881
20
-125.587
11
87.2881
21
-125.778
0
LINE
8
BLACK
6
CONTINUOUS
10
87.2881
20
-125.778
11
86.3357
21
-125.968
0
LINE
8
BLACK
6
CONTINUOUS
10
88.05
20
-126.54
11
88.2405
21
-126.635
0
LINE
8
BLACK
6
CONTINUOUS
10
88.2405
20
-126.635
11
88.6214
21
-126.635
0
LINE
8
BLACK
6
CONTINUOUS
10
88.6214
20
-126.635
11
88.8119
21
-126.54
0
LINE
8
BLACK
6
CONTINUOUS
10
88.8119
20
-126.54
11
88.9071
21
-126.349
0
LINE
8
BLACK
6
CONTINUOUS
10
88.9071
20
-126.349
11
88.9071
21
-126.254
0
LINE
8
BLACK
6
CONTINUOUS
10
88.9071
20
-126.254
11
88.8119
21
-126.063
0
LINE
8
BLACK
6
CONTINUOUS
10
88.8119
20
-126.063
11
88.6214
21
-125.968
0
LINE
8
BLACK
6
CONTINUOUS
10
88.6214
20
-125.968
11
88.3357
21
-125.968
0
LINE
8
BLACK
6
CONTINUOUS
10
88.3357
20
-125.968
11
88.1452
21
-125.873
0
LINE
8
BLACK
6
CONTINUOUS
10
88.1452
20
-125.873
11
88.05
21
-125.682
0
LINE
8
BLACK
6
CONTINUOUS
10
88.05
20
-125.682
11
88.05
21
-125.587
0
LINE
8
BLACK
6
CONTINUOUS
10
88.05
20
-125.587
11
88.1452
21
-125.397
0
LINE
8
BLACK
6
CONTINUOUS
10
88.1452
20
-125.397
11
88.3357
21
-125.301
0
LINE
8
BLACK
6
CONTINUOUS
10
88.3357
20
-125.301
11
88.6214
21
-125.301
0
LINE
8
BLACK
6
CONTINUOUS
10
88.6214
20
-125.301
11
88.8119
21
-125.397
0
LINE
8
BLACK
6
CONTINUOUS
10
89.5738
20
-127.397
11
89.669
21
-127.301
0
LINE
8
BLACK
6
CONTINUOUS
10
89.669
20
-127.301
11
89.8595
21
-127.016
0
LINE
8
BLACK
6
CONTINUOUS
10
89.8595
20
-127.016
11
89.9548
21
-126.825
0
LINE
8
BLACK
6
CONTINUOUS
10
89.9548
20
-126.825
11
90.05
21
-126.54
0
LINE
8
BLACK
6
CONTINUOUS
10
90.05
20
-126.54
11
90.1452
21
-126.063
0
LINE
8
BLACK
6
CONTINUOUS
10
90.1452
20
-126.063
11
90.1452
21
-125.682
0
LINE
8
BLACK
6
CONTINUOUS
10
90.1452
20
-125.682
11
90.05
21
-125.206
0
LINE
8
BLACK
6
CONTINUOUS
10
90.05
20
-125.206
11
89.9548
21
-124.92
0
LINE
8
BLACK
6
CONTINUOUS
10
89.9548
20
-124.92
11
89.8595
21
-124.73
0
LINE
8
BLACK
6
CONTINUOUS
10
89.8595
20
-124.73
11
89.669
21
-124.444
0
LINE
8
BLACK
6
CONTINUOUS
10
89.669
20
-124.444
11
89.5738
21
-124.349
0
LINE
8
BLACK
6
CONTINUOUS
10
39.8036
20
-129.134
11
39.8036
21
-128.426
0
LINE
8
BLACK
6
CONTINUOUS
10
39.8036
20
-128.426
11
39.0964
21
-128.426
0
LINE
8
BLACK
6
CONTINUOUS
10
39.0964
20
-128.426
11
39.0964
21
-129.134
0
LINE
8
BLACK
6
CONTINUOUS
10
39.0964
20
-129.134
11
39.8036
21
-129.134
0
LINE
8
BLACK
6
CONTINUOUS
10
43.5738
20
-129.685
11
42.431
21
-129.685
0
LINE
8
BLACK
6
CONTINUOUS
10
43.0024
20
-129.685
11
43.0024
21
-127.685
0
LINE
8
BLACK
6
CONTINUOUS
10
43.0024
20
-127.685
11
42.8119
21
-127.97
0
LINE
8
BLACK
6
CONTINUOUS
10
42.8119
20
-127.97
11
42.6214
21
-128.161
0
LINE
8
BLACK
6
CONTINUOUS
10
42.6214
20
-128.161
11
42.431
21
-128.256
0
LINE
8
BLACK
6
CONTINUOUS
10
44.431
20
-129.494
11
44.5262
21
-129.59
0
LINE
8
BLACK
6
CONTINUOUS
10
44.5262
20
-129.59
11
44.431
21
-129.685
0
LINE
8
BLACK
6
CONTINUOUS
10
44.431
20
-129.685
11
44.3357
21
-129.59
0
LINE
8
BLACK
6
CONTINUOUS
10
44.3357
20
-129.59
11
44.431
21
-129.494
0
LINE
8
BLACK
6
CONTINUOUS
10
44.431
20
-129.494
11
44.431
21
-129.685
0
LINE
8
BLACK
6
CONTINUOUS
10
45.7643
20
-127.685
11
45.9548
21
-127.685
0
LINE
8
BLACK
6
CONTINUOUS
10
45.9548
20
-127.685
11
46.1452
21
-127.78
0
LINE
8
BLACK
6
CONTINUOUS
10
46.1452
20
-127.78
11
46.2405
21
-127.875
0
LINE
8
BLACK
6
CONTINUOUS
10
46.2405
20
-127.875
11
46.3357
21
-128.066
0
LINE
8
BLACK
6
CONTINUOUS
10
46.3357
20
-128.066
11
46.431
21
-128.447
0
LINE
8
BLACK
6
CONTINUOUS
10
46.431
20
-128.447
11
46.431
21
-128.923
0
LINE
8
BLACK
6
CONTINUOUS
10
46.431
20
-128.923
11
46.3357
21
-129.304
0
LINE
8
BLACK
6
CONTINUOUS
10
46.3357
20
-129.304
11
46.2405
21
-129.494
0
LINE
8
BLACK
6
CONTINUOUS
10
46.2405
20
-129.494
11
46.1452
21
-129.59
0
LINE
8
BLACK
6
CONTINUOUS
10
46.1452
20
-129.59
11
45.9548
21
-129.685
0
LINE
8
BLACK
6
CONTINUOUS
10
45.9548
20
-129.685
11
45.7643
21
-129.685
0
LINE
8
BLACK
6
CONTINUOUS
10
45.7643
20
-129.685
11
45.5738
21
-129.59
0
LINE
8
BLACK
6
CONTINUOUS
10
45.5738
20
-129.59
11
45.4786
21
-129.494
0
LINE
8
BLACK
6
CONTINUOUS
10
45.4786
20
-129.494
11
45.3833
21
-129.304
0
LINE
8
BLACK
6
CONTINUOUS
10
45.3833
20
-129.304
11
45.2881
21
-128.923
0
LINE
8
BLACK
6
CONTINUOUS
10
45.2881
20
-128.923
11
45.2881
21
-128.447
0
LINE
8
BLACK
6
CONTINUOUS
10
45.2881
20
-128.447
11
45.3833
21
-128.066
0
LINE
8
BLACK
6
CONTINUOUS
10
45.3833
20
-128.066
11
45.4786
21
-127.875
0
LINE
8
BLACK
6
CONTINUOUS
10
45.4786
20
-127.875
11
45.5738
21
-127.78
0
LINE
8
BLACK
6
CONTINUOUS
10
45.5738
20
-127.78
11
45.7643
21
-127.685
0
LINE
8
BLACK
6
CONTINUOUS
10
47.669
20
-127.685
11
47.8595
21
-127.685
0
LINE
8
BLACK
6
CONTINUOUS
10
47.8595
20
-127.685
11
48.05
21
-127.78
0
LINE
8
BLACK
6
CONTINUOUS
10
48.05
20
-127.78
11
48.1452
21
-127.875
0
LINE
8
BLACK
6
CONTINUOUS
10
48.1452
20
-127.875
11
48.2405
21
-128.066
0
LINE
8
BLACK
6
CONTINUOUS
10
48.2405
20
-128.066
11
48.3357
21
-128.447
0
LINE
8
BLACK
6
CONTINUOUS
10
48.3357
20
-128.447
11
48.3357
21
-128.923
0
LINE
8
BLACK
6
CONTINUOUS
10
48.3357
20
-128.923
11
48.2405
21
-129.304
0
LINE
8
BLACK
6
CONTINUOUS
10
48.2405
20
-129.304
11
48.1452
21
-129.494
0
LINE
8
BLACK
6
CONTINUOUS
10
48.1452
20
-129.494
11
48.05
21
-129.59
0
LINE
8
BLACK
6
CONTINUOUS
10
48.05
20
-129.59
11
47.8595
21
-129.685
0
LINE
8
BLACK
6
CONTINUOUS
10
47.8595
20
-129.685
11
47.669
21
-129.685
0
LINE
8
BLACK
6
CONTINUOUS
10
47.669
20
-129.685
11
47.4786
21
-129.59
0
LINE
8
BLACK
6
CONTINUOUS
10
47.4786
20
-129.59
11
47.3833
21
-129.494
0
LINE
8
BLACK
6
CONTINUOUS
10
47.3833
20
-129.494
11
47.2881
21
-129.304
0
LINE
8
BLACK
6
CONTINUOUS
10
47.2881
20
-129.304
11
47.1929
21
-128.923
0
LINE
8
BLACK
6
CONTINUOUS
10
47.1929
20
-128.923
11
47.1929
21
-128.447
0
LINE
8
BLACK
6
CONTINUOUS
10
47.1929
20
-128.447
11
47.2881
21
-128.066
0
LINE
8
BLACK
6
CONTINUOUS
10
47.2881
20
-128.066
11
47.3833
21
-127.875
0
LINE
8
BLACK
6
CONTINUOUS
10
47.3833
20
-127.875
11
47.4786
21
-127.78
0
LINE
8
BLACK
6
CONTINUOUS
10
47.4786
20
-127.78
11
47.669
21
-127.685
0
LINE
8
BLACK
6
CONTINUOUS
10
49.5738
20
-127.685
11
49.7643
21
-127.685
0
LINE
8
BLACK
6
CONTINUOUS
10
49.7643
20
-127.685
11
49.9548
21
-127.78
0
LINE
8
BLACK
6
CONTINUOUS
10
49.9548
20
-127.78
11
50.05
21
-127.875
0
LINE
8
BLACK
6
CONTINUOUS
10
50.05
20
-127.875
11
50.1452
21
-128.066
0
LINE
8
BLACK
6
CONTINUOUS
10
50.1452
20
-128.066
11
50.2405
21
-128.447
0
LINE
8
BLACK
6
CONTINUOUS
10
50.2405
20
-128.447
11
50.2405
21
-128.923
0
LINE
8
BLACK
6
CONTINUOUS
10
50.2405
20
-128.923
11
50.1452
21
-129.304
0
LINE
8
BLACK
6
CONTINUOUS
10
50.1452
20
-129.304
11
50.05
21
-129.494
0
LINE
8
BLACK
6
CONTINUOUS
10
50.05
20
-129.494
11
49.9548
21
-129.59
0
LINE
8
BLACK
6
CONTINUOUS
10
49.9548
20
-129.59
11
49.7643
21
-129.685
0
LINE
8
BLACK
6
CONTINUOUS
10
49.7643
20
-129.685
11
49.5738
21
-129.685
0
LINE
8
BLACK
6
CONTINUOUS
10
49.5738
20
-129.685
11
49.3833
21
-129.59
0
LINE
8
BLACK
6
CONTINUOUS
10
49.3833
20
-129.59
11
49.2881
21
-129.494
0
LINE
8
BLACK
6
CONTINUOUS
10
49.2881
20
-129.494
11
49.1929
21
-129.304
0
LINE
8
BLACK
6
CONTINUOUS
10
49.1929
20
-129.304
11
49.0976
21
-128.923
0
LINE
8
BLACK
6
CONTINUOUS
10
49.0976
20
-128.923
11
49.0976
21
-128.447
0
LINE
8
BLACK
6
CONTINUOUS
10
49.0976
20
-128.447
11
49.1929
21
-128.066
0
LINE
8
BLACK
6
CONTINUOUS
10
49.1929
20
-128.066
11
49.2881
21
-127.875
0
LINE
8
BLACK
6
CONTINUOUS
10
49.2881
20
-127.875
11
49.3833
21
-127.78
0
LINE
8
BLACK
6
CONTINUOUS
10
49.3833
20
-127.78
11
49.5738
21
-127.685
0
LINE
8
BLACK
6
CONTINUOUS
10
51.0976
20
-129.685
11
51.0976
21
-128.351
0
LINE
8
BLACK
6
CONTINUOUS
10
51.0976
20
-128.542
11
51.1929
21
-128.447
0
LINE
8
BLACK
6
CONTINUOUS
10
51.1929
20
-128.447
11
51.3833
21
-128.351
0
LINE
8
BLACK
6
CONTINUOUS
10
51.3833
20
-128.351
11
51.669
21
-128.351
0
LINE
8
BLACK
6
CONTINUOUS
10
51.669
20
-128.351
11
51.8595
21
-128.447
0
LINE
8
BLACK
6
CONTINUOUS
10
51.8595
20
-128.447
11
51.9548
21
-128.637
0
LINE
8
BLACK
6
CONTINUOUS
10
51.9548
20
-128.637
11
51.9548
21
-129.685
0
LINE
8
BLACK
6
CONTINUOUS
10
51.9548
20
-128.637
11
52.05
21
-128.447
0
LINE
8
BLACK
6
CONTINUOUS
10
52.05
20
-128.447
11
52.2405
21
-128.351
0
LINE
8
BLACK
6
CONTINUOUS
10
52.2405
20
-128.351
11
52.5262
21
-128.351
0
LINE
8
BLACK
6
CONTINUOUS
10
52.5262
20
-128.351
11
52.7167
21
-128.447
0
LINE
8
BLACK
6
CONTINUOUS
10
52.7167
20
-128.447
11
52.8119
21
-128.637
0
LINE
8
BLACK
6
CONTINUOUS
10
52.8119
20
-128.637
11
52.8119
21
-129.685
0
LINE
8
BLACK
6
CONTINUOUS
10
53.7643
20
-129.685
11
53.7643
21
-128.351
0
LINE
8
BLACK
6
CONTINUOUS
10
53.7643
20
-128.542
11
53.8595
21
-128.447
0
LINE
8
BLACK
6
CONTINUOUS
10
53.8595
20
-128.447
11
54.05
21
-128.351
0
LINE
8
BLACK
6
CONTINUOUS
10
54.05
20
-128.351
11
54.3357
21
-128.351
0
LINE
8
BLACK
6
CONTINUOUS
10
54.3357
20
-128.351
11
54.5262
21
-128.447
0
LINE
8
BLACK
6
CONTINUOUS
10
54.5262
20
-128.447
11
54.6214
21
-128.637
0
LINE
8
BLACK
6
CONTINUOUS
10
54.6214
20
-128.637
11
54.6214
21
-129.685
0
LINE
8
BLACK
6
CONTINUOUS
10
54.6214
20
-128.637
11
54.7167
21
-128.447
0
LINE
8
BLACK
6
CONTINUOUS
10
54.7167
20
-128.447
11
54.9071
21
-128.351
0
LINE
8
BLACK
6
CONTINUOUS
10
54.9071
20
-128.351
11
55.1929
21
-128.351
0
LINE
8
BLACK
6
CONTINUOUS
10
55.1929
20
-128.351
11
55.3833
21
-128.447
0
LINE
8
BLACK
6
CONTINUOUS
10
55.3833
20
-128.447
11
55.4786
21
-128.637
0
LINE
8
BLACK
6
CONTINUOUS
10
55.4786
20
-128.637
11
55.4786
21
-129.685
0
LINE
8
BLACK
6
CONTINUOUS
10
59.3833
20
-127.59
11
57.669
21
-130.161
0
LINE
8
BLACK
6
CONTINUOUS
10
61.9548
20
-127.685
11
62.1452
21
-127.685
0
LINE
8
BLACK
6
CONTINUOUS
10
62.1452
20
-127.685
11
62.3357
21
-127.78
0
LINE
8
BLACK
6
CONTINUOUS
10
62.3357
20
-127.78
11
62.431
21
-127.875
0
LINE
8
BLACK
6
CONTINUOUS
10
62.431
20
-127.875
11
62.5262
21
-128.066
0
LINE
8
BLACK
6
CONTINUOUS
10
62.5262
20
-128.066
11
62.6214
21
-128.447
0
LINE
8
BLACK
6
CONTINUOUS
10
62.6214
20
-128.447
11
62.6214
21
-128.923
0
LINE
8
BLACK
6
CONTINUOUS
10
62.6214
20
-128.923
11
62.5262
21
-129.304
0
LINE
8
BLACK
6
CONTINUOUS
10
62.5262
20
-129.304
11
62.431
21
-129.494
0
LINE
8
BLACK
6
CONTINUOUS
10
62.431
20
-129.494
11
62.3357
21
-129.59
0
LINE
8
BLACK
6
CONTINUOUS
10
62.3357
20
-129.59
11
62.1452
21
-129.685
0
LINE
8
BLACK
6
CONTINUOUS
10
62.1452
20
-129.685
11
61.9548
21
-129.685
0
LINE
8
BLACK
6
CONTINUOUS
10
61.9548
20
-129.685
11
61.7643
21
-129.59
0
LINE
8
BLACK
6
CONTINUOUS
10
61.7643
20
-129.59
11
61.669
21
-129.494
0
LINE
8
BLACK
6
CONTINUOUS
10
61.669
20
-129.494
11
61.5738
21
-129.304
0
LINE
8
BLACK
6
CONTINUOUS
10
61.5738
20
-129.304
11
61.4786
21
-128.923
0
LINE
8
BLACK
6
CONTINUOUS
10
61.4786
20
-128.923
11
61.4786
21
-128.447
0
LINE
8
BLACK
6
CONTINUOUS
10
61.4786
20
-128.447
11
61.5738
21
-128.066
0
LINE
8
BLACK
6
CONTINUOUS
10
61.5738
20
-128.066
11
61.669
21
-127.875
0
LINE
8
BLACK
6
CONTINUOUS
10
61.669
20
-127.875
11
61.7643
21
-127.78
0
LINE
8
BLACK
6
CONTINUOUS
10
61.7643
20
-127.78
11
61.9548
21
-127.685
0
LINE
8
BLACK
6
CONTINUOUS
10
63.4786
20
-129.494
11
63.5738
21
-129.59
0
LINE
8
BLACK
6
CONTINUOUS
10
63.5738
20
-129.59
11
63.4786
21
-129.685
0
LINE
8
BLACK
6
CONTINUOUS
10
63.4786
20
-129.685
11
63.3833
21
-129.59
0
LINE
8
BLACK
6
CONTINUOUS
10
63.3833
20
-129.59
11
63.4786
21
-129.494
0
LINE
8
BLACK
6
CONTINUOUS
10
63.4786
20
-129.494
11
63.4786
21
-129.685
0
LINE
8
BLACK
6
CONTINUOUS
10
64.8119
20
-127.685
11
65.0024
21
-127.685
0
LINE
8
BLACK
6
CONTINUOUS
10
65.0024
20
-127.685
11
65.1929
21
-127.78
0
LINE
8
BLACK
6
CONTINUOUS
10
65.1929
20
-127.78
11
65.2881
21
-127.875
0
LINE
8
BLACK
6
CONTINUOUS
10
65.2881
20
-127.875
11
65.3833
21
-128.066
0
LINE
8
BLACK
6
CONTINUOUS
10
65.3833
20
-128.066
11
65.4786
21
-128.447
0
LINE
8
BLACK
6
CONTINUOUS
10
65.4786
20
-128.447
11
65.4786
21
-128.923
0
LINE
8
BLACK
6
CONTINUOUS
10
65.4786
20
-128.923
11
65.3833
21
-129.304
0
LINE
8
BLACK
6
CONTINUOUS
10
65.3833
20
-129.304
11
65.2881
21
-129.494
0
LINE
8
BLACK
6
CONTINUOUS
10
65.2881
20
-129.494
11
65.1929
21
-129.59
0
LINE
8
BLACK
6
CONTINUOUS
10
65.1929
20
-129.59
11
65.0024
21
-129.685
0
LINE
8
BLACK
6
CONTINUOUS
10
65.0024
20
-129.685
11
64.8119
21
-129.685
0
LINE
8
BLACK
6
CONTINUOUS
10
64.8119
20
-129.685
11
64.6214
21
-129.59
0
LINE
8
BLACK
6
CONTINUOUS
10
64.6214
20
-129.59
11
64.5262
21
-129.494
0
LINE
8
BLACK
6
CONTINUOUS
10
64.5262
20
-129.494
11
64.431
21
-129.304
0
LINE
8
BLACK
6
CONTINUOUS
10
64.431
20
-129.304
11
64.3357
21
-128.923
0
LINE
8
BLACK
6
CONTINUOUS
10
64.3357
20
-128.923
11
64.3357
21
-128.447
0
LINE
8
BLACK
6
CONTINUOUS
10
64.3357
20
-128.447
11
64.431
21
-128.066
0
LINE
8
BLACK
6
CONTINUOUS
10
64.431
20
-128.066
11
64.5262
21
-127.875
0
LINE
8
BLACK
6
CONTINUOUS
10
64.5262
20
-127.875
11
64.6214
21
-127.78
0
LINE
8
BLACK
6
CONTINUOUS
10
64.6214
20
-127.78
11
64.8119
21
-127.685
0
LINE
8
BLACK
6
CONTINUOUS
10
66.1452
20
-127.685
11
67.3833
21
-127.685
0
LINE
8
BLACK
6
CONTINUOUS
10
67.3833
20
-127.685
11
66.7167
21
-128.447
0
LINE
8
BLACK
6
CONTINUOUS
10
66.7167
20
-128.447
11
67.0024
21
-128.447
0
LINE
8
BLACK
6
CONTINUOUS
10
67.0024
20
-128.447
11
67.1929
21
-128.542
0
LINE
8
BLACK
6
CONTINUOUS
10
67.1929
20
-128.542
11
67.2881
21
-128.637
0
LINE
8
BLACK
6
CONTINUOUS
10
67.2881
20
-128.637
11
67.3833
21
-128.828
0
LINE
8
BLACK
6
CONTINUOUS
10
67.3833
20
-128.828
11
67.3833
21
-129.304
0
LINE
8
BLACK
6
CONTINUOUS
10
67.3833
20
-129.304
11
67.2881
21
-129.494
0
LINE
8
BLACK
6
CONTINUOUS
10
67.2881
20
-129.494
11
67.1929
21
-129.59
0
LINE
8
BLACK
6
CONTINUOUS
10
67.1929
20
-129.59
11
67.0024
21
-129.685
0
LINE
8
BLACK
6
CONTINUOUS
10
67.0024
20
-129.685
11
66.431
21
-129.685
0
LINE
8
BLACK
6
CONTINUOUS
10
66.431
20
-129.685
11
66.2405
21
-129.59
0
LINE
8
BLACK
6
CONTINUOUS
10
66.2405
20
-129.59
11
66.1452
21
-129.494
0
LINE
8
BLACK
6
CONTINUOUS
10
68.3357
20
-129.685
11
68.7167
21
-129.685
0
LINE
8
BLACK
6
CONTINUOUS
10
68.7167
20
-129.685
11
68.9071
21
-129.59
0
LINE
8
BLACK
6
CONTINUOUS
10
68.9071
20
-129.59
11
69.0024
21
-129.494
0
LINE
8
BLACK
6
CONTINUOUS
10
69.0024
20
-129.494
11
69.1929
21
-129.209
0
LINE
8
BLACK
6
CONTINUOUS
10
69.1929
20
-129.209
11
69.2881
21
-128.828
0
LINE
8
BLACK
6
CONTINUOUS
10
69.2881
20
-128.828
11
69.2881
21
-128.066
0
LINE
8
BLACK
6
CONTINUOUS
10
69.2881
20
-128.066
11
69.1929
21
-127.875
0
LINE
8
BLACK
6
CONTINUOUS
10
69.1929
20
-127.875
11
69.0976
21
-127.78
0
LINE
8
BLACK
6
CONTINUOUS
10
69.0976
20
-127.78
11
68.9071
21
-127.685
0
LINE
8
BLACK
6
CONTINUOUS
10
68.9071
20
-127.685
11
68.5262
21
-127.685
0
LINE
8
BLACK
6
CONTINUOUS
10
68.5262
20
-127.685
11
68.3357
21
-127.78
0
LINE
8
BLACK
6
CONTINUOUS
10
68.3357
20
-127.78
11
68.2405
21
-127.875
0
LINE
8
BLACK
6
CONTINUOUS
10
68.2405
20
-127.875
11
68.1452
21
-128.066
0
LINE
8
BLACK
6
CONTINUOUS
10
68.1452
20
-128.066
11
68.1452
21
-128.542
0
LINE
8
BLACK
6
CONTINUOUS
10
68.1452
20
-128.542
11
68.2405
21
-128.732
0
LINE
8
BLACK
6
CONTINUOUS
10
68.2405
20
-128.732
11
68.3357
21
-128.828
0
LINE
8
BLACK
6
CONTINUOUS
10
68.3357
20
-128.828
11
68.5262
21
-128.923
0
LINE
8
BLACK
6
CONTINUOUS
10
68.5262
20
-128.923
11
68.9071
21
-128.923
0
LINE
8
BLACK
6
CONTINUOUS
10
68.9071
20
-128.923
11
69.0976
21
-128.828
0
LINE
8
BLACK
6
CONTINUOUS
10
69.0976
20
-128.828
11
69.1929
21
-128.732
0
LINE
8
BLACK
6
CONTINUOUS
10
69.1929
20
-128.732
11
69.2881
21
-128.542
0
LINE
8
BLACK
6
CONTINUOUS
10
71.0024
20
-128.351
11
71.0024
21
-129.685
0
LINE
8
BLACK
6
CONTINUOUS
10
70.5262
20
-127.59
11
70.05
21
-129.018
0
LINE
8
BLACK
6
CONTINUOUS
10
70.05
20
-129.018
11
71.2881
21
-129.018
0
LINE
8
BLACK
6
CONTINUOUS
10
71.9548
20
-127.685
11
71.9548
21
-128.066
0
LINE
8
BLACK
6
CONTINUOUS
10
72.7167
20
-127.685
11
72.7167
21
-128.066
0
LINE
8
BLACK
6
CONTINUOUS
10
75.669
20
-130.447
11
75.5738
21
-130.351
0
LINE
8
BLACK
6
CONTINUOUS
10
75.5738
20
-130.351
11
75.3833
21
-130.066
0
LINE
8
BLACK
6
CONTINUOUS
10
75.3833
20
-130.066
11
75.2881
21
-129.875
0
LINE
8
BLACK
6
CONTINUOUS
10
75.2881
20
-129.875
11
75.1929
21
-129.59
0
LINE
8
BLACK
6
CONTINUOUS
10
75.1929
20
-129.59
11
75.0976
21
-129.113
0
LINE
8
BLACK
6
CONTINUOUS
10
75.0976
20
-129.113
11
75.0976
21
-128.732
0
LINE
8
BLACK
6
CONTINUOUS
10
75.0976
20
-128.732
11
75.1929
21
-128.256
0
LINE
8
BLACK
6
CONTINUOUS
10
75.1929
20
-128.256
11
75.2881
21
-127.97
0
LINE
8
BLACK
6
CONTINUOUS
10
75.2881
20
-127.97
11
75.3833
21
-127.78
0
LINE
8
BLACK
6
CONTINUOUS
10
75.3833
20
-127.78
11
75.5738
21
-127.494
0
LINE
8
BLACK
6
CONTINUOUS
10
75.5738
20
-127.494
11
75.669
21
-127.399
0
LINE
8
BLACK
6
CONTINUOUS
10
76.3357
20
-127.875
11
76.431
21
-127.78
0
LINE
8
BLACK
6
CONTINUOUS
10
76.431
20
-127.78
11
76.6214
21
-127.685
0
LINE
8
BLACK
6
CONTINUOUS
10
76.6214
20
-127.685
11
77.0976
21
-127.685
0
LINE
8
BLACK
6
CONTINUOUS
10
77.0976
20
-127.685
11
77.2881
21
-127.78
0
LINE
8
BLACK
6
CONTINUOUS
10
77.2881
20
-127.78
11
77.3833
21
-127.875
0
LINE
8
BLACK
6
CONTINUOUS
10
77.3833
20
-127.875
11
77.4786
21
-128.066
0
LINE
8
BLACK
6
CONTINUOUS
10
77.4786
20
-128.066
11
77.4786
21
-128.256
0
LINE
8
BLACK
6
CONTINUOUS
10
77.4786
20
-128.256
11
77.3833
21
-128.542
0
LINE
8
BLACK
6
CONTINUOUS
10
77.3833
20
-128.542
11
76.2405
21
-129.685
0
LINE
8
BLACK
6
CONTINUOUS
10
76.2405
20
-129.685
11
77.4786
21
-129.685
0
LINE
8
BLACK
6
CONTINUOUS
10
79.8595
20
-129.685
11
79.8595
21
-127.685
0
LINE
8
BLACK
6
CONTINUOUS
10
80.7167
20
-129.685
11
80.7167
21
-128.637
0
LINE
8
BLACK
6
CONTINUOUS
10
80.7167
20
-128.637
11
80.6214
21
-128.447
0
LINE
8
BLACK
6
CONTINUOUS
10
80.6214
20
-128.447
11
80.431
21
-128.351
0
LINE
8
BLACK
6
CONTINUOUS
10
80.431
20
-128.351
11
80.1452
21
-128.351
0
LINE
8
BLACK
6
CONTINUOUS
10
80.1452
20
-128.351
11
79.9548
21
-128.447
0
LINE
8
BLACK
6
CONTINUOUS
10
79.9548
20
-128.447
11
79.8595
21
-128.542
0
LINE
8
BLACK
6
CONTINUOUS
10
81.9548
20
-129.685
11
81.7643
21
-129.59
0
LINE
8
BLACK
6
CONTINUOUS
10
81.7643
20
-129.59
11
81.669
21
-129.494
0
LINE
8
BLACK
6
CONTINUOUS
10
81.669
20
-129.494
11
81.5738
21
-129.304
0
LINE
8
BLACK
6
CONTINUOUS
10
81.5738
20
-129.304
11
81.5738
21
-128.732
0
LINE
8
BLACK
6
CONTINUOUS
10
81.5738
20
-128.732
11
81.669
21
-128.542
0
LINE
8
BLACK
6
CONTINUOUS
10
81.669
20
-128.542
11
81.7643
21
-128.447
0
LINE
8
BLACK
6
CONTINUOUS
10
81.7643
20
-128.447
11
81.9548
21
-128.351
0
LINE
8
BLACK
6
CONTINUOUS
10
81.9548
20
-128.351
11
82.2405
21
-128.351
0
LINE
8
BLACK
6
CONTINUOUS
10
82.2405
20
-128.351
11
82.431
21
-128.447
0
LINE
8
BLACK
6
CONTINUOUS
10
82.431
20
-128.447
11
82.5262
21
-128.542
0
LINE
8
BLACK
6
CONTINUOUS
10
82.5262
20
-128.542
11
82.6214
21
-128.732
0
LINE
8
BLACK
6
CONTINUOUS
10
82.6214
20
-128.732
11
82.6214
21
-129.304
0
LINE
8
BLACK
6
CONTINUOUS
10
82.6214
20
-129.304
11
82.5262
21
-129.494
0
LINE
8
BLACK
6
CONTINUOUS
10
82.5262
20
-129.494
11
82.431
21
-129.59
0
LINE
8
BLACK
6
CONTINUOUS
10
82.431
20
-129.59
11
82.2405
21
-129.685
0
LINE
8
BLACK
6
CONTINUOUS
10
82.2405
20
-129.685
11
81.9548
21
-129.685
0
LINE
8
BLACK
6
CONTINUOUS
10
83.7643
20
-129.685
11
83.5738
21
-129.59
0
LINE
8
BLACK
6
CONTINUOUS
10
83.5738
20
-129.59
11
83.4786
21
-129.399
0
LINE
8
BLACK
6
CONTINUOUS
10
83.4786
20
-129.399
11
83.4786
21
-127.685
0
LINE
8
BLACK
6
CONTINUOUS
10
85.2881
20
-129.59
11
85.0976
21
-129.685
0
LINE
8
BLACK
6
CONTINUOUS
10
85.0976
20
-129.685
11
84.7167
21
-129.685
0
LINE
8
BLACK
6
CONTINUOUS
10
84.7167
20
-129.685
11
84.5262
21
-129.59
0
LINE
8
BLACK
6
CONTINUOUS
10
84.5262
20
-129.59
11
84.431
21
-129.399
0
LINE
8
BLACK
6
CONTINUOUS
10
84.431
20
-129.399
11
84.431
21
-128.637
0
LINE
8
BLACK
6
CONTINUOUS
10
84.431
20
-128.637
11
84.5262
21
-128.447
0
LINE
8
BLACK
6
CONTINUOUS
10
84.5262
20
-128.447
11
84.7167
21
-128.351
0
LINE
8
BLACK
6
CONTINUOUS
10
84.7167
20
-128.351
11
85.0976
21
-128.351
0
LINE
8
BLACK
6
CONTINUOUS
10
85.0976
20
-128.351
11
85.2881
21
-128.447
0
LINE
8
BLACK
6
CONTINUOUS
10
85.2881
20
-128.447
11
85.3833
21
-128.637
0
LINE
8
BLACK
6
CONTINUOUS
10
85.3833
20
-128.637
11
85.3833
21
-128.828
0
LINE
8
BLACK
6
CONTINUOUS
10
85.3833
20
-128.828
11
84.431
21
-129.018
0
LINE
8
BLACK
6
CONTINUOUS
10
86.1452
20
-129.59
11
86.3357
21
-129.685
0
LINE
8
BLACK
6
CONTINUOUS
10
86.3357
20
-129.685
11
86.7167
21
-129.685
0
LINE
8
BLACK
6
CONTINUOUS
10
86.7167
20
-129.685
11
86.9071
21
-129.59
0
LINE
8
BLACK
6
CONTINUOUS
10
86.9071
20
-129.59
11
87.0024
21
-129.399
0
LINE
8
BLACK
6
CONTINUOUS
10
87.0024
20
-129.399
11
87.0024
21
-129.304
0
LINE
8
BLACK
6
CONTINUOUS
10
87.0024
20
-129.304
11
86.9071
21
-129.113
0
LINE
8
BLACK
6
CONTINUOUS
10
86.9071
20
-129.113
11
86.7167
21
-129.018
0
LINE
8
BLACK
6
CONTINUOUS
10
86.7167
20
-129.018
11
86.431
21
-129.018
0
LINE
8
BLACK
6
CONTINUOUS
10
86.431
20
-129.018
11
86.2405
21
-128.923
0
LINE
8
BLACK
6
CONTINUOUS
10
86.2405
20
-128.923
11
86.1452
21
-128.732
0
LINE
8
BLACK
6
CONTINUOUS
10
86.1452
20
-128.732
11
86.1452
21
-128.637
0
LINE
8
BLACK
6
CONTINUOUS
10
86.1452
20
-128.637
11
86.2405
21
-128.447
0
LINE
8
BLACK
6
CONTINUOUS
10
86.2405
20
-128.447
11
86.431
21
-128.351
0
LINE
8
BLACK
6
CONTINUOUS
10
86.431
20
-128.351
11
86.7167
21
-128.351
0
LINE
8
BLACK
6
CONTINUOUS
10
86.7167
20
-128.351
11
86.9071
21
-128.447
0
LINE
8
BLACK
6
CONTINUOUS
10
87.669
20
-130.447
11
87.7643
21
-130.351
0
LINE
8
BLACK
6
CONTINUOUS
10
87.7643
20
-130.351
11
87.9548
21
-130.066
0
LINE
8
BLACK
6
CONTINUOUS
10
87.9548
20
-130.066
11
88.05
21
-129.875
0
LINE
8
BLACK
6
CONTINUOUS
10
88.05
20
-129.875
11
88.1452
21
-129.59
0
LINE
8
BLACK
6
CONTINUOUS
10
88.1452
20
-129.59
11
88.2405
21
-129.113
0
LINE
8
BLACK
6
CONTINUOUS
10
88.2405
20
-129.113
11
88.2405
21
-128.732
0
LINE
8
BLACK
6
CONTINUOUS
10
88.2405
20
-128.732
11
88.1452
21
-128.256
0
LINE
8
BLACK
6
CONTINUOUS
10
88.1452
20
-128.256
11
88.05
21
-127.97
0
LINE
8
BLACK
6
CONTINUOUS
10
88.05
20
-127.97
11
87.9548
21
-127.78
0
LINE
8
BLACK
6
CONTINUOUS
10
87.9548
20
-127.78
11
87.7643
21
-127.494
0
LINE
8
BLACK
6
CONTINUOUS
10
87.7643
20
-127.494
11
87.669
21
-127.399
0
LINE
8
BLACK
6
CONTINUOUS
10
91.2881
20
-130.447
11
91.1929
21
-130.351
0
LINE
8
BLACK
6
CONTINUOUS
10
91.1929
20
-130.351
11
91.0024
21
-130.066
0
LINE
8
BLACK
6
CONTINUOUS
10
91.0024
20
-130.066
11
90.9071
21
-129.875
0
LINE
8
BLACK
6
CONTINUOUS
10
90.9071
20
-129.875
11
90.8119
21
-129.59
0
LINE
8
BLACK
6
CONTINUOUS
10
90.8119
20
-129.59
11
90.7167
21
-129.113
0
LINE
8
BLACK
6
CONTINUOUS
10
90.7167
20
-129.113
11
90.7167
21
-128.732
0
LINE
8
BLACK
6
CONTINUOUS
10
90.7167
20
-128.732
11
90.8119
21
-128.256
0
LINE
8
BLACK
6
CONTINUOUS
10
90.8119
20
-128.256
11
90.9071
21
-127.97
0
LINE
8
BLACK
6
CONTINUOUS
10
90.9071
20
-127.97
11
91.0024
21
-127.78
0
LINE
8
BLACK
6
CONTINUOUS
10
91.0024
20
-127.78
11
91.1929
21
-127.494
0
LINE
8
BLACK
6
CONTINUOUS
10
91.1929
20
-127.494
11
91.2881
21
-127.399
0
LINE
8
BLACK
6
CONTINUOUS
10
92.05
20
-128.351
11
92.05
21
-129.685
0
LINE
8
BLACK
6
CONTINUOUS
10
92.05
20
-128.542
11
92.1452
21
-128.447
0
LINE
8
BLACK
6
CONTINUOUS
10
92.1452
20
-128.447
11
92.3357
21
-128.351
0
LINE
8
BLACK
6
CONTINUOUS
10
92.3357
20
-128.351
11
92.6214
21
-128.351
0
LINE
8
BLACK
6
CONTINUOUS
10
92.6214
20
-128.351
11
92.8119
21
-128.447
0
LINE
8
BLACK
6
CONTINUOUS
10
92.8119
20
-128.447
11
92.9071
21
-128.637
0
LINE
8
BLACK
6
CONTINUOUS
10
92.9071
20
-128.637
11
92.9071
21
-129.685
0
LINE
8
BLACK
6
CONTINUOUS
10
94.1452
20
-129.685
11
93.9548
21
-129.59
0
LINE
8
BLACK
6
CONTINUOUS
10
93.9548
20
-129.59
11
93.8595
21
-129.494
0
LINE
8
BLACK
6
CONTINUOUS
10
93.8595
20
-129.494
11
93.7643
21
-129.304
0
LINE
8
BLACK
6
CONTINUOUS
10
93.7643
20
-129.304
11
93.7643
21
-128.732
0
LINE
8
BLACK
6
CONTINUOUS
10
93.7643
20
-128.732
11
93.8595
21
-128.542
0
LINE
8
BLACK
6
CONTINUOUS
10
93.8595
20
-128.542
11
93.9548
21
-128.447
0
LINE
8
BLACK
6
CONTINUOUS
10
93.9548
20
-128.447
11
94.1452
21
-128.351
0
LINE
8
BLACK
6
CONTINUOUS
10
94.1452
20
-128.351
11
94.431
21
-128.351
0
LINE
8
BLACK
6
CONTINUOUS
10
94.431
20
-128.351
11
94.6214
21
-128.447
0
LINE
8
BLACK
6
CONTINUOUS
10
94.6214
20
-128.447
11
94.7167
21
-128.542
0
LINE
8
BLACK
6
CONTINUOUS
10
94.7167
20
-128.542
11
94.8119
21
-128.732
0
LINE
8
BLACK
6
CONTINUOUS
10
94.8119
20
-128.732
11
94.8119
21
-129.304
0
LINE
8
BLACK
6
CONTINUOUS
10
94.8119
20
-129.304
11
94.7167
21
-129.494
0
LINE
8
BLACK
6
CONTINUOUS
10
94.7167
20
-129.494
11
94.6214
21
-129.59
0
LINE
8
BLACK
6
CONTINUOUS
10
94.6214
20
-129.59
11
94.431
21
-129.685
0
LINE
8
BLACK
6
CONTINUOUS
10
94.431
20
-129.685
11
94.1452
21
-129.685
0
LINE
8
BLACK
6
CONTINUOUS
10
95.3833
20
-128.351
11
96.1452
21
-128.351
0
LINE
8
BLACK
6
CONTINUOUS
10
95.669
20
-127.685
11
95.669
21
-129.399
0
LINE
8
BLACK
6
CONTINUOUS
10
95.669
20
-129.399
11
95.7643
21
-129.59
0
LINE
8
BLACK
6
CONTINUOUS
10
95.7643
20
-129.59
11
95.9548
21
-129.685
0
LINE
8
BLACK
6
CONTINUOUS
10
95.9548
20
-129.685
11
96.1452
21
-129.685
0
LINE
8
BLACK
6
CONTINUOUS
10
98.3357
20
-128.351
11
98.3357
21
-130.351
0
LINE
8
BLACK
6
CONTINUOUS
10
98.3357
20
-128.447
11
98.5262
21
-128.351
0
LINE
8
BLACK
6
CONTINUOUS
10
98.5262
20
-128.351
11
98.9071
21
-128.351
0
LINE
8
BLACK
6
CONTINUOUS
10
98.9071
20
-128.351
11
99.0976
21
-128.447
0
LINE
8
BLACK
6
CONTINUOUS
10
99.0976
20
-128.447
11
99.1929
21
-128.542
0
LINE
8
BLACK
6
CONTINUOUS
10
99.1929
20
-128.542
11
99.2881
21
-128.732
0
LINE
8
BLACK
6
CONTINUOUS
10
99.2881
20
-128.732
11
99.2881
21
-129.304
0
LINE
8
BLACK
6
CONTINUOUS
10
99.2881
20
-129.304
11
99.1929
21
-129.494
0
LINE
8
BLACK
6
CONTINUOUS
10
99.1929
20
-129.494
11
99.0976
21
-129.59
0
LINE
8
BLACK
6
CONTINUOUS
10
99.0976
20
-129.59
11
98.9071
21
-129.685
0
LINE
8
BLACK
6
CONTINUOUS
10
98.9071
20
-129.685
11
98.5262
21
-129.685
0
LINE
8
BLACK
6
CONTINUOUS
10
98.5262
20
-129.685
11
98.3357
21
-129.59
0
LINE
8
BLACK
6
CONTINUOUS
10
100.431
20
-129.685
11
100.24
21
-129.59
0
LINE
8
BLACK
6
CONTINUOUS
10
100.24
20
-129.59
11
100.145
21
-129.399
0
LINE
8
BLACK
6
CONTINUOUS
10
100.145
20
-129.399
11
100.145
21
-127.685
0
LINE
8
BLACK
6
CONTINUOUS
10
102.05
20
-129.685
11
102.05
21
-128.637
0
LINE
8
BLACK
6
CONTINUOUS
10
102.05
20
-128.637
11
101.955
21
-128.447
0
LINE
8
BLACK
6
CONTINUOUS
10
101.955
20
-128.447
11
101.764
21
-128.351
0
LINE
8
BLACK
6
CONTINUOUS
10
101.764
20
-128.351
11
101.383
21
-128.351
0
LINE
8
BLACK
6
CONTINUOUS
10
101.383
20
-128.351
11
101.193
21
-128.447
0
LINE
8
BLACK
6
CONTINUOUS
10
102.05
20
-129.59
11
101.86
21
-129.685
0
LINE
8
BLACK
6
CONTINUOUS
10
101.86
20
-129.685
11
101.383
21
-129.685
0
LINE
8
BLACK
6
CONTINUOUS
10
101.383
20
-129.685
11
101.193
21
-129.59
0
LINE
8
BLACK
6
CONTINUOUS
10
101.193
20
-129.59
11
101.098
21
-129.399
0
LINE
8
BLACK
6
CONTINUOUS
10
101.098
20
-129.399
11
101.098
21
-129.209
0
LINE
8
BLACK
6
CONTINUOUS
10
101.098
20
-129.209
11
101.193
21
-129.018
0
LINE
8
BLACK
6
CONTINUOUS
10
101.193
20
-129.018
11
101.383
21
-128.923
0
LINE
8
BLACK
6
CONTINUOUS
10
101.383
20
-128.923
11
101.86
21
-128.923
0
LINE
8
BLACK
6
CONTINUOUS
10
101.86
20
-128.923
11
102.05
21
-128.828
0
LINE
8
BLACK
6
CONTINUOUS
10
102.717
20
-128.351
11
103.479
21
-128.351
0
LINE
8
BLACK
6
CONTINUOUS
10
103.002
20
-127.685
11
103.002
21
-129.399
0
LINE
8
BLACK
6
CONTINUOUS
10
103.002
20
-129.399
11
103.098
21
-129.59
0
LINE
8
BLACK
6
CONTINUOUS
10
103.098
20
-129.59
11
103.288
21
-129.685
0
LINE
8
BLACK
6
CONTINUOUS
10
103.288
20
-129.685
11
103.479
21
-129.685
0
LINE
8
BLACK
6
CONTINUOUS
10
104.907
20
-129.59
11
104.717
21
-129.685
0
LINE
8
BLACK
6
CONTINUOUS
10
104.717
20
-129.685
11
104.336
21
-129.685
0
LINE
8
BLACK
6
CONTINUOUS
10
104.336
20
-129.685
11
104.145
21
-129.59
0
LINE
8
BLACK
6
CONTINUOUS
10
104.145
20
-129.59
11
104.05
21
-129.399
0
LINE
8
BLACK
6
CONTINUOUS
10
104.05
20
-129.399
11
104.05
21
-128.637
0
LINE
8
BLACK
6
CONTINUOUS
10
104.05
20
-128.637
11
104.145
21
-128.447
0
LINE
8
BLACK
6
CONTINUOUS
10
104.145
20
-128.447
11
104.336
21
-128.351
0
LINE
8
BLACK
6
CONTINUOUS
10
104.336
20
-128.351
11
104.717
21
-128.351
0
LINE
8
BLACK
6
CONTINUOUS
10
104.717
20
-128.351
11
104.907
21
-128.447
0
LINE
8
BLACK
6
CONTINUOUS
10
104.907
20
-128.447
11
105.002
21
-128.637
0
LINE
8
BLACK
6
CONTINUOUS
10
105.002
20
-128.637
11
105.002
21
-128.828
0
LINE
8
BLACK
6
CONTINUOUS
10
105.002
20
-128.828
11
104.05
21
-129.018
0
LINE
8
BLACK
6
CONTINUOUS
10
106.717
20
-129.685
11
106.717
21
-127.685
0
LINE
8
BLACK
6
CONTINUOUS
10
106.717
20
-129.59
11
106.526
21
-129.685
0
LINE
8
BLACK
6
CONTINUOUS
10
106.526
20
-129.685
11
106.145
21
-129.685
0
LINE
8
BLACK
6
CONTINUOUS
10
106.145
20
-129.685
11
105.955
21
-129.59
0
LINE
8
BLACK
6
CONTINUOUS
10
105.955
20
-129.59
11
105.86
21
-129.494
0
LINE
8
BLACK
6
CONTINUOUS
10
105.86
20
-129.494
11
105.764
21
-129.304
0
LINE
8
BLACK
6
CONTINUOUS
10
105.764
20
-129.304
11
105.764
21
-128.732
0
LINE
8
BLACK
6
CONTINUOUS
10
105.764
20
-128.732
11
105.86
21
-128.542
0
LINE
8
BLACK
6
CONTINUOUS
10
105.86
20
-128.542
11
105.955
21
-128.447
0
LINE
8
BLACK
6
CONTINUOUS
10
105.955
20
-128.447
11
106.145
21
-128.351
0
LINE
8
BLACK
6
CONTINUOUS
10
106.145
20
-128.351
11
106.526
21
-128.351
0
LINE
8
BLACK
6
CONTINUOUS
10
106.526
20
-128.351
11
106.717
21
-128.447
0
LINE
8
BLACK
6
CONTINUOUS
10
107.479
20
-130.447
11
107.574
21
-130.351
0
LINE
8
BLACK
6
CONTINUOUS
10
107.574
20
-130.351
11
107.764
21
-130.066
0
LINE
8
BLACK
6
CONTINUOUS
10
107.764
20
-130.066
11
107.86
21
-129.875
0
LINE
8
BLACK
6
CONTINUOUS
10
107.86
20
-129.875
11
107.955
21
-129.59
0
LINE
8
BLACK
6
CONTINUOUS
10
107.955
20
-129.59
11
108.05
21
-129.113
0
LINE
8
BLACK
6
CONTINUOUS
10
108.05
20
-129.113
11
108.05
21
-128.732
0
LINE
8
BLACK
6
CONTINUOUS
10
108.05
20
-128.732
11
107.955
21
-128.256
0
LINE
8
BLACK
6
CONTINUOUS
10
107.955
20
-128.256
11
107.86
21
-127.97
0
LINE
8
BLACK
6
CONTINUOUS
10
107.86
20
-127.97
11
107.764
21
-127.78
0
LINE
8
BLACK
6
CONTINUOUS
10
107.764
20
-127.78
11
107.574
21
-127.494
0
LINE
8
BLACK
6
CONTINUOUS
10
107.574
20
-127.494
11
107.479
21
-127.399
0
LINE
8
BLACK
6
CONTINUOUS
10
38.95
20
-132.42
11
39.95
21
-131.42
0
LINE
8
BLACK
6
CONTINUOUS
10
39.95
20
-131.42
11
38.95
21
-130.42
0
LINE
8
BLACK
6
CONTINUOUS
10
38.95
20
-130.42
11
37.95
21
-131.42
0
LINE
8
BLACK
6
CONTINUOUS
10
37.95
20
-131.42
11
38.95
21
-132.42
0
LINE
8
BLACK
6
CONTINUOUS
10
42.3357
20
-130.325
11
43.5738
21
-130.325
0
LINE
8
BLACK
6
CONTINUOUS
10
43.5738
20
-130.325
11
42.9071
21
-131.087
0
LINE
8
BLACK
6
CONTINUOUS
10
42.9071
20
-131.087
11
43.1929
21
-131.087
0
LINE
8
BLACK
6
CONTINUOUS
10
43.1929
20
-131.087
11
43.3833
21
-131.182
0
LINE
8
BLACK
6
CONTINUOUS
10
43.3833
20
-131.182
11
43.4786
21
-131.277
0
LINE
8
BLACK
6
CONTINUOUS
10
43.4786
20
-131.277
11
43.5738
21
-131.468
0
LINE
8
BLACK
6
CONTINUOUS
10
43.5738
20
-131.468
11
43.5738
21
-131.944
0
LINE
8
BLACK
6
CONTINUOUS
10
43.5738
20
-131.944
11
43.4786
21
-132.134
0
LINE
8
BLACK
6
CONTINUOUS
10
43.4786
20
-132.134
11
43.3833
21
-132.23
0
LINE
8
BLACK
6
CONTINUOUS
10
43.3833
20
-132.23
11
43.1929
21
-132.325
0
LINE
8
BLACK
6
CONTINUOUS
10
43.1929
20
-132.325
11
42.6214
21
-132.325
0
LINE
8
BLACK
6
CONTINUOUS
10
42.6214
20
-132.325
11
42.431
21
-132.23
0
LINE
8
BLACK
6
CONTINUOUS
10
42.431
20
-132.23
11
42.3357
21
-132.134
0
LINE
8
BLACK
6
CONTINUOUS
10
44.431
20
-132.134
11
44.5262
21
-132.23
0
LINE
8
BLACK
6
CONTINUOUS
10
44.5262
20
-132.23
11
44.431
21
-132.325
0
LINE
8
BLACK
6
CONTINUOUS
10
44.431
20
-132.325
11
44.3357
21
-132.23
0
LINE
8
BLACK
6
CONTINUOUS
10
44.3357
20
-132.23
11
44.431
21
-132.134
0
LINE
8
BLACK
6
CONTINUOUS
10
44.431
20
-132.134
11
44.431
21
-132.325
0
LINE
8
BLACK
6
CONTINUOUS
10
45.2881
20
-130.515
11
45.3833
21
-130.42
0
LINE
8
BLACK
6
CONTINUOUS
10
45.3833
20
-130.42
11
45.5738
21
-130.325
0
LINE
8
BLACK
6
CONTINUOUS
10
45.5738
20
-130.325
11
46.05
21
-130.325
0
LINE
8
BLACK
6
CONTINUOUS
10
46.05
20
-130.325
11
46.2405
21
-130.42
0
LINE
8
BLACK
6
CONTINUOUS
10
46.2405
20
-130.42
11
46.3357
21
-130.515
0
LINE
8
BLACK
6
CONTINUOUS
10
46.3357
20
-130.515
11
46.431
21
-130.706
0
LINE
8
BLACK
6
CONTINUOUS
10
46.431
20
-130.706
11
46.431
21
-130.896
0
LINE
8
BLACK
6
CONTINUOUS
10
46.431
20
-130.896
11
46.3357
21
-131.182
0
LINE
8
BLACK
6
CONTINUOUS
10
46.3357
20
-131.182
11
45.1929
21
-132.325
0
LINE
8
BLACK
6
CONTINUOUS
10
45.1929
20
-132.325
11
46.431
21
-132.325
0
LINE
8
BLACK
6
CONTINUOUS
10
47.669
20
-130.325
11
47.8595
21
-130.325
0
LINE
8
BLACK
6
CONTINUOUS
10
47.8595
20
-130.325
11
48.05
21
-130.42
0
LINE
8
BLACK
6
CONTINUOUS
10
48.05
20
-130.42
11
48.1452
21
-130.515
0
LINE
8
BLACK
6
CONTINUOUS
10
48.1452
20
-130.515
11
48.2405
21
-130.706
0
LINE
8
BLACK
6
CONTINUOUS
10
48.2405
20
-130.706
11
48.3357
21
-131.087
0
LINE
8
BLACK
6
CONTINUOUS
10
48.3357
20
-131.087
11
48.3357
21
-131.563
0
LINE
8
BLACK
6
CONTINUOUS
10
48.3357
20
-131.563
11
48.2405
21
-131.944
0
LINE
8
BLACK
6
CONTINUOUS
10
48.2405
20
-131.944
11
48.1452
21
-132.134
0
LINE
8
BLACK
6
CONTINUOUS
10
48.1452
20
-132.134
11
48.05
21
-132.23
0
LINE
8
BLACK
6
CONTINUOUS
10
48.05
20
-132.23
11
47.8595
21
-132.325
0
LINE
8
BLACK
6
CONTINUOUS
10
47.8595
20
-132.325
11
47.669
21
-132.325
0
LINE
8
BLACK
6
CONTINUOUS
10
47.669
20
-132.325
11
47.4786
21
-132.23
0
LINE
8
BLACK
6
CONTINUOUS
10
47.4786
20
-132.23
11
47.3833
21
-132.134
0
LINE
8
BLACK
6
CONTINUOUS
10
47.3833
20
-132.134
11
47.2881
21
-131.944
0
LINE
8
BLACK
6
CONTINUOUS
10
47.2881
20
-131.944
11
47.1929
21
-131.563
0
LINE
8
BLACK
6
CONTINUOUS
10
47.1929
20
-131.563
11
47.1929
21
-131.087
0
LINE
8
BLACK
6
CONTINUOUS
10
47.1929
20
-131.087
11
47.2881
21
-130.706
0
LINE
8
BLACK
6
CONTINUOUS
10
47.2881
20
-130.706
11
47.3833
21
-130.515
0
LINE
8
BLACK
6
CONTINUOUS
10
47.3833
20
-130.515
11
47.4786
21
-130.42
0
LINE
8
BLACK
6
CONTINUOUS
10
47.4786
20
-130.42
11
47.669
21
-130.325
0
LINE
8
BLACK
6
CONTINUOUS
10
49.5738
20
-130.325
11
49.7643
21
-130.325
0
LINE
8
BLACK
6
CONTINUOUS
10
49.7643
20
-130.325
11
49.9548
21
-130.42
0
LINE
8
BLACK
6
CONTINUOUS
10
49.9548
20
-130.42
11
50.05
21
-130.515
0
LINE
8
BLACK
6
CONTINUOUS
10
50.05
20
-130.515
11
50.1452
21
-130.706
0
LINE
8
BLACK
6
CONTINUOUS
10
50.1452
20
-130.706
11
50.2405
21
-131.087
0
LINE
8
BLACK
6
CONTINUOUS
10
50.2405
20
-131.087
11
50.2405
21
-131.563
0
LINE
8
BLACK
6
CONTINUOUS
10
50.2405
20
-131.563
11
50.1452
21
-131.944
0
LINE
8
BLACK
6
CONTINUOUS
10
50.1452
20
-131.944
11
50.05
21
-132.134
0
LINE
8
BLACK
6
CONTINUOUS
10
50.05
20
-132.134
11
49.9548
21
-132.23
0
LINE
8
BLACK
6
CONTINUOUS
10
49.9548
20
-132.23
11
49.7643
21
-132.325
0
LINE
8
BLACK
6
CONTINUOUS
10
49.7643
20
-132.325
11
49.5738
21
-132.325
0
LINE
8
BLACK
6
CONTINUOUS
10
49.5738
20
-132.325
11
49.3833
21
-132.23
0
LINE
8
BLACK
6
CONTINUOUS
10
49.3833
20
-132.23
11
49.2881
21
-132.134
0
LINE
8
BLACK
6
CONTINUOUS
10
49.2881
20
-132.134
11
49.1929
21
-131.944
0
LINE
8
BLACK
6
CONTINUOUS
10
49.1929
20
-131.944
11
49.0976
21
-131.563
0
LINE
8
BLACK
6
CONTINUOUS
10
49.0976
20
-131.563
11
49.0976
21
-131.087
0
LINE
8
BLACK
6
CONTINUOUS
10
49.0976
20
-131.087
11
49.1929
21
-130.706
0
LINE
8
BLACK
6
CONTINUOUS
10
49.1929
20
-130.706
11
49.2881
21
-130.515
0
LINE
8
BLACK
6
CONTINUOUS
10
49.2881
20
-130.515
11
49.3833
21
-130.42
0
LINE
8
BLACK
6
CONTINUOUS
10
49.3833
20
-130.42
11
49.5738
21
-130.325
0
LINE
8
BLACK
6
CONTINUOUS
10
51.0976
20
-132.325
11
51.0976
21
-130.991
0
LINE
8
BLACK
6
CONTINUOUS
10
51.0976
20
-131.182
11
51.1929
21
-131.087
0
LINE
8
BLACK
6
CONTINUOUS
10
51.1929
20
-131.087
11
51.3833
21
-130.991
0
LINE
8
BLACK
6
CONTINUOUS
10
51.3833
20
-130.991
11
51.669
21
-130.991
0
LINE
8
BLACK
6
CONTINUOUS
10
51.669
20
-130.991
11
51.8595
21
-131.087
0
LINE
8
BLACK
6
CONTINUOUS
10
51.8595
20
-131.087
11
51.9548
21
-131.277
0
LINE
8
BLACK
6
CONTINUOUS
10
51.9548
20
-131.277
11
51.9548
21
-132.325
0
LINE
8
BLACK
6
CONTINUOUS
10
51.9548
20
-131.277
11
52.05
21
-131.087
0
LINE
8
BLACK
6
CONTINUOUS
10
52.05
20
-131.087
11
52.2405
21
-130.991
0
LINE
8
BLACK
6
CONTINUOUS
10
52.2405
20
-130.991
11
52.5262
21
-130.991
0
LINE
8
BLACK
6
CONTINUOUS
10
52.5262
20
-130.991
11
52.7167
21
-131.087
0
LINE
8
BLACK
6
CONTINUOUS
10
52.7167
20
-131.087
11
52.8119
21
-131.277
0
LINE
8
BLACK
6
CONTINUOUS
10
52.8119
20
-131.277
11
52.8119
21
-132.325
0
LINE
8
BLACK
6
CONTINUOUS
10
53.7643
20
-132.325
11
53.7643
21
-130.991
0
LINE
8
BLACK
6
CONTINUOUS
10
53.7643
20
-131.182
11
53.8595
21
-131.087
0
LINE
8
BLACK
6
CONTINUOUS
10
53.8595
20
-131.087
11
54.05
21
-130.991
0
LINE
8
BLACK
6
CONTINUOUS
10
54.05
20
-130.991
11
54.3357
21
-130.991
0
LINE
8
BLACK
6
CONTINUOUS
10
54.3357
20
-130.991
11
54.5262
21
-131.087
0
LINE
8
BLACK
6
CONTINUOUS
10
54.5262
20
-131.087
11
54.6214
21
-131.277
0
LINE
8
BLACK
6
CONTINUOUS
10
54.6214
20
-131.277
11
54.6214
21
-132.325
0
LINE
8
BLACK
6
CONTINUOUS
10
54.6214
20
-131.277
11
54.7167
21
-131.087
0
LINE
8
BLACK
6
CONTINUOUS
10
54.7167
20
-131.087
11
54.9071
21
-130.991
0
LINE
8
BLACK
6
CONTINUOUS
10
54.9071
20
-130.991
11
55.1929
21
-130.991
0
LINE
8
BLACK
6
CONTINUOUS
10
55.1929
20
-130.991
11
55.3833
21
-131.087
0
LINE
8
BLACK
6
CONTINUOUS
10
55.3833
20
-131.087
11
55.4786
21
-131.277
0
LINE
8
BLACK
6
CONTINUOUS
10
55.4786
20
-131.277
11
55.4786
21
-132.325
0
LINE
8
BLACK
6
CONTINUOUS
10
59.3833
20
-130.23
11
57.669
21
-132.801
0
LINE
8
BLACK
6
CONTINUOUS
10
61.9548
20
-130.325
11
62.1452
21
-130.325
0
LINE
8
BLACK
6
CONTINUOUS
10
62.1452
20
-130.325
11
62.3357
21
-130.42
0
LINE
8
BLACK
6
CONTINUOUS
10
62.3357
20
-130.42
11
62.431
21
-130.515
0
LINE
8
BLACK
6
CONTINUOUS
10
62.431
20
-130.515
11
62.5262
21
-130.706
0
LINE
8
BLACK
6
CONTINUOUS
10
62.5262
20
-130.706
11
62.6214
21
-131.087
0
LINE
8
BLACK
6
CONTINUOUS
10
62.6214
20
-131.087
11
62.6214
21
-131.563
0
LINE
8
BLACK
6
CONTINUOUS
10
62.6214
20
-131.563
11
62.5262
21
-131.944
0
LINE
8
BLACK
6
CONTINUOUS
10
62.5262
20
-131.944
11
62.431
21
-132.134
0
LINE
8
BLACK
6
CONTINUOUS
10
62.431
20
-132.134
11
62.3357
21
-132.23
0
LINE
8
BLACK
6
CONTINUOUS
10
62.3357
20
-132.23
11
62.1452
21
-132.325
0
LINE
8
BLACK
6
CONTINUOUS
10
62.1452
20
-132.325
11
61.9548
21
-132.325
0
LINE
8
BLACK
6
CONTINUOUS
10
61.9548
20
-132.325
11
61.7643
21
-132.23
0
LINE
8
BLACK
6
CONTINUOUS
10
61.7643
20
-132.23
11
61.669
21
-132.134
0
LINE
8
BLACK
6
CONTINUOUS
10
61.669
20
-132.134
11
61.5738
21
-131.944
0
LINE
8
BLACK
6
CONTINUOUS
10
61.5738
20
-131.944
11
61.4786
21
-131.563
0
LINE
8
BLACK
6
CONTINUOUS
10
61.4786
20
-131.563
11
61.4786
21
-131.087
0
LINE
8
BLACK
6
CONTINUOUS
10
61.4786
20
-131.087
11
61.5738
21
-130.706
0
LINE
8
BLACK
6
CONTINUOUS
10
61.5738
20
-130.706
11
61.669
21
-130.515
0
LINE
8
BLACK
6
CONTINUOUS
10
61.669
20
-130.515
11
61.7643
21
-130.42
0
LINE
8
BLACK
6
CONTINUOUS
10
61.7643
20
-130.42
11
61.9548
21
-130.325
0
LINE
8
BLACK
6
CONTINUOUS
10
63.4786
20
-132.134
11
63.5738
21
-132.23
0
LINE
8
BLACK
6
CONTINUOUS
10
63.5738
20
-132.23
11
63.4786
21
-132.325
0
LINE
8
BLACK
6
CONTINUOUS
10
63.4786
20
-132.325
11
63.3833
21
-132.23
0
LINE
8
BLACK
6
CONTINUOUS
10
63.3833
20
-132.23
11
63.4786
21
-132.134
0
LINE
8
BLACK
6
CONTINUOUS
10
63.4786
20
-132.134
11
63.4786
21
-132.325
0
LINE
8
BLACK
6
CONTINUOUS
10
65.4786
20
-132.325
11
64.3357
21
-132.325
0
LINE
8
BLACK
6
CONTINUOUS
10
64.9071
20
-132.325
11
64.9071
21
-130.325
0
LINE
8
BLACK
6
CONTINUOUS
10
64.9071
20
-130.325
11
64.7167
21
-130.61
0
LINE
8
BLACK
6
CONTINUOUS
10
64.7167
20
-130.61
11
64.5262
21
-130.801
0
LINE
8
BLACK
6
CONTINUOUS
10
64.5262
20
-130.801
11
64.3357
21
-130.896
0
LINE
8
BLACK
6
CONTINUOUS
10
66.2405
20
-130.515
11
66.3357
21
-130.42
0
LINE
8
BLACK
6
CONTINUOUS
10
66.3357
20
-130.42
11
66.5262
21
-130.325
0
LINE
8
BLACK
6
CONTINUOUS
10
66.5262
20
-130.325
11
67.0024
21
-130.325
0
LINE
8
BLACK
6
CONTINUOUS
10
67.0024
20
-130.325
11
67.1929
21
-130.42
0
LINE
8
BLACK
6
CONTINUOUS
10
67.1929
20
-130.42
11
67.2881
21
-130.515
0
LINE
8
BLACK
6
CONTINUOUS
10
67.2881
20
-130.515
11
67.3833
21
-130.706
0
LINE
8
BLACK
6
CONTINUOUS
10
67.3833
20
-130.706
11
67.3833
21
-130.896
0
LINE
8
BLACK
6
CONTINUOUS
10
67.3833
20
-130.896
11
67.2881
21
-131.182
0
LINE
8
BLACK
6
CONTINUOUS
10
67.2881
20
-131.182
11
66.1452
21
-132.325
0
LINE
8
BLACK
6
CONTINUOUS
10
66.1452
20
-132.325
11
67.3833
21
-132.325
0
LINE
8
BLACK
6
CONTINUOUS
10
69.0976
20
-130.325
11
68.7167
21
-130.325
0
LINE
8
BLACK
6
CONTINUOUS
10
68.7167
20
-130.325
11
68.5262
21
-130.42
0
LINE
8
BLACK
6
CONTINUOUS
10
68.5262
20
-130.42
11
68.431
21
-130.515
0
LINE
8
BLACK
6
CONTINUOUS
10
68.431
20
-130.515
11
68.2405
21
-130.801
0
LINE
8
BLACK
6
CONTINUOUS
10
68.2405
20
-130.801
11
68.1452
21
-131.182
0
LINE
8
BLACK
6
CONTINUOUS
10
68.1452
20
-131.182
11
68.1452
21
-131.944
0
LINE
8
BLACK
6
CONTINUOUS
10
68.1452
20
-131.944
11
68.2405
21
-132.134
0
LINE
8
BLACK
6
CONTINUOUS
10
68.2405
20
-132.134
11
68.3357
21
-132.23
0
LINE
8
BLACK
6
CONTINUOUS
10
68.3357
20
-132.23
11
68.5262
21
-132.325
0
LINE
8
BLACK
6
CONTINUOUS
10
68.5262
20
-132.325
11
68.9071
21
-132.325
0
LINE
8
BLACK
6
CONTINUOUS
10
68.9071
20
-132.325
11
69.0976
21
-132.23
0
LINE
8
BLACK
6
CONTINUOUS
10
69.0976
20
-132.23
11
69.1929
21
-132.134
0
LINE
8
BLACK
6
CONTINUOUS
10
69.1929
20
-132.134
11
69.2881
21
-131.944
0
LINE
8
BLACK
6
CONTINUOUS
10
69.2881
20
-131.944
11
69.2881
21
-131.468
0
LINE
8
BLACK
6
CONTINUOUS
10
69.2881
20
-131.468
11
69.1929
21
-131.277
0
LINE
8
BLACK
6
CONTINUOUS
10
69.1929
20
-131.277
11
69.0976
21
-131.182
0
LINE
8
BLACK
6
CONTINUOUS
10
69.0976
20
-131.182
11
68.9071
21
-131.087
0
LINE
8
BLACK
6
CONTINUOUS
10
68.9071
20
-131.087
11
68.5262
21
-131.087
0
LINE
8
BLACK
6
CONTINUOUS
10
68.5262
20
-131.087
11
68.3357
21
-131.182
0
LINE
8
BLACK
6
CONTINUOUS
10
68.3357
20
-131.182
11
68.2405
21
-131.277
0
LINE
8
BLACK
6
CONTINUOUS
10
68.2405
20
-131.277
11
68.1452
21
-131.468
0
LINE
8
BLACK
6
CONTINUOUS
10
70.5262
20
-130.325
11
70.7167
21
-130.325
0
LINE
8
BLACK
6
CONTINUOUS
10
70.7167
20
-130.325
11
70.9071
21
-130.42
0
LINE
8
BLACK
6
CONTINUOUS
10
70.9071
20
-130.42
11
71.0024
21
-130.515
0
LINE
8
BLACK
6
CONTINUOUS
10
71.0024
20
-130.515
11
71.0976
21
-130.706
0
LINE
8
BLACK
6
CONTINUOUS
10
71.0976
20
-130.706
11
71.1929
21
-131.087
0
LINE
8
BLACK
6
CONTINUOUS
10
71.1929
20
-131.087
11
71.1929
21
-131.563
0
LINE
8
BLACK
6
CONTINUOUS
10
71.1929
20
-131.563
11
71.0976
21
-131.944
0
LINE
8
BLACK
6
CONTINUOUS
10
71.0976
20
-131.944
11
71.0024
21
-132.134
0
LINE
8
BLACK
6
CONTINUOUS
10
71.0024
20
-132.134
11
70.9071
21
-132.23
0
LINE
8
BLACK
6
CONTINUOUS
10
70.9071
20
-132.23
11
70.7167
21
-132.325
0
LINE
8
BLACK
6
CONTINUOUS
10
70.7167
20
-132.325
11
70.5262
21
-132.325
0
LINE
8
BLACK
6
CONTINUOUS
10
70.5262
20
-132.325
11
70.3357
21
-132.23
0
LINE
8
BLACK
6
CONTINUOUS
10
70.3357
20
-132.23
11
70.2405
21
-132.134
0
LINE
8
BLACK
6
CONTINUOUS
10
70.2405
20
-132.134
11
70.1452
21
-131.944
0
LINE
8
BLACK
6
CONTINUOUS
10
70.1452
20
-131.944
11
70.05
21
-131.563
0
LINE
8
BLACK
6
CONTINUOUS
10
70.05
20
-131.563
11
70.05
21
-131.087
0
LINE
8
BLACK
6
CONTINUOUS
10
70.05
20
-131.087
11
70.1452
21
-130.706
0
LINE
8
BLACK
6
CONTINUOUS
10
70.1452
20
-130.706
11
70.2405
21
-130.515
0
LINE
8
BLACK
6
CONTINUOUS
10
70.2405
20
-130.515
11
70.3357
21
-130.42
0
LINE
8
BLACK
6
CONTINUOUS
10
70.3357
20
-130.42
11
70.5262
21
-130.325
0
LINE
8
BLACK
6
CONTINUOUS
10
71.9548
20
-130.325
11
71.9548
21
-130.706
0
LINE
8
BLACK
6
CONTINUOUS
10
72.7167
20
-130.325
11
72.7167
21
-130.706
0
LINE
8
BLACK
6
CONTINUOUS
10
75.669
20
-133.087
11
75.5738
21
-132.991
0
LINE
8
BLACK
6
CONTINUOUS
10
75.5738
20
-132.991
11
75.3833
21
-132.706
0
LINE
8
BLACK
6
CONTINUOUS
10
75.3833
20
-132.706
11
75.2881
21
-132.515
0
LINE
8
BLACK
6
CONTINUOUS
10
75.2881
20
-132.515
11
75.1929
21
-132.23
0
LINE
8
BLACK
6
CONTINUOUS
10
75.1929
20
-132.23
11
75.0976
21
-131.753
0
LINE
8
BLACK
6
CONTINUOUS
10
75.0976
20
-131.753
11
75.0976
21
-131.372
0
LINE
8
BLACK
6
CONTINUOUS
10
75.0976
20
-131.372
11
75.1929
21
-130.896
0
LINE
8
BLACK
6
CONTINUOUS
10
75.1929
20
-130.896
11
75.2881
21
-130.61
0
LINE
8
BLACK
6
CONTINUOUS
10
75.2881
20
-130.61
11
75.3833
21
-130.42
0
LINE
8
BLACK
6
CONTINUOUS
10
75.3833
20
-130.42
11
75.5738
21
-130.134
0
LINE
8
BLACK
6
CONTINUOUS
10
75.5738
20
-130.134
11
75.669
21
-130.039
0
LINE
8
BLACK
6
CONTINUOUS
10
76.7167
20
-131.182
11
76.5262
21
-131.087
0
LINE
8
BLACK
6
CONTINUOUS
10
76.5262
20
-131.087
11
76.431
21
-130.991
0
LINE
8
BLACK
6
CONTINUOUS
10
76.431
20
-130.991
11
76.3357
21
-130.801
0
LINE
8
BLACK
6
CONTINUOUS
10
76.3357
20
-130.801
11
76.3357
21
-130.706
0
LINE
8
BLACK
6
CONTINUOUS
10
76.3357
20
-130.706
11
76.431
21
-130.515
0
LINE
8
BLACK
6
CONTINUOUS
10
76.431
20
-130.515
11
76.5262
21
-130.42
0
LINE
8
BLACK
6
CONTINUOUS
10
76.5262
20
-130.42
11
76.7167
21
-130.325
0
LINE
8
BLACK
6
CONTINUOUS
10
76.7167
20
-130.325
11
77.0976
21
-130.325
0
LINE
8
BLACK
6
CONTINUOUS
10
77.0976
20
-130.325
11
77.2881
21
-130.42
0
LINE
8
BLACK
6
CONTINUOUS
10
77.2881
20
-130.42
11
77.3833
21
-130.515
0
LINE
8
BLACK
6
CONTINUOUS
10
77.3833
20
-130.515
11
77.4786
21
-130.706
0
LINE
8
BLACK
6
CONTINUOUS
10
77.4786
20
-130.706
11
77.4786
21
-130.801
0
LINE
8
BLACK
6
CONTINUOUS
10
77.4786
20
-130.801
11
77.3833
21
-130.991
0
LINE
8
BLACK
6
CONTINUOUS
10
77.3833
20
-130.991
11
77.2881
21
-131.087
0
LINE
8
BLACK
6
CONTINUOUS
10
77.2881
20
-131.087
11
77.0976
21
-131.182
0
LINE
8
BLACK
6
CONTINUOUS
10
77.0976
20
-131.182
11
76.7167
21
-131.182
0
LINE
8
BLACK
6
CONTINUOUS
10
76.7167
20
-131.182
11
76.5262
21
-131.277
0
LINE
8
BLACK
6
CONTINUOUS
10
76.5262
20
-131.277
11
76.431
21
-131.372
0
LINE
8
BLACK
6
CONTINUOUS
10
76.431
20
-131.372
11
76.3357
21
-131.563
0
LINE
8
BLACK
6
CONTINUOUS
10
76.3357
20
-131.563
11
76.3357
21
-131.944
0
LINE
8
BLACK
6
CONTINUOUS
10
76.3357
20
-131.944
11
76.431
21
-132.134
0
LINE
8
BLACK
6
CONTINUOUS
10
76.431
20
-132.134
11
76.5262
21
-132.23
0
LINE
8
BLACK
6
CONTINUOUS
10
76.5262
20
-132.23
11
76.7167
21
-132.325
0
LINE
8
BLACK
6
CONTINUOUS
10
76.7167
20
-132.325
11
77.0976
21
-132.325
0
LINE
8
BLACK
6
CONTINUOUS
10
77.0976
20
-132.325
11
77.2881
21
-132.23
0
LINE
8
BLACK
6
CONTINUOUS
10
77.2881
20
-132.23
11
77.3833
21
-132.134
0
LINE
8
BLACK
6
CONTINUOUS
10
77.3833
20
-132.134
11
77.4786
21
-131.944
0
LINE
8
BLACK
6
CONTINUOUS
10
77.4786
20
-131.944
11
77.4786
21
-131.563
0
LINE
8
BLACK
6
CONTINUOUS
10
77.4786
20
-131.563
11
77.3833
21
-131.372
0
LINE
8
BLACK
6
CONTINUOUS
10
77.3833
20
-131.372
11
77.2881
21
-131.277
0
LINE
8
BLACK
6
CONTINUOUS
10
77.2881
20
-131.277
11
77.0976
21
-131.182
0
LINE
8
BLACK
6
CONTINUOUS
10
79.8595
20
-132.325
11
79.8595
21
-130.325
0
LINE
8
BLACK
6
CONTINUOUS
10
80.7167
20
-132.325
11
80.7167
21
-131.277
0
LINE
8
BLACK
6
CONTINUOUS
10
80.7167
20
-131.277
11
80.6214
21
-131.087
0
LINE
8
BLACK
6
CONTINUOUS
10
80.6214
20
-131.087
11
80.431
21
-130.991
0
LINE
8
BLACK
6
CONTINUOUS
10
80.431
20
-130.991
11
80.1452
21
-130.991
0
LINE
8
BLACK
6
CONTINUOUS
10
80.1452
20
-130.991
11
79.9548
21
-131.087
0
LINE
8
BLACK
6
CONTINUOUS
10
79.9548
20
-131.087
11
79.8595
21
-131.182
0
LINE
8
BLACK
6
CONTINUOUS
10
81.9548
20
-132.325
11
81.7643
21
-132.23
0
LINE
8
BLACK
6
CONTINUOUS
10
81.7643
20
-132.23
11
81.669
21
-132.134
0
LINE
8
BLACK
6
CONTINUOUS
10
81.669
20
-132.134
11
81.5738
21
-131.944
0
LINE
8
BLACK
6
CONTINUOUS
10
81.5738
20
-131.944
11
81.5738
21
-131.372
0
LINE
8
BLACK
6
CONTINUOUS
10
81.5738
20
-131.372
11
81.669
21
-131.182
0
LINE
8
BLACK
6
CONTINUOUS
10
81.669
20
-131.182
11
81.7643
21
-131.087
0
LINE
8
BLACK
6
CONTINUOUS
10
81.7643
20
-131.087
11
81.9548
21
-130.991
0
LINE
8
BLACK
6
CONTINUOUS
10
81.9548
20
-130.991
11
82.2405
21
-130.991
0
LINE
8
BLACK
6
CONTINUOUS
10
82.2405
20
-130.991
11
82.431
21
-131.087
0
LINE
8
BLACK
6
CONTINUOUS
10
82.431
20
-131.087
11
82.5262
21
-131.182
0
LINE
8
BLACK
6
CONTINUOUS
10
82.5262
20
-131.182
11
82.6214
21
-131.372
0
LINE
8
BLACK
6
CONTINUOUS
10
82.6214
20
-131.372
11
82.6214
21
-131.944
0
LINE
8
BLACK
6
CONTINUOUS
10
82.6214
20
-131.944
11
82.5262
21
-132.134
0
LINE
8
BLACK
6
CONTINUOUS
10
82.5262
20
-132.134
11
82.431
21
-132.23
0
LINE
8
BLACK
6
CONTINUOUS
10
82.431
20
-132.23
11
82.2405
21
-132.325
0
LINE
8
BLACK
6
CONTINUOUS
10
82.2405
20
-132.325
11
81.9548
21
-132.325
0
LINE
8
BLACK
6
CONTINUOUS
10
83.7643
20
-132.325
11
83.5738
21
-132.23
0
LINE
8
BLACK
6
CONTINUOUS
10
83.5738
20
-132.23
11
83.4786
21
-132.039
0
LINE
8
BLACK
6
CONTINUOUS
10
83.4786
20
-132.039
11
83.4786
21
-130.325
0
LINE
8
BLACK
6
CONTINUOUS
10
85.2881
20
-132.23
11
85.0976
21
-132.325
0
LINE
8
BLACK
6
CONTINUOUS
10
85.0976
20
-132.325
11
84.7167
21
-132.325
0
LINE
8
BLACK
6
CONTINUOUS
10
84.7167
20
-132.325
11
84.5262
21
-132.23
0
LINE
8
BLACK
6
CONTINUOUS
10
84.5262
20
-132.23
11
84.431
21
-132.039
0
LINE
8
BLACK
6
CONTINUOUS
10
84.431
20
-132.039
11
84.431
21
-131.277
0
LINE
8
BLACK
6
CONTINUOUS
10
84.431
20
-131.277
11
84.5262
21
-131.087
0
LINE
8
BLACK
6
CONTINUOUS
10
84.5262
20
-131.087
11
84.7167
21
-130.991
0
LINE
8
BLACK
6
CONTINUOUS
10
84.7167
20
-130.991
11
85.0976
21
-130.991
0
LINE
8
BLACK
6
CONTINUOUS
10
85.0976
20
-130.991
11
85.2881
21
-131.087
0
LINE
8
BLACK
6
CONTINUOUS
10
85.2881
20
-131.087
11
85.3833
21
-131.277
0
LINE
8
BLACK
6
CONTINUOUS
10
85.3833
20
-131.277
11
85.3833
21
-131.468
0
LINE
8
BLACK
6
CONTINUOUS
10
85.3833
20
-131.468
11
84.431
21
-131.658
0
LINE
8
BLACK
6
CONTINUOUS
10
86.1452
20
-132.23
11
86.3357
21
-132.325
0
LINE
8
BLACK
6
CONTINUOUS
10
86.3357
20
-132.325
11
86.7167
21
-132.325
0
LINE
8
BLACK
6
CONTINUOUS
10
86.7167
20
-132.325
11
86.9071
21
-132.23
0
LINE
8
BLACK
6
CONTINUOUS
10
86.9071
20
-132.23
11
87.0024
21
-132.039
0
LINE
8
BLACK
6
CONTINUOUS
10
87.0024
20
-132.039
11
87.0024
21
-131.944
0
LINE
8
BLACK
6
CONTINUOUS
10
87.0024
20
-131.944
11
86.9071
21
-131.753
0
LINE
8
BLACK
6
CONTINUOUS
10
86.9071
20
-131.753
11
86.7167
21
-131.658
0
LINE
8
BLACK
6
CONTINUOUS
10
86.7167
20
-131.658
11
86.431
21
-131.658
0
LINE
8
BLACK
6
CONTINUOUS
10
86.431
20
-131.658
11
86.2405
21
-131.563
0
LINE
8
BLACK
6
CONTINUOUS
10
86.2405
20
-131.563
11
86.1452
21
-131.372
0
LINE
8
BLACK
6
CONTINUOUS
10
86.1452
20
-131.372
11
86.1452
21
-131.277
0
LINE
8
BLACK
6
CONTINUOUS
10
86.1452
20
-131.277
11
86.2405
21
-131.087
0
LINE
8
BLACK
6
CONTINUOUS
10
86.2405
20
-131.087
11
86.431
21
-130.991
0
LINE
8
BLACK
6
CONTINUOUS
10
86.431
20
-130.991
11
86.7167
21
-130.991
0
LINE
8
BLACK
6
CONTINUOUS
10
86.7167
20
-130.991
11
86.9071
21
-131.087
0
LINE
8
BLACK
6
CONTINUOUS
10
87.669
20
-133.087
11
87.7643
21
-132.991
0
LINE
8
BLACK
6
CONTINUOUS
10
87.7643
20
-132.991
11
87.9548
21
-132.706
0
LINE
8
BLACK
6
CONTINUOUS
10
87.9548
20
-132.706
11
88.05
21
-132.515
0
LINE
8
BLACK
6
CONTINUOUS
10
88.05
20
-132.515
11
88.1452
21
-132.23
0
LINE
8
BLACK
6
CONTINUOUS
10
88.1452
20
-132.23
11
88.2405
21
-131.753
0
LINE
8
BLACK
6
CONTINUOUS
10
88.2405
20
-131.753
11
88.2405
21
-131.372
0
LINE
8
BLACK
6
CONTINUOUS
10
88.2405
20
-131.372
11
88.1452
21
-130.896
0
LINE
8
BLACK
6
CONTINUOUS
10
88.1452
20
-130.896
11
88.05
21
-130.61
0
LINE
8
BLACK
6
CONTINUOUS
10
88.05
20
-130.61
11
87.9548
21
-130.42
0
LINE
8
BLACK
6
CONTINUOUS
10
87.9548
20
-130.42
11
87.7643
21
-130.134
0
LINE
8
BLACK
6
CONTINUOUS
10
87.7643
20
-130.134
11
87.669
21
-130.039
0
LINE
8
BLACK
6
CONTINUOUS
10
91.2881
20
-133.087
11
91.1929
21
-132.991
0
LINE
8
BLACK
6
CONTINUOUS
10
91.1929
20
-132.991
11
91.0024
21
-132.706
0
LINE
8
BLACK
6
CONTINUOUS
10
91.0024
20
-132.706
11
90.9071
21
-132.515
0
LINE
8
BLACK
6
CONTINUOUS
10
90.9071
20
-132.515
11
90.8119
21
-132.23
0
LINE
8
BLACK
6
CONTINUOUS
10
90.8119
20
-132.23
11
90.7167
21
-131.753
0
LINE
8
BLACK
6
CONTINUOUS
10
90.7167
20
-131.753
11
90.7167
21
-131.372
0
LINE
8
BLACK
6
CONTINUOUS
10
90.7167
20
-131.372
11
90.8119
21
-130.896
0
LINE
8
BLACK
6
CONTINUOUS
10
90.8119
20
-130.896
11
90.9071
21
-130.61
0
LINE
8
BLACK
6
CONTINUOUS
10
90.9071
20
-130.61
11
91.0024
21
-130.42
0
LINE
8
BLACK
6
CONTINUOUS
10
91.0024
20
-130.42
11
91.1929
21
-130.134
0
LINE
8
BLACK
6
CONTINUOUS
10
91.1929
20
-130.134
11
91.2881
21
-130.039
0
LINE
8
BLACK
6
CONTINUOUS
10
92.05
20
-130.991
11
92.05
21
-132.325
0
LINE
8
BLACK
6
CONTINUOUS
10
92.05
20
-131.182
11
92.1452
21
-131.087
0
LINE
8
BLACK
6
CONTINUOUS
10
92.1452
20
-131.087
11
92.3357
21
-130.991
0
LINE
8
BLACK
6
CONTINUOUS
10
92.3357
20
-130.991
11
92.6214
21
-130.991
0
LINE
8
BLACK
6
CONTINUOUS
10
92.6214
20
-130.991
11
92.8119
21
-131.087
0
LINE
8
BLACK
6
CONTINUOUS
10
92.8119
20
-131.087
11
92.9071
21
-131.277
0
LINE
8
BLACK
6
CONTINUOUS
10
92.9071
20
-131.277
11
92.9071
21
-132.325
0
LINE
8
BLACK
6
CONTINUOUS
10
94.1452
20
-132.325
11
93.9548
21
-132.23
0
LINE
8
BLACK
6
CONTINUOUS
10
93.9548
20
-132.23
11
93.8595
21
-132.134
0
LINE
8
BLACK
6
CONTINUOUS
10
93.8595
20
-132.134
11
93.7643
21
-131.944
0
LINE
8
BLACK
6
CONTINUOUS
10
93.7643
20
-131.944
11
93.7643
21
-131.372
0
LINE
8
BLACK
6
CONTINUOUS
10
93.7643
20
-131.372
11
93.8595
21
-131.182
0
LINE
8
BLACK
6
CONTINUOUS
10
93.8595
20
-131.182
11
93.9548
21
-131.087
0
LINE
8
BLACK
6
CONTINUOUS
10
93.9548
20
-131.087
11
94.1452
21
-130.991
0
LINE
8
BLACK
6
CONTINUOUS
10
94.1452
20
-130.991
11
94.431
21
-130.991
0
LINE
8
BLACK
6
CONTINUOUS
10
94.431
20
-130.991
11
94.6214
21
-131.087
0
LINE
8
BLACK
6
CONTINUOUS
10
94.6214
20
-131.087
11
94.7167
21
-131.182
0
LINE
8
BLACK
6
CONTINUOUS
10
94.7167
20
-131.182
11
94.8119
21
-131.372
0
LINE
8
BLACK
6
CONTINUOUS
10
94.8119
20
-131.372
11
94.8119
21
-131.944
0
LINE
8
BLACK
6
CONTINUOUS
10
94.8119
20
-131.944
11
94.7167
21
-132.134
0
LINE
8
BLACK
6
CONTINUOUS
10
94.7167
20
-132.134
11
94.6214
21
-132.23
0
LINE
8
BLACK
6
CONTINUOUS
10
94.6214
20
-132.23
11
94.431
21
-132.325
0
LINE
8
BLACK
6
CONTINUOUS
10
94.431
20
-132.325
11
94.1452
21
-132.325
0
LINE
8
BLACK
6
CONTINUOUS
10
95.3833
20
-130.991
11
96.1452
21
-130.991
0
LINE
8
BLACK
6
CONTINUOUS
10
95.669
20
-130.325
11
95.669
21
-132.039
0
LINE
8
BLACK
6
CONTINUOUS
10
95.669
20
-132.039
11
95.7643
21
-132.23
0
LINE
8
BLACK
6
CONTINUOUS
10
95.7643
20
-132.23
11
95.9548
21
-132.325
0
LINE
8
BLACK
6
CONTINUOUS
10
95.9548
20
-132.325
11
96.1452
21
-132.325
0
LINE
8
BLACK
6
CONTINUOUS
10
98.3357
20
-130.991
11
98.3357
21
-132.991
0
LINE
8
BLACK
6
CONTINUOUS
10
98.3357
20
-131.087
11
98.5262
21
-130.991
0
LINE
8
BLACK
6
CONTINUOUS
10
98.5262
20
-130.991
11
98.9071
21
-130.991
0
LINE
8
BLACK
6
CONTINUOUS
10
98.9071
20
-130.991
11
99.0976
21
-131.087
0
LINE
8
BLACK
6
CONTINUOUS
10
99.0976
20
-131.087
11
99.1929
21
-131.182
0
LINE
8
BLACK
6
CONTINUOUS
10
99.1929
20
-131.182
11
99.2881
21
-131.372
0
LINE
8
BLACK
6
CONTINUOUS
10
99.2881
20
-131.372
11
99.2881
21
-131.944
0
LINE
8
BLACK
6
CONTINUOUS
10
99.2881
20
-131.944
11
99.1929
21
-132.134
0
LINE
8
BLACK
6
CONTINUOUS
10
99.1929
20
-132.134
11
99.0976
21
-132.23
0
LINE
8
BLACK
6
CONTINUOUS
10
99.0976
20
-132.23
11
98.9071
21
-132.325
0
LINE
8
BLACK
6
CONTINUOUS
10
98.9071
20
-132.325
11
98.5262
21
-132.325
0
LINE
8
BLACK
6
CONTINUOUS
10
98.5262
20
-132.325
11
98.3357
21
-132.23
0
LINE
8
BLACK
6
CONTINUOUS
10
100.431
20
-132.325
11
100.24
21
-132.23
0
LINE
8
BLACK
6
CONTINUOUS
10
100.24
20
-132.23
11
100.145
21
-132.039
0
LINE
8
BLACK
6
CONTINUOUS
10
100.145
20
-132.039
11
100.145
21
-130.325
0
LINE
8
BLACK
6
CONTINUOUS
10
102.05
20
-132.325
11
102.05
21
-131.277
0
LINE
8
BLACK
6
CONTINUOUS
10
102.05
20
-131.277
11
101.955
21
-131.087
0
LINE
8
BLACK
6
CONTINUOUS
10
101.955
20
-131.087
11
101.764
21
-130.991
0
LINE
8
BLACK
6
CONTINUOUS
10
101.764
20
-130.991
11
101.383
21
-130.991
0
LINE
8
BLACK
6
CONTINUOUS
10
101.383
20
-130.991
11
101.193
21
-131.087
0
LINE
8
BLACK
6
CONTINUOUS
10
102.05
20
-132.23
11
101.86
21
-132.325
0
LINE
8
BLACK
6
CONTINUOUS
10
101.86
20
-132.325
11
101.383
21
-132.325
0
LINE
8
BLACK
6
CONTINUOUS
10
101.383
20
-132.325
11
101.193
21
-132.23
0
LINE
8
BLACK
6
CONTINUOUS
10
101.193
20
-132.23
11
101.098
21
-132.039
0
LINE
8
BLACK
6
CONTINUOUS
10
101.098
20
-132.039
11
101.098
21
-131.849
0
LINE
8
BLACK
6
CONTINUOUS
10
101.098
20
-131.849
11
101.193
21
-131.658
0
LINE
8
BLACK
6
CONTINUOUS
10
101.193
20
-131.658
11
101.383
21
-131.563
0
LINE
8
BLACK
6
CONTINUOUS
10
101.383
20
-131.563
11
101.86
21
-131.563
0
LINE
8
BLACK
6
CONTINUOUS
10
101.86
20
-131.563
11
102.05
21
-131.468
0
LINE
8
BLACK
6
CONTINUOUS
10
102.717
20
-130.991
11
103.479
21
-130.991
0
LINE
8
BLACK
6
CONTINUOUS
10
103.002
20
-130.325
11
103.002
21
-132.039
0
LINE
8
BLACK
6
CONTINUOUS
10
103.002
20
-132.039
11
103.098
21
-132.23
0
LINE
8
BLACK
6
CONTINUOUS
10
103.098
20
-132.23
11
103.288
21
-132.325
0
LINE
8
BLACK
6
CONTINUOUS
10
103.288
20
-132.325
11
103.479
21
-132.325
0
LINE
8
BLACK
6
CONTINUOUS
10
104.907
20
-132.23
11
104.717
21
-132.325
0
LINE
8
BLACK
6
CONTINUOUS
10
104.717
20
-132.325
11
104.336
21
-132.325
0
LINE
8
BLACK
6
CONTINUOUS
10
104.336
20
-132.325
11
104.145
21
-132.23
0
LINE
8
BLACK
6
CONTINUOUS
10
104.145
20
-132.23
11
104.05
21
-132.039
0
LINE
8
BLACK
6
CONTINUOUS
10
104.05
20
-132.039
11
104.05
21
-131.277
0
LINE
8
BLACK
6
CONTINUOUS
10
104.05
20
-131.277
11
104.145
21
-131.087
0
LINE
8
BLACK
6
CONTINUOUS
10
104.145
20
-131.087
11
104.336
21
-130.991
0
LINE
8
BLACK
6
CONTINUOUS
10
104.336
20
-130.991
11
104.717
21
-130.991
0
LINE
8
BLACK
6
CONTINUOUS
10
104.717
20
-130.991
11
104.907
21
-131.087
0
LINE
8
BLACK
6
CONTINUOUS
10
104.907
20
-131.087
11
105.002
21
-131.277
0
LINE
8
BLACK
6
CONTINUOUS
10
105.002
20
-131.277
11
105.002
21
-131.468
0
LINE
8
BLACK
6
CONTINUOUS
10
105.002
20
-131.468
11
104.05
21
-131.658
0
LINE
8
BLACK
6
CONTINUOUS
10
106.717
20
-132.325
11
106.717
21
-130.325
0
LINE
8
BLACK
6
CONTINUOUS
10
106.717
20
-132.23
11
106.526
21
-132.325
0
LINE
8
BLACK
6
CONTINUOUS
10
106.526
20
-132.325
11
106.145
21
-132.325
0
LINE
8
BLACK
6
CONTINUOUS
10
106.145
20
-132.325
11
105.955
21
-132.23
0
LINE
8
BLACK
6
CONTINUOUS
10
105.955
20
-132.23
11
105.86
21
-132.134
0
LINE
8
BLACK
6
CONTINUOUS
10
105.86
20
-132.134
11
105.764
21
-131.944
0
LINE
8
BLACK
6
CONTINUOUS
10
105.764
20
-131.944
11
105.764
21
-131.372
0
LINE
8
BLACK
6
CONTINUOUS
10
105.764
20
-131.372
11
105.86
21
-131.182
0
LINE
8
BLACK
6
CONTINUOUS
10
105.86
20
-131.182
11
105.955
21
-131.087
0
LINE
8
BLACK
6
CONTINUOUS
10
105.955
20
-131.087
11
106.145
21
-130.991
0
LINE
8
BLACK
6
CONTINUOUS
10
106.145
20
-130.991
11
106.526
21
-130.991
0
LINE
8
BLACK
6
CONTINUOUS
10
106.526
20
-130.991
11
106.717
21
-131.087
0
LINE
8
BLACK
6
CONTINUOUS
10
107.479
20
-133.087
11
107.574
21
-132.991
0
LINE
8
BLACK
6
CONTINUOUS
10
107.574
20
-132.991
11
107.764
21
-132.706
0
LINE
8
BLACK
6
CONTINUOUS
10
107.764
20
-132.706
11
107.86
21
-132.515
0
LINE
8
BLACK
6
CONTINUOUS
10
107.86
20
-132.515
11
107.955
21
-132.23
0
LINE
8
BLACK
6
CONTINUOUS
10
107.955
20
-132.23
11
108.05
21
-131.753
0
LINE
8
BLACK
6
CONTINUOUS
10
108.05
20
-131.753
11
108.05
21
-131.372
0
LINE
8
BLACK
6
CONTINUOUS
10
108.05
20
-131.372
11
107.955
21
-130.896
0
LINE
8
BLACK
6
CONTINUOUS
10
107.955
20
-130.896
11
107.86
21
-130.61
0
LINE
8
BLACK
6
CONTINUOUS
10
107.86
20
-130.61
11
107.764
21
-130.42
0
LINE
8
BLACK
6
CONTINUOUS
10
107.764
20
-130.42
11
107.574
21
-130.134
0
LINE
8
BLACK
6
CONTINUOUS
10
107.574
20
-130.134
11
107.479
21
-130.039
  0
ENDSEC
  0
EOF
